%TF.GenerationSoftware,KiCad,Pcbnew,9.0.6*%
%TF.CreationDate,2025-11-28T19:55:11-03:00*%
%TF.ProjectId,placa_buck,706c6163-615f-4627-9563-6b2e6b696361,rev?*%
%TF.SameCoordinates,Original*%
%TF.FileFunction,Copper,L2,Bot*%
%TF.FilePolarity,Positive*%
%FSLAX46Y46*%
G04 Gerber Fmt 4.6, Leading zero omitted, Abs format (unit mm)*
G04 Created by KiCad (PCBNEW 9.0.6) date 2025-11-28 19:55:11*
%MOMM*%
%LPD*%
G01*
G04 APERTURE LIST*
G04 Aperture macros list*
%AMRoundRect*
0 Rectangle with rounded corners*
0 $1 Rounding radius*
0 $2 $3 $4 $5 $6 $7 $8 $9 X,Y pos of 4 corners*
0 Add a 4 corners polygon primitive as box body*
4,1,4,$2,$3,$4,$5,$6,$7,$8,$9,$2,$3,0*
0 Add four circle primitives for the rounded corners*
1,1,$1+$1,$2,$3*
1,1,$1+$1,$4,$5*
1,1,$1+$1,$6,$7*
1,1,$1+$1,$8,$9*
0 Add four rect primitives between the rounded corners*
20,1,$1+$1,$2,$3,$4,$5,0*
20,1,$1+$1,$4,$5,$6,$7,0*
20,1,$1+$1,$6,$7,$8,$9,0*
20,1,$1+$1,$8,$9,$2,$3,0*%
G04 Aperture macros list end*
%TA.AperFunction,ComponentPad*%
%ADD10RoundRect,0.281250X-0.618750X1.018750X-0.618750X-1.018750X0.618750X-1.018750X0.618750X1.018750X0*%
%TD*%
%TA.AperFunction,ComponentPad*%
%ADD11O,1.800000X2.600000*%
%TD*%
%TA.AperFunction,ComponentPad*%
%ADD12R,3.200000X3.200000*%
%TD*%
%TA.AperFunction,ComponentPad*%
%ADD13C,3.200000*%
%TD*%
%TA.AperFunction,ComponentPad*%
%ADD14C,2.000000*%
%TD*%
%TA.AperFunction,ComponentPad*%
%ADD15R,2.200000X2.000000*%
%TD*%
%TA.AperFunction,ComponentPad*%
%ADD16O,2.200000X2.000000*%
%TD*%
%TA.AperFunction,ComponentPad*%
%ADD17R,1.800000X1.800000*%
%TD*%
%TA.AperFunction,ComponentPad*%
%ADD18C,1.800000*%
%TD*%
%TA.AperFunction,ComponentPad*%
%ADD19RoundRect,0.249999X-0.850001X0.850001X-0.850001X-0.850001X0.850001X-0.850001X0.850001X0.850001X0*%
%TD*%
%TA.AperFunction,ComponentPad*%
%ADD20C,2.200000*%
%TD*%
%TA.AperFunction,ComponentPad*%
%ADD21RoundRect,0.291666X0.408334X-0.408334X0.408334X0.408334X-0.408334X0.408334X-0.408334X-0.408334X0*%
%TD*%
%TA.AperFunction,ComponentPad*%
%ADD22C,1.400000*%
%TD*%
%TA.AperFunction,ComponentPad*%
%ADD23RoundRect,0.281250X-1.018750X-0.618750X1.018750X-0.618750X1.018750X0.618750X-1.018750X0.618750X0*%
%TD*%
%TA.AperFunction,ComponentPad*%
%ADD24O,2.600000X1.800000*%
%TD*%
%TA.AperFunction,ComponentPad*%
%ADD25RoundRect,0.291666X0.408334X0.408334X-0.408334X0.408334X-0.408334X-0.408334X0.408334X-0.408334X0*%
%TD*%
%TA.AperFunction,ComponentPad*%
%ADD26RoundRect,0.272726X0.927274X0.927274X-0.927274X0.927274X-0.927274X-0.927274X0.927274X-0.927274X0*%
%TD*%
%TA.AperFunction,ComponentPad*%
%ADD27C,2.400000*%
%TD*%
%TA.AperFunction,ComponentPad*%
%ADD28C,1.600000*%
%TD*%
%TA.AperFunction,ComponentPad*%
%ADD29C,2.500000*%
%TD*%
%TA.AperFunction,ComponentPad*%
%ADD30R,2.500000X2.500000*%
%TD*%
%TA.AperFunction,Conductor*%
%ADD31C,0.750000*%
%TD*%
%TA.AperFunction,Conductor*%
%ADD32C,0.800000*%
%TD*%
%TA.AperFunction,Conductor*%
%ADD33C,0.500000*%
%TD*%
%TA.AperFunction,Conductor*%
%ADD34C,2.000000*%
%TD*%
G04 APERTURE END LIST*
D10*
%TO.P,U6,1*%
%TO.N,Net-(R7-Pad2)*%
X158810000Y-67690000D03*
D11*
%TO.P,U6,2,-*%
%TO.N,Vcc{slash}2*%
X156270000Y-67690000D03*
%TO.P,U6,3,+*%
%TO.N,Net-(U6A-+)*%
X153730000Y-67690000D03*
%TO.P,U6,4,V-*%
%TO.N,GND*%
X151190000Y-67690000D03*
%TO.P,U6,5,+*%
X151190000Y-75310000D03*
%TO.P,U6,6,-*%
%TO.N,Vcc*%
X153730000Y-75310000D03*
%TO.P,U6,7*%
%TO.N,unconnected-(U6-Pad7)*%
X156270000Y-75310000D03*
%TO.P,U6,8,V+*%
%TO.N,Vcc*%
X158810000Y-75310000D03*
%TD*%
D10*
%TO.P,U2,1*%
%TO.N,Net-(U3A-+)*%
X170500000Y-46500000D03*
D11*
%TO.P,U2,2,-*%
%TO.N,Net-(JP2-A)*%
X167960000Y-46500000D03*
%TO.P,U2,3,+*%
%TO.N,Net-(U2A-+)*%
X165420000Y-46500000D03*
%TO.P,U2,4,V-*%
%TO.N,GND*%
X162880000Y-46500000D03*
%TO.P,U2,5,+*%
X162880000Y-54120000D03*
%TO.P,U2,6,-*%
%TO.N,Net-(U2B--)*%
X165420000Y-54120000D03*
%TO.P,U2,7*%
X167960000Y-54120000D03*
%TO.P,U2,8,V+*%
%TO.N,Vcc*%
X170500000Y-54120000D03*
%TD*%
D12*
%TO.P,J2,1,Pin_1*%
%TO.N,GND*%
X136500000Y-39080000D03*
D13*
%TO.P,J2,2,Pin_2*%
%TO.N,Vreg*%
X136500000Y-34000000D03*
%TD*%
D14*
%TO.P,R9,1*%
%TO.N,Net-(U6A-+)*%
X148420000Y-64000000D03*
%TO.P,R9,2*%
%TO.N,Net-(R7-Pad2)*%
X158580000Y-64000000D03*
%TD*%
%TO.P,R20,1*%
%TO.N,Vcc{slash}2*%
X160420000Y-82000000D03*
%TO.P,R20,2*%
X170580000Y-82000000D03*
%TD*%
%TO.P,R14,1*%
%TO.N,Net-(C11-Pad2)*%
X167580000Y-57500000D03*
%TO.P,R14,2*%
%TO.N,Net-(JP2-A)*%
X157420000Y-57500000D03*
%TD*%
D15*
%TO.P,U4,1,IN*%
%TO.N,Vreg*%
X142000000Y-36000000D03*
D16*
%TO.P,U4,2,GND*%
%TO.N,GND*%
X142000000Y-38540000D03*
%TO.P,U4,3,OUT*%
%TO.N,Vcc*%
X142000000Y-41080000D03*
%TD*%
D14*
%TO.P,C4,1*%
%TO.N,Net-(U7A--)*%
X172310000Y-76230000D03*
%TO.P,C4,2*%
%TO.N,Triangular*%
X172310000Y-71230000D03*
%TD*%
D17*
%TO.P,U8,1,REF*%
%TO.N,Net-(U8-REF)*%
X150050000Y-42450000D03*
D18*
%TO.P,U8,2,A*%
%TO.N,GND*%
X150050000Y-44990000D03*
%TO.P,U8,3,K*%
%TO.N,Net-(U2A-+)*%
X150050000Y-47530000D03*
%TD*%
D14*
%TO.P,R18,1*%
%TO.N,Vcc*%
X143420000Y-79500000D03*
%TO.P,R18,2*%
X153580000Y-79500000D03*
%TD*%
D15*
%TO.P,Q2,1,G*%
%TO.N,Net-(Q2-G)*%
X207050000Y-60960000D03*
D16*
%TO.P,Q2,2,D*%
%TO.N,Vs*%
X207050000Y-63500000D03*
%TO.P,Q2,3,S*%
%TO.N,GND*%
X207050000Y-66040000D03*
%TD*%
D18*
%TO.P,JP2,1,A*%
%TO.N,Net-(JP2-A)*%
X173500000Y-49500000D03*
%TO.P,JP2,2,B*%
%TO.N,Vf*%
X173500000Y-52040000D03*
%TD*%
%TO.P,JP3,1,A*%
%TO.N,PWM*%
X190000000Y-43750000D03*
%TO.P,JP3,2,B*%
%TO.N,Net-(JP3-B)*%
X190000000Y-46290000D03*
%TD*%
D14*
%TO.P,R7,1*%
%TO.N,Net-(U7A--)*%
X166500000Y-77580000D03*
%TO.P,R7,2*%
%TO.N,Net-(R7-Pad2)*%
X166500000Y-67420000D03*
%TD*%
D19*
%TO.P,D3,1,K*%
%TO.N,Vs*%
X202000000Y-63420000D03*
D20*
%TO.P,D3,2,A*%
%TO.N,GND*%
X202000000Y-73580000D03*
%TD*%
D14*
%TO.P,R12,1*%
%TO.N,Vcc{slash}2*%
X153420000Y-85000000D03*
%TO.P,R12,2*%
%TO.N,GND*%
X163580000Y-85000000D03*
%TD*%
D21*
%TO.P,C2,1*%
%TO.N,Vout*%
X212000000Y-87000000D03*
D22*
%TO.P,C2,2*%
%TO.N,GND*%
X212000000Y-85000000D03*
%TD*%
D14*
%TO.P,C6,1*%
%TO.N,Vcc*%
X188500000Y-73500000D03*
%TO.P,C6,2*%
%TO.N,GND*%
X188500000Y-78500000D03*
%TD*%
%TO.P,C7,1*%
%TO.N,Vcc*%
X158000000Y-79000000D03*
%TO.P,C7,2*%
%TO.N,GND*%
X163000000Y-79000000D03*
%TD*%
D23*
%TO.P,U7,1*%
%TO.N,Triangular*%
X176690000Y-72690000D03*
D24*
%TO.P,U7,2,-*%
%TO.N,Net-(U7A--)*%
X176690000Y-75230000D03*
%TO.P,U7,3,+*%
%TO.N,Vcc{slash}2*%
X176690000Y-77770000D03*
%TO.P,U7,4,V-*%
%TO.N,GND*%
X176690000Y-80310000D03*
%TO.P,U7,5,+*%
X184310000Y-80310000D03*
%TO.P,U7,6,-*%
%TO.N,Net-(U7B--)*%
X184310000Y-77770000D03*
%TO.P,U7,7*%
X184310000Y-75230000D03*
%TO.P,U7,8,V+*%
%TO.N,Vcc*%
X184310000Y-72690000D03*
%TD*%
D14*
%TO.P,R15,1*%
%TO.N,Net-(U2A-+)*%
X164080000Y-41500000D03*
%TO.P,R15,2*%
%TO.N,Net-(U8-REF)*%
X153920000Y-41500000D03*
%TD*%
%TO.P,C5,1*%
%TO.N,Vb*%
X202690000Y-37690000D03*
%TO.P,C5,2*%
%TO.N,Vs*%
X197690000Y-37690000D03*
%TD*%
%TO.P,C8,1*%
%TO.N,Vcc*%
X189000000Y-54500000D03*
%TO.P,C8,2*%
%TO.N,GND*%
X194000000Y-54500000D03*
%TD*%
%TO.P,R6,1*%
%TO.N,Vcc*%
X146000000Y-57580000D03*
%TO.P,R6,2*%
%TO.N,Net-(U2A-+)*%
X146000000Y-47420000D03*
%TD*%
%TO.P,R1,1*%
%TO.N,Net-(Q1-G)*%
X217000000Y-54580000D03*
%TO.P,R1,2*%
%TO.N,Vho*%
X217000000Y-44420000D03*
%TD*%
D15*
%TO.P,Q1,1,G*%
%TO.N,Net-(Q1-G)*%
X217000000Y-58420000D03*
D16*
%TO.P,Q1,2,D*%
%TO.N,Vin*%
X217000000Y-60960000D03*
%TO.P,Q1,3,S*%
%TO.N,Vs*%
X217000000Y-63500000D03*
%TD*%
D14*
%TO.P,C11,1*%
%TO.N,Vout*%
X177500000Y-59500000D03*
%TO.P,C11,2*%
%TO.N,Net-(C11-Pad2)*%
X172500000Y-59500000D03*
%TD*%
%TO.P,R17,1*%
%TO.N,Vcc*%
X183920000Y-69000000D03*
%TO.P,R17,2*%
X194080000Y-69000000D03*
%TD*%
D18*
%TO.P,JP1,1,A*%
%TO.N,Net-(JP1-A)*%
X177000000Y-69500000D03*
%TO.P,JP1,2,B*%
%TO.N,Triangular*%
X179540000Y-69500000D03*
%TD*%
D14*
%TO.P,C12,1*%
%TO.N,Vcc*%
X147000000Y-43000000D03*
%TO.P,C12,2*%
%TO.N,GND*%
X147000000Y-38000000D03*
%TD*%
%TO.P,C10,1*%
%TO.N,Net-(C10-Pad1)*%
X170500000Y-33000000D03*
%TO.P,C10,2*%
%TO.N,Net-(U3A-+)*%
X175500000Y-33000000D03*
%TD*%
D25*
%TO.P,C1,1*%
%TO.N,Vin*%
X216000000Y-39500000D03*
D22*
%TO.P,C1,2*%
%TO.N,GND*%
X214000000Y-39500000D03*
%TD*%
D14*
%TO.P,R2,1*%
%TO.N,Net-(Q2-G)*%
X207000000Y-56000000D03*
%TO.P,R2,2*%
%TO.N,Vlo*%
X207000000Y-45840000D03*
%TD*%
%TO.P,R10,1*%
%TO.N,Net-(U6A-+)*%
X157340000Y-60500000D03*
%TO.P,R10,2*%
%TO.N,Triangular*%
X167500000Y-60500000D03*
%TD*%
%TO.P,R8,1*%
%TO.N,Vcc*%
X162500000Y-75580000D03*
%TO.P,R8,2*%
%TO.N,Net-(R7-Pad2)*%
X162500000Y-65420000D03*
%TD*%
%TO.P,R5,1*%
%TO.N,Vcc*%
X185500000Y-32420000D03*
%TO.P,R5,2*%
%TO.N,Net-(JP3-B)*%
X185500000Y-42580000D03*
%TD*%
D10*
%TO.P,U3,1*%
%TO.N,Net-(JP3-B)*%
X185500000Y-46500000D03*
D11*
%TO.P,U3,2,-*%
%TO.N,Net-(JP1-A)*%
X182960000Y-46500000D03*
%TO.P,U3,3,+*%
%TO.N,Net-(U3A-+)*%
X180420000Y-46500000D03*
%TO.P,U3,4,V-*%
%TO.N,GND*%
X177880000Y-46500000D03*
%TO.P,U3,5,+*%
X177880000Y-54120000D03*
%TO.P,U3,6,-*%
%TO.N,Vcc*%
X180420000Y-54120000D03*
%TO.P,U3,7*%
%TO.N,unconnected-(U3-Pad7)*%
X182960000Y-54120000D03*
%TO.P,U3,8,V+*%
%TO.N,Vcc*%
X185500000Y-54120000D03*
%TD*%
D23*
%TO.P,U1,1,VCC*%
%TO.N,Vcc*%
X194880000Y-40880000D03*
D24*
%TO.P,U1,2,IN*%
%TO.N,PWM*%
X194880000Y-43420000D03*
%TO.P,U1,3,~{SD}*%
%TO.N,Vcc*%
X194880000Y-45960000D03*
%TO.P,U1,4,COM*%
%TO.N,GND*%
X194880000Y-48500000D03*
%TO.P,U1,5,LO*%
%TO.N,Vlo*%
X202500000Y-48500000D03*
%TO.P,U1,6,VS*%
%TO.N,Vs*%
X202500000Y-45960000D03*
%TO.P,U1,7,HO*%
%TO.N,Vho*%
X202500000Y-43420000D03*
%TO.P,U1,8,VB*%
%TO.N,Vb*%
X202500000Y-40880000D03*
%TD*%
D26*
%TO.P,D1,1,K*%
%TO.N,Vb*%
X203270000Y-34190000D03*
D27*
%TO.P,D1,2,A*%
%TO.N,Vcc*%
X193110000Y-34190000D03*
%TD*%
D14*
%TO.P,R11,1*%
%TO.N,Vcc*%
X139840000Y-85000000D03*
%TO.P,R11,2*%
%TO.N,Vcc{slash}2*%
X150000000Y-85000000D03*
%TD*%
D12*
%TO.P,J1,1,Pin_1*%
%TO.N,GND*%
X211955000Y-33000000D03*
D13*
%TO.P,J1,2,Pin_2*%
%TO.N,Vin*%
X217035000Y-33000000D03*
%TD*%
D14*
%TO.P,C9,1*%
%TO.N,Vcc*%
X159500000Y-53000000D03*
%TO.P,C9,2*%
%TO.N,GND*%
X154500000Y-53000000D03*
%TD*%
%TO.P,C3,1*%
%TO.N,Net-(U3A-+)*%
X176000000Y-42000000D03*
%TO.P,C3,2*%
%TO.N,Net-(JP2-A)*%
X171000000Y-42000000D03*
%TD*%
%TO.P,R4,1*%
%TO.N,Vf*%
X173420000Y-63000000D03*
%TO.P,R4,2*%
%TO.N,GND*%
X183580000Y-63000000D03*
%TD*%
D12*
%TO.P,J3,1,Pin_1*%
%TO.N,Vout*%
X218000000Y-88545000D03*
D13*
%TO.P,J3,2,Pin_2*%
%TO.N,GND*%
X218000000Y-83465000D03*
%TD*%
D14*
%TO.P,R19,1*%
%TO.N,Vcc*%
X170840000Y-37000000D03*
%TO.P,R19,2*%
X181000000Y-37000000D03*
%TD*%
%TO.P,R3,1*%
%TO.N,Vout*%
X183580000Y-66000000D03*
%TO.P,R3,2*%
%TO.N,Vf*%
X173420000Y-66000000D03*
%TD*%
%TO.P,R16,1*%
%TO.N,Net-(U8-REF)*%
X153840000Y-38500000D03*
%TO.P,R16,2*%
%TO.N,GND*%
X164000000Y-38500000D03*
%TD*%
%TO.P,R13,1*%
%TO.N,Net-(JP2-A)*%
X167000000Y-42080000D03*
%TO.P,R13,2*%
%TO.N,Net-(C10-Pad1)*%
X167000000Y-31920000D03*
%TD*%
D28*
%TO.P,C13,1*%
%TO.N,Vreg*%
X141500000Y-32000000D03*
%TO.P,C13,2*%
%TO.N,GND*%
X146500000Y-32000000D03*
%TD*%
D19*
%TO.P,D2,1,K*%
%TO.N,Vin*%
X212500000Y-60920000D03*
D20*
%TO.P,D2,2,A*%
%TO.N,Vs*%
X212500000Y-71080000D03*
%TD*%
D29*
%TO.P,L1,1,1*%
%TO.N,Vs*%
X233000000Y-63500000D03*
X238000000Y-63500000D03*
X243000000Y-63500000D03*
X248000000Y-63500000D03*
X253000000Y-63500000D03*
D30*
%TO.P,L1,2,2*%
%TO.N,Vout*%
X233000000Y-88500000D03*
D29*
X238000000Y-88500000D03*
X248000000Y-88500000D03*
X253000000Y-88500000D03*
%TD*%
D31*
%TO.N,Vf*%
X173420000Y-63000000D02*
X173420000Y-66000000D01*
%TO.N,Net-(U2B--)*%
X165420000Y-54120000D02*
X167960000Y-54120000D01*
%TO.N,Vcc{slash}2*%
X150000000Y-85000000D02*
X153420000Y-85000000D01*
%TO.N,Vcc*%
X184310000Y-72690000D02*
X184310000Y-69390000D01*
X184310000Y-69390000D02*
X183920000Y-69000000D01*
%TO.N,Net-(U7B--)*%
X184310000Y-75230000D02*
X184310000Y-77770000D01*
%TO.N,Vcc*%
X152751000Y-36749000D02*
X147000000Y-42500000D01*
X147000000Y-42500000D02*
X147000000Y-43000000D01*
X170840000Y-37000000D02*
X170589000Y-36749000D01*
X170589000Y-36749000D02*
X152751000Y-36749000D01*
%TO.N,Net-(Q1-G)*%
X217000000Y-54580000D02*
X217000000Y-58420000D01*
%TO.N,Net-(Q2-G)*%
X207000000Y-56000000D02*
X207000000Y-60910000D01*
X207000000Y-60910000D02*
X207050000Y-60960000D01*
%TO.N,Vho*%
X217000000Y-44420000D02*
X216000000Y-43420000D01*
X216000000Y-43420000D02*
X202500000Y-43420000D01*
%TO.N,Vin*%
X216000000Y-39500000D02*
X219601000Y-39500000D01*
%TO.N,Vb*%
X202690000Y-37690000D02*
X202690000Y-34770000D01*
X202690000Y-34770000D02*
X203270000Y-34190000D01*
X202500000Y-40880000D02*
X202500000Y-37880000D01*
X202500000Y-37880000D02*
X202690000Y-37690000D01*
%TO.N,Vlo*%
X204340000Y-48500000D02*
X207000000Y-45840000D01*
X202500000Y-48500000D02*
X204340000Y-48500000D01*
%TO.N,Vs*%
X200000000Y-40000000D02*
X197690000Y-37690000D01*
X200000000Y-44000000D02*
X200000000Y-40000000D01*
X202500000Y-45960000D02*
X201960000Y-45960000D01*
X201960000Y-45960000D02*
X200000000Y-44000000D01*
X200449000Y-61869000D02*
X202000000Y-63420000D01*
X200449000Y-48011000D02*
X200449000Y-61869000D01*
X202500000Y-45960000D02*
X200449000Y-48011000D01*
%TO.N,Vcc{slash}2*%
X170580000Y-82000000D02*
X174810000Y-77770000D01*
X174810000Y-77770000D02*
X176690000Y-77770000D01*
%TO.N,Net-(U7A--)*%
X170960000Y-77580000D02*
X166500000Y-77580000D01*
X172310000Y-76230000D02*
X170960000Y-77580000D01*
X175000000Y-76230000D02*
X172310000Y-76230000D01*
X176690000Y-75230000D02*
X176000000Y-75230000D01*
X176000000Y-75230000D02*
X175000000Y-76230000D01*
%TO.N,Vcc*%
X184310000Y-72690000D02*
X187690000Y-72690000D01*
X187690000Y-72690000D02*
X188500000Y-73500000D01*
X194080000Y-59580000D02*
X189000000Y-54500000D01*
X194080000Y-69000000D02*
X194080000Y-59580000D01*
%TO.N,PWM*%
X190000000Y-43750000D02*
X194550000Y-43750000D01*
X194550000Y-43750000D02*
X194880000Y-43420000D01*
%TO.N,Vcc*%
X185500000Y-54120000D02*
X193660000Y-45960000D01*
X193660000Y-45960000D02*
X194880000Y-45960000D01*
X194880000Y-45960000D02*
X196040000Y-45960000D01*
X196040000Y-45960000D02*
X196931000Y-45069000D01*
X196931000Y-42931000D02*
X196931000Y-45069000D01*
X194880000Y-40880000D02*
X196931000Y-42931000D01*
X193110000Y-34190000D02*
X193110000Y-39110000D01*
X193110000Y-39110000D02*
X194880000Y-40880000D01*
X187270000Y-34190000D02*
X193110000Y-34190000D01*
X185500000Y-32420000D02*
X187270000Y-34190000D01*
X181000000Y-37000000D02*
X181000000Y-36920000D01*
X181000000Y-36920000D02*
X185500000Y-32420000D01*
%TO.N,Net-(JP3-B)*%
X185500000Y-46500000D02*
X185500000Y-42580000D01*
X185500000Y-46500000D02*
X189790000Y-46500000D01*
X189790000Y-46500000D02*
X190000000Y-46290000D01*
%TO.N,Vcc*%
X185500000Y-54120000D02*
X188620000Y-54120000D01*
X188620000Y-54120000D02*
X189000000Y-54500000D01*
X185500000Y-54120000D02*
X185500000Y-53720000D01*
X185500000Y-53720000D02*
X183890000Y-52110000D01*
X183827433Y-52172567D02*
X183890000Y-52110000D01*
X182172567Y-52172567D02*
X183827433Y-52172567D01*
X180420000Y-54120000D02*
X180420000Y-53925134D01*
X180420000Y-53925134D02*
X182172567Y-52172567D01*
%TO.N,Net-(U3A-+)*%
X175145133Y-46500000D02*
X170500000Y-46500000D01*
X177072567Y-48427433D02*
X175145134Y-46500000D01*
X175145134Y-46500000D02*
X175145133Y-46500000D01*
X178769000Y-48551000D02*
X177196134Y-48551000D01*
X177196134Y-48551000D02*
X177072567Y-48427433D01*
X180420000Y-46500000D02*
X180420000Y-46900000D01*
X180420000Y-46900000D02*
X178769000Y-48551000D01*
%TO.N,Net-(C10-Pad1)*%
X170500000Y-33000000D02*
X168080000Y-33000000D01*
X168080000Y-33000000D02*
X167000000Y-31920000D01*
%TO.N,Net-(U3A-+)*%
X176000000Y-42000000D02*
X176000000Y-33500000D01*
X176000000Y-33500000D02*
X175500000Y-33000000D01*
X170500000Y-46500000D02*
X171500000Y-46500000D01*
X171500000Y-46500000D02*
X176000000Y-42000000D01*
%TO.N,Net-(JP2-A)*%
X167960000Y-46500000D02*
X167960000Y-46900000D01*
X167960000Y-46900000D02*
X165860000Y-49000000D01*
X161023712Y-49000000D02*
X165860000Y-49000000D01*
X157420000Y-52603712D02*
X161023712Y-49000000D01*
X157420000Y-57500000D02*
X157420000Y-52603712D01*
X167960000Y-48300000D02*
X167960000Y-46500000D01*
X169160000Y-49500000D02*
X167960000Y-48300000D01*
X173500000Y-49500000D02*
X169160000Y-49500000D01*
X167000000Y-42080000D02*
X170920000Y-42080000D01*
X170920000Y-42080000D02*
X171000000Y-42000000D01*
X167960000Y-43040000D02*
X167960000Y-46500000D01*
X167000000Y-42080000D02*
X167960000Y-43040000D01*
%TO.N,Net-(U2A-+)*%
X165420000Y-42840000D02*
X165420000Y-46500000D01*
X164080000Y-41500000D02*
X165420000Y-42840000D01*
X158050000Y-47530000D02*
X164080000Y-41500000D01*
X150050000Y-47530000D02*
X158050000Y-47530000D01*
X146000000Y-47420000D02*
X149940000Y-47420000D01*
X149940000Y-47420000D02*
X150050000Y-47530000D01*
%TO.N,Net-(U8-REF)*%
X153920000Y-41500000D02*
X153920000Y-38580000D01*
X153920000Y-38580000D02*
X153840000Y-38500000D01*
X150050000Y-42450000D02*
X152970000Y-42450000D01*
X152970000Y-42450000D02*
X153920000Y-41500000D01*
%TO.N,Vreg*%
X138500000Y-32000000D02*
X141500000Y-32000000D01*
X136500000Y-34000000D02*
X138500000Y-32000000D01*
X142000000Y-36000000D02*
X142000000Y-32500000D01*
X142000000Y-32500000D02*
X141500000Y-32000000D01*
%TO.N,Vcc*%
X145080000Y-41080000D02*
X147000000Y-43000000D01*
X142000000Y-41080000D02*
X145080000Y-41080000D01*
X144000000Y-46000000D02*
X147000000Y-43000000D01*
X144000000Y-55580000D02*
X144000000Y-46000000D01*
X146000000Y-57580000D02*
X144000000Y-55580000D01*
X139840000Y-83080000D02*
X143420000Y-79500000D01*
X139840000Y-85000000D02*
X139840000Y-83080000D01*
X143420000Y-79500000D02*
X143420000Y-60160000D01*
X146000000Y-57580000D02*
X143420000Y-60160000D01*
%TO.N,Net-(U6A-+)*%
X153730000Y-67690000D02*
X150040000Y-64000000D01*
X150040000Y-64000000D02*
X148420000Y-64000000D01*
X153730000Y-67690000D02*
X153730000Y-64110000D01*
X153730000Y-64110000D02*
X157340000Y-60500000D01*
%TO.N,Net-(R7-Pad2)*%
X162500000Y-65420000D02*
X164500000Y-65420000D01*
X164500000Y-65420000D02*
X166500000Y-67420000D01*
X158580000Y-64000000D02*
X161080000Y-64000000D01*
X161080000Y-64000000D02*
X162500000Y-65420000D01*
X158810000Y-67690000D02*
X158810000Y-64230000D01*
X158810000Y-64230000D02*
X158580000Y-64000000D01*
%TO.N,Vcc{slash}2*%
X153360000Y-71000000D02*
X156270000Y-68090000D01*
X156270000Y-68090000D02*
X156270000Y-67690000D01*
X150000000Y-71000000D02*
X153360000Y-71000000D01*
X146500000Y-74500000D02*
X150000000Y-71000000D01*
X146500000Y-81500000D02*
X146500000Y-74500000D01*
X150000000Y-85000000D02*
X146500000Y-81500000D01*
X156420000Y-82000000D02*
X153420000Y-85000000D01*
X160420000Y-82000000D02*
X156420000Y-82000000D01*
%TO.N,Vcc*%
X158000000Y-79000000D02*
X158000000Y-76120000D01*
X158000000Y-76120000D02*
X158810000Y-75310000D01*
X153580000Y-79500000D02*
X153580000Y-75460000D01*
X153580000Y-75460000D02*
X153730000Y-75310000D01*
X158810000Y-75310000D02*
X156934000Y-73434000D01*
X156934000Y-73434000D02*
X155606000Y-73434000D01*
X155606000Y-73434000D02*
X153730000Y-75310000D01*
X162500000Y-75580000D02*
X159080000Y-75580000D01*
X159080000Y-75580000D02*
X158810000Y-75310000D01*
X168251000Y-66694712D02*
X164556288Y-63000000D01*
X162500000Y-75580000D02*
X162500000Y-75500000D01*
X162500000Y-75500000D02*
X168251000Y-69749000D01*
X168251000Y-69749000D02*
X168251000Y-66694712D01*
X159500000Y-53000000D02*
X159500000Y-61000000D01*
X159500000Y-61000000D02*
X161500000Y-63000000D01*
X161500000Y-63000000D02*
X164556288Y-63000000D01*
X159500000Y-53000000D02*
X162500000Y-50000000D01*
X162500000Y-50000000D02*
X167500000Y-50000000D01*
X167500000Y-50000000D02*
X170500000Y-53000000D01*
X170500000Y-53000000D02*
X170500000Y-54120000D01*
%TO.N,Net-(C11-Pad2)*%
X169580000Y-59500000D02*
X172500000Y-59500000D01*
X167580000Y-57500000D02*
X169580000Y-59500000D01*
%TO.N,Triangular*%
X172310000Y-71230000D02*
X171310000Y-70230000D01*
X171310000Y-70230000D02*
X171310000Y-64310000D01*
X171310000Y-64310000D02*
X167500000Y-60500000D01*
X176690000Y-72690000D02*
X173770000Y-72690000D01*
X173770000Y-72690000D02*
X172310000Y-71230000D01*
X179540000Y-69500000D02*
X179540000Y-69840000D01*
X179540000Y-69840000D02*
X176690000Y-72690000D01*
%TO.N,Vf*%
X173500000Y-52040000D02*
X174400000Y-52940000D01*
X174400000Y-52940000D02*
X174400000Y-62020000D01*
X174400000Y-62020000D02*
X173420000Y-63000000D01*
%TO.N,Net-(JP1-A)*%
X182960000Y-46500000D02*
X182960000Y-46900000D01*
X182960000Y-46900000D02*
X178917000Y-50943000D01*
X178917000Y-50943000D02*
X178145357Y-50943000D01*
X178145357Y-50943000D02*
X175624000Y-53464357D01*
X175624000Y-53464357D02*
X175624000Y-68124000D01*
X175624000Y-68124000D02*
X177000000Y-69500000D01*
D32*
%TO.N,Vout*%
X183580000Y-66000000D02*
X184994213Y-66000000D01*
X184994213Y-66000000D02*
X205994213Y-87000000D01*
X205994213Y-87000000D02*
X212000000Y-87000000D01*
X177500000Y-59500000D02*
X177500000Y-59920000D01*
X177500000Y-59920000D02*
X183580000Y-66000000D01*
D33*
X183580000Y-65580000D02*
X183580000Y-66000000D01*
D34*
X218000000Y-88545000D02*
X213344000Y-88545000D01*
X252955000Y-88545000D02*
X253000000Y-88500000D01*
X218000000Y-88545000D02*
X252955000Y-88545000D01*
D33*
X183500000Y-66000000D02*
X183580000Y-66000000D01*
X183000000Y-66000000D02*
X183580000Y-66000000D01*
D34*
X213344000Y-88545000D02*
X212000000Y-87201000D01*
%TO.N,Vs*%
X202080000Y-63500000D02*
X207050000Y-63500000D01*
X233000000Y-63500000D02*
X238000000Y-63500000D01*
D33*
X201500000Y-45960000D02*
X202500000Y-45960000D01*
D34*
X217000000Y-63500000D02*
X233000000Y-63500000D01*
X217000000Y-66580000D02*
X212500000Y-71080000D01*
D33*
X206970000Y-63420000D02*
X207050000Y-63500000D01*
D34*
X202000000Y-63420000D02*
X202080000Y-63500000D01*
X238000000Y-63500000D02*
X253000000Y-63500000D01*
X216979000Y-63521000D02*
X207071000Y-63521000D01*
X217000000Y-63500000D02*
X216979000Y-63521000D01*
X216960000Y-63460000D02*
X217000000Y-63500000D01*
X217000000Y-63500000D02*
X217000000Y-66580000D01*
X207071000Y-63521000D02*
X207050000Y-63500000D01*
D33*
%TO.N,PWM*%
X194480000Y-43420000D02*
X194880000Y-43420000D01*
%TO.N,Vf*%
X173000000Y-52540000D02*
X173500000Y-52040000D01*
%TO.N,Triangular*%
X175810000Y-71810000D02*
X176690000Y-72690000D01*
%TO.N,Net-(JP1-A)*%
X182960000Y-47500000D02*
X182960000Y-46500000D01*
%TO.N,Vcc*%
X184115133Y-72690000D02*
X184310000Y-72690000D01*
%TO.N,Vlo*%
X207000000Y-45840000D02*
X206830000Y-45670000D01*
D34*
%TO.N,Vin*%
X212540000Y-60960000D02*
X212500000Y-60920000D01*
X219601000Y-60921000D02*
X219562000Y-60960000D01*
X219601000Y-39500000D02*
X219601000Y-60921000D01*
X219562000Y-60960000D02*
X217000000Y-60960000D01*
X219601000Y-35566000D02*
X219601000Y-39500000D01*
X217000000Y-60960000D02*
X212540000Y-60960000D01*
X217035000Y-33000000D02*
X219601000Y-35566000D01*
D33*
%TO.N,Vcc{slash}2*%
X156270000Y-68389000D02*
X156270000Y-67690000D01*
X150000000Y-85000000D02*
X153340000Y-85000000D01*
%TO.N,Vb*%
X202770000Y-40610000D02*
X202500000Y-40880000D01*
%TO.N,Net-(C11-Pad2)*%
X168080000Y-57000000D02*
X167580000Y-57500000D01*
%TD*%
%TA.AperFunction,Conductor*%
%TO.N,GND*%
G36*
X162627290Y-37644185D02*
G01*
X162673045Y-37696989D01*
X162682989Y-37766147D01*
X162670736Y-37804795D01*
X162609897Y-37924197D01*
X162536934Y-38148752D01*
X162500000Y-38381947D01*
X162500000Y-38618052D01*
X162536934Y-38851247D01*
X162609897Y-39075802D01*
X162717087Y-39286174D01*
X162777338Y-39369104D01*
X162777340Y-39369105D01*
X163600000Y-38546445D01*
X163600000Y-38552661D01*
X163627259Y-38654394D01*
X163679920Y-38745606D01*
X163754394Y-38820080D01*
X163845606Y-38872741D01*
X163947339Y-38900000D01*
X163953554Y-38900000D01*
X163130893Y-39722658D01*
X163213828Y-39782914D01*
X163424198Y-39890103D01*
X163451063Y-39898832D01*
X163508739Y-39938269D01*
X163535938Y-40002627D01*
X163524024Y-40071473D01*
X163476780Y-40122950D01*
X163469041Y-40127248D01*
X163293566Y-40216657D01*
X163229542Y-40263174D01*
X163102490Y-40355483D01*
X163102488Y-40355485D01*
X163102487Y-40355485D01*
X162935485Y-40522487D01*
X162935485Y-40522488D01*
X162935483Y-40522490D01*
X162925343Y-40536447D01*
X162796657Y-40713566D01*
X162689433Y-40924003D01*
X162616446Y-41148631D01*
X162579500Y-41381902D01*
X162579500Y-41381908D01*
X162579500Y-41618092D01*
X162585503Y-41655996D01*
X162589341Y-41680228D01*
X162580385Y-41749521D01*
X162554548Y-41787306D01*
X157723675Y-46618181D01*
X157662352Y-46651666D01*
X157635994Y-46654500D01*
X151206469Y-46654500D01*
X151139430Y-46634815D01*
X151118788Y-46618181D01*
X150962363Y-46461756D01*
X150962358Y-46461752D01*
X150822319Y-46360008D01*
X150779653Y-46304678D01*
X150773674Y-46235065D01*
X150806279Y-46173270D01*
X150822319Y-46159372D01*
X150847513Y-46141066D01*
X150847514Y-46141066D01*
X150096447Y-45390000D01*
X150102661Y-45390000D01*
X150204394Y-45362741D01*
X150295606Y-45310080D01*
X150370080Y-45235606D01*
X150422741Y-45144394D01*
X150450000Y-45042661D01*
X150450000Y-45036448D01*
X151201066Y-45787514D01*
X151201066Y-45787513D01*
X151247386Y-45723760D01*
X151347432Y-45527410D01*
X151415526Y-45317835D01*
X151450000Y-45100181D01*
X151450000Y-44879818D01*
X151415526Y-44662164D01*
X151347432Y-44452589D01*
X151247388Y-44256243D01*
X151201066Y-44192485D01*
X151201065Y-44192485D01*
X150450000Y-44943551D01*
X150450000Y-44937339D01*
X150422741Y-44835606D01*
X150370080Y-44744394D01*
X150295606Y-44669920D01*
X150204394Y-44617259D01*
X150102661Y-44590000D01*
X150096446Y-44590000D01*
X150799628Y-43886818D01*
X150860951Y-43853333D01*
X150887308Y-43850499D01*
X150997872Y-43850499D01*
X151057483Y-43844091D01*
X151192331Y-43793796D01*
X151307546Y-43707546D01*
X151393796Y-43592331D01*
X151444091Y-43457483D01*
X151446375Y-43436243D01*
X151473114Y-43371692D01*
X151530507Y-43331845D01*
X151569664Y-43325500D01*
X153056231Y-43325500D01*
X153056232Y-43325499D01*
X153225374Y-43291855D01*
X153384705Y-43225858D01*
X153528099Y-43130045D01*
X153632692Y-43025450D01*
X153694015Y-42991966D01*
X153739773Y-42990659D01*
X153801904Y-43000500D01*
X153801908Y-43000500D01*
X154038097Y-43000500D01*
X154271368Y-42963553D01*
X154293241Y-42956446D01*
X154495992Y-42890568D01*
X154706433Y-42783343D01*
X154897510Y-42644517D01*
X155064517Y-42477510D01*
X155203343Y-42286433D01*
X155310568Y-42075992D01*
X155383553Y-41851368D01*
X155385340Y-41840085D01*
X155420500Y-41618097D01*
X155420500Y-41381902D01*
X155383553Y-41148631D01*
X155322882Y-40961908D01*
X155310568Y-40924008D01*
X155310566Y-40924005D01*
X155310566Y-40924003D01*
X155240952Y-40787379D01*
X155203343Y-40713567D01*
X155064517Y-40522490D01*
X154897510Y-40355483D01*
X154846613Y-40318504D01*
X154803949Y-40263174D01*
X154795500Y-40218187D01*
X154795500Y-39717889D01*
X154815185Y-39650850D01*
X154831819Y-39630208D01*
X154900102Y-39561925D01*
X154984517Y-39477510D01*
X155123343Y-39286433D01*
X155230568Y-39075992D01*
X155303553Y-38851368D01*
X155307765Y-38824772D01*
X155340500Y-38618097D01*
X155340500Y-38381902D01*
X155303553Y-38148631D01*
X155252010Y-37990000D01*
X155230568Y-37924008D01*
X155230566Y-37924005D01*
X155230566Y-37924003D01*
X155169826Y-37804795D01*
X155156930Y-37736126D01*
X155183206Y-37671385D01*
X155240313Y-37631128D01*
X155280311Y-37624500D01*
X162560251Y-37624500D01*
X162627290Y-37644185D01*
G37*
%TD.AperFunction*%
%TA.AperFunction,Conductor*%
G36*
X148597456Y-43397632D02*
G01*
X148648932Y-43444877D01*
X148658927Y-43465577D01*
X148706202Y-43592328D01*
X148706206Y-43592335D01*
X148792452Y-43707544D01*
X148792455Y-43707547D01*
X148907664Y-43793793D01*
X148907671Y-43793797D01*
X148910288Y-43794773D01*
X149042517Y-43844091D01*
X149102127Y-43850500D01*
X149212693Y-43850499D01*
X149279730Y-43870183D01*
X149300372Y-43886818D01*
X150003554Y-44590000D01*
X149997339Y-44590000D01*
X149895606Y-44617259D01*
X149804394Y-44669920D01*
X149729920Y-44744394D01*
X149677259Y-44835606D01*
X149650000Y-44937339D01*
X149650000Y-44943553D01*
X148898932Y-44192485D01*
X148898931Y-44192485D01*
X148852616Y-44256233D01*
X148752567Y-44452589D01*
X148684473Y-44662164D01*
X148650000Y-44879818D01*
X148650000Y-45100181D01*
X148684473Y-45317835D01*
X148752567Y-45527410D01*
X148852611Y-45723756D01*
X148898932Y-45787513D01*
X149650000Y-45036445D01*
X149650000Y-45042661D01*
X149677259Y-45144394D01*
X149729920Y-45235606D01*
X149804394Y-45310080D01*
X149895606Y-45362741D01*
X149997339Y-45390000D01*
X150003553Y-45390000D01*
X149252485Y-46141065D01*
X149252485Y-46141066D01*
X149277680Y-46159371D01*
X149320346Y-46214701D01*
X149326325Y-46284314D01*
X149293720Y-46346110D01*
X149277681Y-46360008D01*
X149137636Y-46461756D01*
X149091212Y-46508181D01*
X149029889Y-46541666D01*
X149003531Y-46544500D01*
X147281813Y-46544500D01*
X147214774Y-46524815D01*
X147181495Y-46493386D01*
X147178159Y-46488794D01*
X147144517Y-46442490D01*
X146977510Y-46275483D01*
X146786433Y-46136657D01*
X146768081Y-46127306D01*
X146575996Y-46029433D01*
X146351368Y-45956446D01*
X146118097Y-45919500D01*
X146118092Y-45919500D01*
X145881908Y-45919500D01*
X145881903Y-45919500D01*
X145648630Y-45956447D01*
X145648627Y-45956447D01*
X145596306Y-45973448D01*
X145526465Y-45975443D01*
X145466632Y-45939363D01*
X145435804Y-45876662D01*
X145443769Y-45807247D01*
X145470305Y-45767838D01*
X146712694Y-44525448D01*
X146774015Y-44491965D01*
X146819768Y-44490658D01*
X146860147Y-44497053D01*
X146881905Y-44500500D01*
X146881908Y-44500500D01*
X147118097Y-44500500D01*
X147351368Y-44463553D01*
X147575992Y-44390568D01*
X147786433Y-44283343D01*
X147977510Y-44144517D01*
X148144517Y-43977510D01*
X148283343Y-43786433D01*
X148390568Y-43575992D01*
X148424815Y-43470590D01*
X148464251Y-43412917D01*
X148528610Y-43385718D01*
X148597456Y-43397632D01*
G37*
%TD.AperFunction*%
%TA.AperFunction,Conductor*%
G36*
X164299930Y-42995789D02*
G01*
X164329521Y-42999613D01*
X164335126Y-43003445D01*
X164339053Y-43004300D01*
X164367307Y-43025451D01*
X164508181Y-43166325D01*
X164541666Y-43227648D01*
X164544500Y-43254006D01*
X164544500Y-44943531D01*
X164524815Y-45010570D01*
X164508181Y-45031212D01*
X164351756Y-45187636D01*
X164250008Y-45327681D01*
X164194678Y-45370346D01*
X164125065Y-45376325D01*
X164063270Y-45343719D01*
X164049372Y-45327680D01*
X163947862Y-45187964D01*
X163947857Y-45187958D01*
X163792041Y-45032142D01*
X163613760Y-44902613D01*
X163417410Y-44802567D01*
X163207836Y-44734473D01*
X163130000Y-44722144D01*
X163130000Y-46184314D01*
X163125606Y-46179920D01*
X163034394Y-46127259D01*
X162932661Y-46100000D01*
X162827339Y-46100000D01*
X162725606Y-46127259D01*
X162634394Y-46179920D01*
X162630000Y-46184314D01*
X162630000Y-44722144D01*
X162552164Y-44734473D01*
X162552157Y-44734474D01*
X162349398Y-44800354D01*
X162279557Y-44802349D01*
X162219725Y-44766268D01*
X162188897Y-44703567D01*
X162196862Y-44634153D01*
X162223397Y-44594746D01*
X163792694Y-43025448D01*
X163854015Y-42991965D01*
X163899768Y-42990658D01*
X163940147Y-42997053D01*
X163961905Y-43000500D01*
X163961908Y-43000500D01*
X164198096Y-43000500D01*
X164260227Y-42990659D01*
X164265653Y-42991360D01*
X164270780Y-42989448D01*
X164299930Y-42995789D01*
G37*
%TD.AperFunction*%
%TA.AperFunction,Conductor*%
G36*
X255942539Y-28020185D02*
G01*
X255988294Y-28072989D01*
X255999500Y-28124500D01*
X255999500Y-93375500D01*
X255979815Y-93442539D01*
X255927011Y-93488294D01*
X255875500Y-93499500D01*
X131537754Y-93499500D01*
X131470715Y-93479815D01*
X131424960Y-93427011D01*
X131413756Y-93376278D01*
X131360445Y-84877814D01*
X131199149Y-59165295D01*
X131062815Y-37432155D01*
X134400000Y-37432155D01*
X134400000Y-38830000D01*
X135657586Y-38830000D01*
X135625000Y-38993820D01*
X135625000Y-39166180D01*
X135657586Y-39330000D01*
X134400000Y-39330000D01*
X134400000Y-40727844D01*
X134406401Y-40787372D01*
X134406403Y-40787379D01*
X134456645Y-40922086D01*
X134456649Y-40922093D01*
X134542809Y-41037187D01*
X134542812Y-41037190D01*
X134657906Y-41123350D01*
X134657913Y-41123354D01*
X134792620Y-41173596D01*
X134792627Y-41173598D01*
X134852155Y-41179999D01*
X134852172Y-41180000D01*
X136250000Y-41180000D01*
X136250000Y-39922413D01*
X136413820Y-39955000D01*
X136586180Y-39955000D01*
X136750000Y-39922413D01*
X136750000Y-41180000D01*
X138147828Y-41180000D01*
X138147844Y-41179999D01*
X138207372Y-41173598D01*
X138207379Y-41173596D01*
X138342086Y-41123354D01*
X138342093Y-41123350D01*
X138457187Y-41037190D01*
X138457190Y-41037187D01*
X138543350Y-40922093D01*
X138543354Y-40922086D01*
X138593596Y-40787379D01*
X138593598Y-40787372D01*
X138599999Y-40727844D01*
X138600000Y-40727827D01*
X138600000Y-39330000D01*
X137342414Y-39330000D01*
X137375000Y-39166180D01*
X137375000Y-38993820D01*
X137342414Y-38830000D01*
X138600000Y-38830000D01*
X138600000Y-37432172D01*
X138599999Y-37432155D01*
X138593598Y-37372627D01*
X138593596Y-37372620D01*
X138543354Y-37237913D01*
X138543350Y-37237906D01*
X138457190Y-37122812D01*
X138457187Y-37122809D01*
X138342093Y-37036649D01*
X138342086Y-37036645D01*
X138207379Y-36986403D01*
X138207372Y-36986401D01*
X138147844Y-36980000D01*
X136750000Y-36980000D01*
X136750000Y-38237586D01*
X136586180Y-38205000D01*
X136413820Y-38205000D01*
X136250000Y-38237586D01*
X136250000Y-36980000D01*
X134852155Y-36980000D01*
X134792627Y-36986401D01*
X134792620Y-36986403D01*
X134657913Y-37036645D01*
X134657906Y-37036649D01*
X134542812Y-37122809D01*
X134542809Y-37122812D01*
X134456649Y-37237906D01*
X134456645Y-37237913D01*
X134406403Y-37372620D01*
X134406401Y-37372627D01*
X134400000Y-37432155D01*
X131062815Y-37432155D01*
X131040421Y-33862332D01*
X134399500Y-33862332D01*
X134399500Y-34137667D01*
X134399501Y-34137684D01*
X134435438Y-34410655D01*
X134435439Y-34410660D01*
X134435440Y-34410666D01*
X134456240Y-34488294D01*
X134506704Y-34676630D01*
X134612075Y-34931017D01*
X134612077Y-34931022D01*
X134632190Y-34965858D01*
X134749751Y-35169479D01*
X134749753Y-35169482D01*
X134749754Y-35169483D01*
X134917370Y-35387926D01*
X134917376Y-35387933D01*
X135112066Y-35582623D01*
X135112073Y-35582629D01*
X135203327Y-35652650D01*
X135330521Y-35750249D01*
X135448451Y-35818336D01*
X135568971Y-35887919D01*
X135568976Y-35887921D01*
X135568979Y-35887923D01*
X135823368Y-35993295D01*
X136089334Y-36064560D01*
X136362326Y-36100500D01*
X136362333Y-36100500D01*
X136637667Y-36100500D01*
X136637674Y-36100500D01*
X136910666Y-36064560D01*
X137176632Y-35993295D01*
X137431021Y-35887923D01*
X137669479Y-35750249D01*
X137887928Y-35582628D01*
X138082628Y-35387928D01*
X138250249Y-35169479D01*
X138367812Y-34965854D01*
X138387923Y-34931022D01*
X138387923Y-34931020D01*
X138493295Y-34676632D01*
X138564560Y-34410666D01*
X138600500Y-34137674D01*
X138600500Y-33862326D01*
X138564560Y-33589334D01*
X138495230Y-33330589D01*
X138496893Y-33260743D01*
X138527320Y-33210822D01*
X138826326Y-32911816D01*
X138887648Y-32878334D01*
X138914006Y-32875500D01*
X140484953Y-32875500D01*
X140551992Y-32895185D01*
X140572634Y-32911819D01*
X140652786Y-32991971D01*
X140787122Y-33089570D01*
X140818390Y-33112287D01*
X141000781Y-33205220D01*
X141038817Y-33217578D01*
X141096491Y-33257013D01*
X141123691Y-33321371D01*
X141124500Y-33335509D01*
X141124500Y-34375500D01*
X141104815Y-34442539D01*
X141052011Y-34488294D01*
X141000501Y-34499500D01*
X140852130Y-34499500D01*
X140852123Y-34499501D01*
X140792516Y-34505908D01*
X140657671Y-34556202D01*
X140657664Y-34556206D01*
X140542455Y-34642452D01*
X140542452Y-34642455D01*
X140456206Y-34757664D01*
X140456202Y-34757671D01*
X140405908Y-34892517D01*
X140400403Y-34943726D01*
X140399501Y-34952123D01*
X140399500Y-34952135D01*
X140399500Y-37047870D01*
X140399501Y-37047876D01*
X140405908Y-37107483D01*
X140456202Y-37242328D01*
X140456206Y-37242335D01*
X140542452Y-37357544D01*
X140542455Y-37357547D01*
X140657664Y-37443793D01*
X140665454Y-37448047D01*
X140663725Y-37451211D01*
X140705915Y-37482734D01*
X140730393Y-37548175D01*
X140715604Y-37616462D01*
X140707036Y-37630021D01*
X140617084Y-37753829D01*
X140509897Y-37964197D01*
X140436934Y-38188752D01*
X140420898Y-38290000D01*
X141509252Y-38290000D01*
X141487482Y-38327708D01*
X141450000Y-38467591D01*
X141450000Y-38612409D01*
X141487482Y-38752292D01*
X141509252Y-38790000D01*
X140420898Y-38790000D01*
X140436934Y-38891247D01*
X140509897Y-39115802D01*
X140617085Y-39326171D01*
X140755866Y-39517186D01*
X140922815Y-39684135D01*
X140957551Y-39709372D01*
X141000217Y-39764702D01*
X141006196Y-39834315D01*
X140973591Y-39896111D01*
X140957552Y-39910008D01*
X140922496Y-39935478D01*
X140922487Y-39935485D01*
X140755485Y-40102487D01*
X140755485Y-40102488D01*
X140755483Y-40102490D01*
X140695862Y-40184550D01*
X140616657Y-40293566D01*
X140509433Y-40504003D01*
X140436446Y-40728631D01*
X140399500Y-40961902D01*
X140399500Y-41198097D01*
X140436446Y-41431368D01*
X140509433Y-41655996D01*
X140604083Y-41841756D01*
X140616657Y-41866433D01*
X140755483Y-42057510D01*
X140922490Y-42224517D01*
X141113567Y-42363343D01*
X141212991Y-42414002D01*
X141324003Y-42470566D01*
X141324005Y-42470566D01*
X141324008Y-42470568D01*
X141438088Y-42507635D01*
X141548631Y-42543553D01*
X141781903Y-42580500D01*
X141781908Y-42580500D01*
X142218097Y-42580500D01*
X142451368Y-42543553D01*
X142509037Y-42524815D01*
X142675992Y-42470568D01*
X142886433Y-42363343D01*
X143077510Y-42224517D01*
X143244517Y-42057510D01*
X143281495Y-42006613D01*
X143336826Y-41963949D01*
X143381813Y-41955500D01*
X144665994Y-41955500D01*
X144733033Y-41975185D01*
X144753675Y-41991819D01*
X145474548Y-42712692D01*
X145508033Y-42774015D01*
X145509341Y-42819769D01*
X145503791Y-42854815D01*
X145499500Y-42881908D01*
X145499500Y-43118092D01*
X145505503Y-43155996D01*
X145509341Y-43180228D01*
X145500385Y-43249521D01*
X145474548Y-43287306D01*
X143943614Y-44818242D01*
X143441901Y-45319955D01*
X143399115Y-45362741D01*
X143319953Y-45441902D01*
X143224145Y-45585288D01*
X143224138Y-45585301D01*
X143158146Y-45744621D01*
X143158143Y-45744633D01*
X143124500Y-45913766D01*
X143124500Y-55666233D01*
X143158143Y-55835366D01*
X143158146Y-55835378D01*
X143224138Y-55994698D01*
X143224145Y-55994711D01*
X143319954Y-56138098D01*
X143319957Y-56138102D01*
X144474548Y-57292692D01*
X144508033Y-57354015D01*
X144509341Y-57399769D01*
X144499500Y-57461908D01*
X144499500Y-57698092D01*
X144506554Y-57742631D01*
X144509341Y-57760228D01*
X144500385Y-57829521D01*
X144474548Y-57867306D01*
X143262262Y-59079594D01*
X142861901Y-59479955D01*
X142825654Y-59516202D01*
X142739953Y-59601902D01*
X142644145Y-59745288D01*
X142644138Y-59745301D01*
X142578146Y-59904621D01*
X142578143Y-59904633D01*
X142544500Y-60073766D01*
X142544500Y-78218187D01*
X142524815Y-78285226D01*
X142493386Y-78318505D01*
X142442488Y-78355484D01*
X142275485Y-78522487D01*
X142275485Y-78522488D01*
X142275483Y-78522490D01*
X142250039Y-78557511D01*
X142136657Y-78713566D01*
X142029433Y-78924003D01*
X141956446Y-79148631D01*
X141919500Y-79381902D01*
X141919500Y-79618091D01*
X141929341Y-79680228D01*
X141920385Y-79749521D01*
X141894548Y-79787306D01*
X139931376Y-81750480D01*
X139281901Y-82399955D01*
X139220927Y-82460929D01*
X139159953Y-82521902D01*
X139064145Y-82665288D01*
X139064138Y-82665301D01*
X138998146Y-82824621D01*
X138998143Y-82824633D01*
X138964500Y-82993766D01*
X138964500Y-83718187D01*
X138944815Y-83785226D01*
X138913386Y-83818504D01*
X138898186Y-83829548D01*
X138862488Y-83855484D01*
X138695485Y-84022487D01*
X138695485Y-84022488D01*
X138695483Y-84022490D01*
X138658505Y-84073386D01*
X138556657Y-84213566D01*
X138449433Y-84424003D01*
X138376446Y-84648631D01*
X138339500Y-84881902D01*
X138339500Y-85118097D01*
X138376446Y-85351368D01*
X138449433Y-85575996D01*
X138544254Y-85762091D01*
X138556657Y-85786433D01*
X138695483Y-85977510D01*
X138862490Y-86144517D01*
X139053567Y-86283343D01*
X139152991Y-86334002D01*
X139264003Y-86390566D01*
X139264005Y-86390566D01*
X139264008Y-86390568D01*
X139384412Y-86429689D01*
X139488631Y-86463553D01*
X139721903Y-86500500D01*
X139721908Y-86500500D01*
X139958097Y-86500500D01*
X140191368Y-86463553D01*
X140230285Y-86450908D01*
X140415992Y-86390568D01*
X140626433Y-86283343D01*
X140817510Y-86144517D01*
X140984517Y-85977510D01*
X141123343Y-85786433D01*
X141230568Y-85575992D01*
X141303553Y-85351368D01*
X141303572Y-85351247D01*
X141340500Y-85118097D01*
X141340500Y-84881902D01*
X141303553Y-84648631D01*
X141230566Y-84424003D01*
X141174002Y-84312991D01*
X141123343Y-84213567D01*
X140984517Y-84022490D01*
X140817510Y-83855483D01*
X140766613Y-83818504D01*
X140763273Y-83814172D01*
X140758297Y-83811900D01*
X140742164Y-83786797D01*
X140723949Y-83763174D01*
X140722696Y-83756503D01*
X140720523Y-83753122D01*
X140715500Y-83718187D01*
X140715500Y-83494005D01*
X140735185Y-83426966D01*
X140751814Y-83406329D01*
X143132694Y-81025448D01*
X143194015Y-80991965D01*
X143239768Y-80990658D01*
X143280147Y-80997053D01*
X143301905Y-81000500D01*
X143301908Y-81000500D01*
X143538097Y-81000500D01*
X143771368Y-80963553D01*
X143995992Y-80890568D01*
X144206433Y-80783343D01*
X144397510Y-80644517D01*
X144564517Y-80477510D01*
X144703343Y-80286433D01*
X144810568Y-80075992D01*
X144883553Y-79851368D01*
X144920500Y-79618097D01*
X144920500Y-79381902D01*
X144883553Y-79148631D01*
X144825696Y-78970568D01*
X144810568Y-78924008D01*
X144810566Y-78924005D01*
X144810566Y-78924003D01*
X144724145Y-78754394D01*
X144703343Y-78713567D01*
X144564517Y-78522490D01*
X144397510Y-78355483D01*
X144346613Y-78318504D01*
X144303949Y-78263174D01*
X144295500Y-78218187D01*
X144295500Y-60574005D01*
X144315185Y-60506966D01*
X144331814Y-60486329D01*
X145712694Y-59105448D01*
X145774015Y-59071965D01*
X145819768Y-59070658D01*
X145860147Y-59077053D01*
X145881905Y-59080500D01*
X145881908Y-59080500D01*
X146118097Y-59080500D01*
X146351368Y-59043553D01*
X146373238Y-59036447D01*
X146575992Y-58970568D01*
X146786433Y-58863343D01*
X146977510Y-58724517D01*
X147144517Y-58557510D01*
X147283343Y-58366433D01*
X147390568Y-58155992D01*
X147463553Y-57931368D01*
X147500500Y-57698097D01*
X147500500Y-57461902D01*
X147463553Y-57228631D01*
X147429689Y-57124412D01*
X147390568Y-57004008D01*
X147390566Y-57004005D01*
X147390566Y-57004003D01*
X147318486Y-56862539D01*
X147283343Y-56793567D01*
X147144517Y-56602490D01*
X146977510Y-56435483D01*
X146786433Y-56296657D01*
X146575996Y-56189433D01*
X146351368Y-56116446D01*
X146118097Y-56079500D01*
X146118092Y-56079500D01*
X145881908Y-56079500D01*
X145819769Y-56089341D01*
X145750476Y-56080385D01*
X145712692Y-56054548D01*
X144911819Y-55253675D01*
X144878334Y-55192352D01*
X144875500Y-55165994D01*
X144875500Y-52881947D01*
X153000000Y-52881947D01*
X153000000Y-53118052D01*
X153036934Y-53351247D01*
X153109897Y-53575802D01*
X153217087Y-53786174D01*
X153277338Y-53869104D01*
X153277340Y-53869105D01*
X154100000Y-53046445D01*
X154100000Y-53052661D01*
X154127259Y-53154394D01*
X154179920Y-53245606D01*
X154254394Y-53320080D01*
X154345606Y-53372741D01*
X154447339Y-53400000D01*
X154453554Y-53400000D01*
X153630893Y-54222658D01*
X153713828Y-54282914D01*
X153924197Y-54390102D01*
X154148752Y-54463065D01*
X154148751Y-54463065D01*
X154381948Y-54500000D01*
X154618052Y-54500000D01*
X154851247Y-54463065D01*
X155075802Y-54390102D01*
X155286163Y-54282918D01*
X155286169Y-54282914D01*
X155369104Y-54222658D01*
X155369105Y-54222658D01*
X154546446Y-53400000D01*
X154552661Y-53400000D01*
X154654394Y-53372741D01*
X154745606Y-53320080D01*
X154820080Y-53245606D01*
X154872741Y-53154394D01*
X154900000Y-53052661D01*
X154900000Y-53046447D01*
X155722658Y-53869105D01*
X155722658Y-53869104D01*
X155782914Y-53786169D01*
X155782918Y-53786163D01*
X155890102Y-53575802D01*
X155963065Y-53351247D01*
X156000000Y-53118052D01*
X156000000Y-52881947D01*
X155963065Y-52648752D01*
X155890102Y-52424197D01*
X155782914Y-52213828D01*
X155722658Y-52130894D01*
X155722658Y-52130893D01*
X154900000Y-52953552D01*
X154900000Y-52947339D01*
X154872741Y-52845606D01*
X154820080Y-52754394D01*
X154745606Y-52679920D01*
X154654394Y-52627259D01*
X154552661Y-52600000D01*
X154546447Y-52600000D01*
X155369105Y-51777340D01*
X155369104Y-51777338D01*
X155286174Y-51717087D01*
X155075802Y-51609897D01*
X154851247Y-51536934D01*
X154851248Y-51536934D01*
X154618052Y-51500000D01*
X154381948Y-51500000D01*
X154148752Y-51536934D01*
X153924197Y-51609897D01*
X153713830Y-51717084D01*
X153630894Y-51777340D01*
X154453554Y-52600000D01*
X154447339Y-52600000D01*
X154345606Y-52627259D01*
X154254394Y-52679920D01*
X154179920Y-52754394D01*
X154127259Y-52845606D01*
X154100000Y-52947339D01*
X154100000Y-52953554D01*
X153277340Y-52130894D01*
X153217084Y-52213830D01*
X153109897Y-52424197D01*
X153036934Y-52648752D01*
X153000000Y-52881947D01*
X144875500Y-52881947D01*
X144875500Y-48701086D01*
X144895185Y-48634047D01*
X144947989Y-48588292D01*
X145017147Y-48578348D01*
X145072383Y-48600767D01*
X145213567Y-48703343D01*
X145296513Y-48745606D01*
X145424003Y-48810566D01*
X145424005Y-48810566D01*
X145424008Y-48810568D01*
X145496660Y-48834174D01*
X145648631Y-48883553D01*
X145881903Y-48920500D01*
X145881908Y-48920500D01*
X146118097Y-48920500D01*
X146351368Y-48883553D01*
X146575992Y-48810568D01*
X146786433Y-48703343D01*
X146977510Y-48564517D01*
X147144517Y-48397510D01*
X147181495Y-48346613D01*
X147236826Y-48303949D01*
X147281813Y-48295500D01*
X148811874Y-48295500D01*
X148878913Y-48315185D01*
X148912193Y-48346616D01*
X148981754Y-48442361D01*
X149137636Y-48598243D01*
X149137641Y-48598247D01*
X149214922Y-48654394D01*
X149315978Y-48727815D01*
X149444375Y-48793237D01*
X149512393Y-48827895D01*
X149512396Y-48827896D01*
X149605354Y-48858099D01*
X149722049Y-48896015D01*
X149939778Y-48930500D01*
X149939779Y-48930500D01*
X150160221Y-48930500D01*
X150160222Y-48930500D01*
X150377951Y-48896015D01*
X150587606Y-48827895D01*
X150784022Y-48727815D01*
X150962365Y-48598242D01*
X151118242Y-48442365D01*
X151118242Y-48442364D01*
X151118788Y-48441819D01*
X151180111Y-48408334D01*
X151206469Y-48405500D01*
X158136231Y-48405500D01*
X158136232Y-48405499D01*
X158305374Y-48371855D01*
X158464705Y-48305858D01*
X158608099Y-48210045D01*
X161374743Y-45443400D01*
X161436065Y-45409916D01*
X161505757Y-45414900D01*
X161561690Y-45456772D01*
X161586107Y-45522236D01*
X161580354Y-45569399D01*
X161514473Y-45772162D01*
X161480000Y-45989818D01*
X161480000Y-46250000D01*
X162564314Y-46250000D01*
X162559920Y-46254394D01*
X162507259Y-46345606D01*
X162480000Y-46447339D01*
X162480000Y-46552661D01*
X162507259Y-46654394D01*
X162559920Y-46745606D01*
X162564314Y-46750000D01*
X161480000Y-46750000D01*
X161480000Y-47010181D01*
X161514473Y-47227835D01*
X161582567Y-47437410D01*
X161682613Y-47633760D01*
X161812142Y-47812041D01*
X161912920Y-47912819D01*
X161946405Y-47974142D01*
X161941421Y-48043834D01*
X161899549Y-48099767D01*
X161834085Y-48124184D01*
X161825239Y-48124500D01*
X160937480Y-48124500D01*
X160768345Y-48158143D01*
X160768333Y-48158146D01*
X160609013Y-48224138D01*
X160609000Y-48224145D01*
X160465613Y-48319954D01*
X160465609Y-48319957D01*
X157657933Y-51127635D01*
X156861901Y-51923667D01*
X156800927Y-51984641D01*
X156739953Y-52045614D01*
X156644145Y-52189000D01*
X156644138Y-52189013D01*
X156578146Y-52348333D01*
X156578143Y-52348345D01*
X156544500Y-52517478D01*
X156544500Y-56218187D01*
X156524815Y-56285226D01*
X156493386Y-56318505D01*
X156442488Y-56355484D01*
X156275485Y-56522487D01*
X156275485Y-56522488D01*
X156275483Y-56522490D01*
X156217362Y-56602487D01*
X156136657Y-56713566D01*
X156029433Y-56924003D01*
X155956446Y-57148631D01*
X155919500Y-57381902D01*
X155919500Y-57618097D01*
X155956446Y-57851368D01*
X156029433Y-58075996D01*
X156116349Y-58246577D01*
X156136657Y-58286433D01*
X156275483Y-58477510D01*
X156442490Y-58644517D01*
X156633567Y-58783343D01*
X156784070Y-58860028D01*
X156808410Y-58872430D01*
X156859206Y-58920405D01*
X156876001Y-58988226D01*
X156853464Y-59054361D01*
X156798748Y-59097812D01*
X156790442Y-59100842D01*
X156780839Y-59103962D01*
X156764003Y-59109433D01*
X156553566Y-59216657D01*
X156444550Y-59295862D01*
X156362490Y-59355483D01*
X156362488Y-59355485D01*
X156362487Y-59355485D01*
X156195485Y-59522487D01*
X156195485Y-59522488D01*
X156195483Y-59522490D01*
X156138192Y-59601344D01*
X156056657Y-59713566D01*
X155949433Y-59924003D01*
X155876446Y-60148631D01*
X155839500Y-60381902D01*
X155839500Y-60618091D01*
X155849341Y-60680228D01*
X155840385Y-60749521D01*
X155814548Y-60787306D01*
X153756250Y-62845606D01*
X153171901Y-63429955D01*
X153128322Y-63473534D01*
X153049953Y-63551902D01*
X152954145Y-63695288D01*
X152954138Y-63695301D01*
X152888146Y-63854621D01*
X152888143Y-63854633D01*
X152854500Y-64023766D01*
X152854500Y-65276993D01*
X152834815Y-65344032D01*
X152782011Y-65389787D01*
X152712853Y-65399731D01*
X152649297Y-65370706D01*
X152642819Y-65364674D01*
X150598102Y-63319957D01*
X150598098Y-63319954D01*
X150454711Y-63224145D01*
X150454698Y-63224138D01*
X150295378Y-63158146D01*
X150295366Y-63158143D01*
X150126232Y-63124500D01*
X150126229Y-63124500D01*
X149701813Y-63124500D01*
X149634774Y-63104815D01*
X149601495Y-63073386D01*
X149590058Y-63057644D01*
X149564517Y-63022490D01*
X149397510Y-62855483D01*
X149206433Y-62716657D01*
X149134333Y-62679920D01*
X148995996Y-62609433D01*
X148771368Y-62536446D01*
X148538097Y-62499500D01*
X148538092Y-62499500D01*
X148301908Y-62499500D01*
X148301903Y-62499500D01*
X148068631Y-62536446D01*
X147844003Y-62609433D01*
X147633566Y-62716657D01*
X147524550Y-62795862D01*
X147442490Y-62855483D01*
X147442488Y-62855485D01*
X147442487Y-62855485D01*
X147275485Y-63022487D01*
X147275485Y-63022488D01*
X147275483Y-63022490D01*
X147249942Y-63057644D01*
X147136657Y-63213566D01*
X147029433Y-63424003D01*
X146956446Y-63648631D01*
X146919500Y-63881902D01*
X146919500Y-64118097D01*
X146956446Y-64351368D01*
X147029433Y-64575996D01*
X147101104Y-64716657D01*
X147136657Y-64786433D01*
X147275483Y-64977510D01*
X147442490Y-65144517D01*
X147633567Y-65283343D01*
X147706792Y-65320653D01*
X147844003Y-65390566D01*
X147844005Y-65390566D01*
X147844008Y-65390568D01*
X147964412Y-65429689D01*
X148068631Y-65463553D01*
X148301903Y-65500500D01*
X148301908Y-65500500D01*
X148538097Y-65500500D01*
X148771368Y-65463553D01*
X148995992Y-65390568D01*
X149206433Y-65283343D01*
X149397510Y-65144517D01*
X149564517Y-64977510D01*
X149569587Y-64970530D01*
X149624914Y-64927864D01*
X149694527Y-64921882D01*
X149756323Y-64954485D01*
X149757588Y-64955732D01*
X150625865Y-65824009D01*
X150659350Y-65885332D01*
X150654366Y-65955024D01*
X150612494Y-66010957D01*
X150594480Y-66022174D01*
X150456242Y-66092611D01*
X150277958Y-66222142D01*
X150122142Y-66377958D01*
X149992613Y-66556239D01*
X149892567Y-66752589D01*
X149824473Y-66962164D01*
X149790000Y-67179818D01*
X149790000Y-67440000D01*
X150874314Y-67440000D01*
X150869920Y-67444394D01*
X150817259Y-67535606D01*
X150790000Y-67637339D01*
X150790000Y-67742661D01*
X150817259Y-67844394D01*
X150869920Y-67935606D01*
X150874314Y-67940000D01*
X149790000Y-67940000D01*
X149790000Y-68200181D01*
X149824473Y-68417835D01*
X149892567Y-68627410D01*
X149992613Y-68823760D01*
X150122142Y-69002041D01*
X150277958Y-69157857D01*
X150456239Y-69287386D01*
X150652589Y-69387432D01*
X150862163Y-69455526D01*
X150939999Y-69467854D01*
X150940000Y-69467854D01*
X150940000Y-68005686D01*
X150944394Y-68010080D01*
X151035606Y-68062741D01*
X151137339Y-68090000D01*
X151242661Y-68090000D01*
X151344394Y-68062741D01*
X151435606Y-68010080D01*
X151440000Y-68005686D01*
X151440000Y-69467854D01*
X151517834Y-69455526D01*
X151517837Y-69455526D01*
X151727410Y-69387432D01*
X151923760Y-69287386D01*
X152102041Y-69157857D01*
X152257857Y-69002041D01*
X152257862Y-69002035D01*
X152359372Y-68862319D01*
X152414702Y-68819653D01*
X152484315Y-68813674D01*
X152546110Y-68846279D01*
X152560008Y-68862319D01*
X152661752Y-69002358D01*
X152661756Y-69002363D01*
X152817636Y-69158243D01*
X152817641Y-69158247D01*
X152874075Y-69199248D01*
X152995978Y-69287815D01*
X153124375Y-69353237D01*
X153192393Y-69387895D01*
X153192396Y-69387896D01*
X153406683Y-69457521D01*
X153406130Y-69459221D01*
X153460059Y-69490183D01*
X153492225Y-69552208D01*
X153485752Y-69621777D01*
X153458204Y-69663651D01*
X153033675Y-70088181D01*
X152972352Y-70121666D01*
X152945994Y-70124500D01*
X149913768Y-70124500D01*
X149744633Y-70158143D01*
X149744621Y-70158146D01*
X149585301Y-70224138D01*
X149585288Y-70224145D01*
X149441901Y-70319954D01*
X149441897Y-70319957D01*
X146796041Y-72965815D01*
X145941901Y-73819955D01*
X145910488Y-73851368D01*
X145819953Y-73941902D01*
X145724145Y-74085288D01*
X145724138Y-74085301D01*
X145658146Y-74244621D01*
X145658143Y-74244633D01*
X145624500Y-74413766D01*
X145624500Y-81586233D01*
X145658143Y-81755366D01*
X145658146Y-81755378D01*
X145724138Y-81914698D01*
X145724145Y-81914711D01*
X145819954Y-82058098D01*
X145819957Y-82058102D01*
X148474548Y-84712692D01*
X148508033Y-84774015D01*
X148509341Y-84819769D01*
X148499500Y-84881907D01*
X148499500Y-85118097D01*
X148536446Y-85351368D01*
X148609433Y-85575996D01*
X148704254Y-85762091D01*
X148716657Y-85786433D01*
X148855483Y-85977510D01*
X149022490Y-86144517D01*
X149213567Y-86283343D01*
X149312991Y-86334002D01*
X149424003Y-86390566D01*
X149424005Y-86390566D01*
X149424008Y-86390568D01*
X149544412Y-86429689D01*
X149648631Y-86463553D01*
X149881903Y-86500500D01*
X149881908Y-86500500D01*
X150118097Y-86500500D01*
X150351368Y-86463553D01*
X150390285Y-86450908D01*
X150575992Y-86390568D01*
X150786433Y-86283343D01*
X150977510Y-86144517D01*
X151144517Y-85977510D01*
X151181495Y-85926613D01*
X151236826Y-85883949D01*
X151281813Y-85875500D01*
X152138187Y-85875500D01*
X152205226Y-85895185D01*
X152238504Y-85926613D01*
X152275483Y-85977510D01*
X152442490Y-86144517D01*
X152633567Y-86283343D01*
X152732991Y-86334002D01*
X152844003Y-86390566D01*
X152844005Y-86390566D01*
X152844008Y-86390568D01*
X152964412Y-86429689D01*
X153068631Y-86463553D01*
X153301903Y-86500500D01*
X153301908Y-86500500D01*
X153538097Y-86500500D01*
X153771368Y-86463553D01*
X153810285Y-86450908D01*
X153995992Y-86390568D01*
X154206433Y-86283343D01*
X154397510Y-86144517D01*
X154564517Y-85977510D01*
X154703343Y-85786433D01*
X154810568Y-85575992D01*
X154883553Y-85351368D01*
X154883572Y-85351247D01*
X154920500Y-85118097D01*
X154920500Y-84886215D01*
X154920500Y-84881947D01*
X162080000Y-84881947D01*
X162080000Y-85118052D01*
X162116934Y-85351247D01*
X162189897Y-85575802D01*
X162297087Y-85786174D01*
X162357338Y-85869104D01*
X162357340Y-85869105D01*
X163180000Y-85046445D01*
X163180000Y-85052661D01*
X163207259Y-85154394D01*
X163259920Y-85245606D01*
X163334394Y-85320080D01*
X163425606Y-85372741D01*
X163527339Y-85400000D01*
X163533554Y-85400000D01*
X162710893Y-86222658D01*
X162793828Y-86282914D01*
X163004197Y-86390102D01*
X163228752Y-86463065D01*
X163228751Y-86463065D01*
X163461948Y-86500000D01*
X163698052Y-86500000D01*
X163931247Y-86463065D01*
X164155802Y-86390102D01*
X164366163Y-86282918D01*
X164366169Y-86282914D01*
X164449104Y-86222658D01*
X164449105Y-86222658D01*
X163626446Y-85400000D01*
X163632661Y-85400000D01*
X163734394Y-85372741D01*
X163825606Y-85320080D01*
X163900080Y-85245606D01*
X163952741Y-85154394D01*
X163980000Y-85052661D01*
X163980000Y-85046447D01*
X164802658Y-85869105D01*
X164802658Y-85869104D01*
X164862914Y-85786169D01*
X164862918Y-85786163D01*
X164970102Y-85575802D01*
X165043065Y-85351247D01*
X165080000Y-85118052D01*
X165080000Y-84881947D01*
X165043065Y-84648752D01*
X164970102Y-84424197D01*
X164862914Y-84213828D01*
X164802658Y-84130894D01*
X164802658Y-84130893D01*
X163980000Y-84953552D01*
X163980000Y-84947339D01*
X163952741Y-84845606D01*
X163900080Y-84754394D01*
X163825606Y-84679920D01*
X163734394Y-84627259D01*
X163632661Y-84600000D01*
X163626447Y-84600000D01*
X164449105Y-83777340D01*
X164449104Y-83777338D01*
X164366174Y-83717087D01*
X164155802Y-83609897D01*
X163931247Y-83536934D01*
X163931248Y-83536934D01*
X163698052Y-83500000D01*
X163461948Y-83500000D01*
X163228752Y-83536934D01*
X163004197Y-83609897D01*
X162793830Y-83717084D01*
X162710894Y-83777340D01*
X163533554Y-84600000D01*
X163527339Y-84600000D01*
X163425606Y-84627259D01*
X163334394Y-84679920D01*
X163259920Y-84754394D01*
X163207259Y-84845606D01*
X163180000Y-84947339D01*
X163180000Y-84953553D01*
X162357340Y-84130894D01*
X162297084Y-84213830D01*
X162189897Y-84424197D01*
X162116934Y-84648752D01*
X162080000Y-84881947D01*
X154920500Y-84881947D01*
X154920500Y-84881908D01*
X154910546Y-84819064D01*
X154910471Y-84818554D01*
X154915210Y-84784538D01*
X154919612Y-84750480D01*
X154920045Y-84749846D01*
X154920114Y-84749353D01*
X154921431Y-84747819D01*
X154945447Y-84712695D01*
X156746325Y-82911819D01*
X156807648Y-82878334D01*
X156834006Y-82875500D01*
X159138187Y-82875500D01*
X159205226Y-82895185D01*
X159238504Y-82926613D01*
X159275483Y-82977510D01*
X159442490Y-83144517D01*
X159633567Y-83283343D01*
X159719951Y-83327358D01*
X159844003Y-83390566D01*
X159844005Y-83390566D01*
X159844008Y-83390568D01*
X159956029Y-83426966D01*
X160068631Y-83463553D01*
X160301903Y-83500500D01*
X160301908Y-83500500D01*
X160538097Y-83500500D01*
X160771368Y-83463553D01*
X160995992Y-83390568D01*
X161206433Y-83283343D01*
X161397510Y-83144517D01*
X161564517Y-82977510D01*
X161703343Y-82786433D01*
X161810568Y-82575992D01*
X161883553Y-82351368D01*
X161920500Y-82118097D01*
X161920500Y-81881902D01*
X161883553Y-81648631D01*
X161810566Y-81424003D01*
X161708730Y-81224140D01*
X161703343Y-81213567D01*
X161564517Y-81022490D01*
X161397510Y-80855483D01*
X161206433Y-80716657D01*
X161193368Y-80710000D01*
X160995996Y-80609433D01*
X160771368Y-80536446D01*
X160538097Y-80499500D01*
X160538092Y-80499500D01*
X160301908Y-80499500D01*
X160301903Y-80499500D01*
X160068631Y-80536446D01*
X159844003Y-80609433D01*
X159633566Y-80716657D01*
X159541783Y-80783342D01*
X159442490Y-80855483D01*
X159442488Y-80855485D01*
X159442487Y-80855485D01*
X159275484Y-81022488D01*
X159238505Y-81073386D01*
X159183174Y-81116051D01*
X159138187Y-81124500D01*
X156333768Y-81124500D01*
X156164633Y-81158143D01*
X156164621Y-81158146D01*
X156005299Y-81224139D01*
X156005297Y-81224140D01*
X155974639Y-81244626D01*
X155974638Y-81244626D01*
X155861905Y-81319951D01*
X155861897Y-81319957D01*
X153707306Y-83474548D01*
X153645983Y-83508033D01*
X153600228Y-83509340D01*
X153538092Y-83499500D01*
X153301908Y-83499500D01*
X153301903Y-83499500D01*
X153068631Y-83536446D01*
X152844003Y-83609433D01*
X152633566Y-83716657D01*
X152569542Y-83763174D01*
X152442490Y-83855483D01*
X152442488Y-83855485D01*
X152442487Y-83855485D01*
X152275484Y-84022488D01*
X152238505Y-84073386D01*
X152183174Y-84116051D01*
X152138187Y-84124500D01*
X151281813Y-84124500D01*
X151214774Y-84104815D01*
X151181495Y-84073386D01*
X151144517Y-84022490D01*
X150977510Y-83855483D01*
X150786433Y-83716657D01*
X150575996Y-83609433D01*
X150351368Y-83536446D01*
X150118097Y-83499500D01*
X150118092Y-83499500D01*
X149881908Y-83499500D01*
X149819769Y-83509341D01*
X149750476Y-83500385D01*
X149712692Y-83474548D01*
X147411819Y-81173675D01*
X147378334Y-81112352D01*
X147375500Y-81085994D01*
X147375500Y-74914006D01*
X147384144Y-74884565D01*
X147390668Y-74854579D01*
X147394422Y-74849563D01*
X147395185Y-74846967D01*
X147411819Y-74826325D01*
X150326325Y-71911819D01*
X150387648Y-71878334D01*
X150414006Y-71875500D01*
X153446231Y-71875500D01*
X153446232Y-71875499D01*
X153615374Y-71841855D01*
X153769097Y-71778181D01*
X153774698Y-71775861D01*
X153774698Y-71775860D01*
X153774705Y-71775858D01*
X153918099Y-71680045D01*
X156071324Y-69526818D01*
X156132647Y-69493334D01*
X156159005Y-69490500D01*
X156380221Y-69490500D01*
X156380222Y-69490500D01*
X156597951Y-69456015D01*
X156807606Y-69387895D01*
X157004022Y-69287815D01*
X157182365Y-69158242D01*
X157298449Y-69042157D01*
X157359768Y-69008675D01*
X157429460Y-69013659D01*
X157485394Y-69055530D01*
X157491121Y-69063869D01*
X157576185Y-69199247D01*
X157700752Y-69323814D01*
X157804503Y-69389006D01*
X157849915Y-69417540D01*
X157958473Y-69455526D01*
X158016193Y-69475723D01*
X158016198Y-69475724D01*
X158104571Y-69485680D01*
X158147338Y-69490499D01*
X158147341Y-69490500D01*
X158147344Y-69490500D01*
X159472659Y-69490500D01*
X159472660Y-69490499D01*
X159538231Y-69483111D01*
X159603801Y-69475724D01*
X159603804Y-69475723D01*
X159603807Y-69475723D01*
X159770085Y-69417540D01*
X159919248Y-69323814D01*
X160043814Y-69199248D01*
X160137540Y-69050085D01*
X160195723Y-68883807D01*
X160198371Y-68860310D01*
X160210499Y-68752662D01*
X160210500Y-68752658D01*
X160210500Y-66627341D01*
X160210499Y-66627337D01*
X160209199Y-66615802D01*
X160202903Y-66559920D01*
X160195724Y-66496198D01*
X160195723Y-66496193D01*
X160148914Y-66362421D01*
X160137540Y-66329915D01*
X160128284Y-66315185D01*
X160043814Y-66180752D01*
X159919247Y-66056185D01*
X159770083Y-65962459D01*
X159769206Y-65962152D01*
X159768543Y-65961920D01*
X159767681Y-65961302D01*
X159763810Y-65959438D01*
X159764136Y-65958759D01*
X159711768Y-65921198D01*
X159686022Y-65856245D01*
X159685500Y-65844880D01*
X159685500Y-65067889D01*
X159691914Y-65046043D01*
X159693775Y-65023351D01*
X159702535Y-65009874D01*
X159705185Y-65000850D01*
X159711010Y-64992551D01*
X159716001Y-64986025D01*
X159724517Y-64977510D01*
X159762402Y-64925365D01*
X159763323Y-64924162D01*
X159790337Y-64904373D01*
X159816826Y-64883949D01*
X159818702Y-64883596D01*
X159819689Y-64882874D01*
X159823928Y-64882615D01*
X159861813Y-64875500D01*
X160665994Y-64875500D01*
X160733033Y-64895185D01*
X160753675Y-64911819D01*
X160974548Y-65132692D01*
X161008033Y-65194015D01*
X161009341Y-65239769D01*
X160999500Y-65301907D01*
X160999500Y-65538097D01*
X161036446Y-65771368D01*
X161109433Y-65995996D01*
X161203572Y-66180752D01*
X161216657Y-66206433D01*
X161355483Y-66397510D01*
X161522490Y-66564517D01*
X161713567Y-66703343D01*
X161810218Y-66752589D01*
X161924003Y-66810566D01*
X161924005Y-66810566D01*
X161924008Y-66810568D01*
X162044412Y-66849689D01*
X162148631Y-66883553D01*
X162381903Y-66920500D01*
X162381908Y-66920500D01*
X162618097Y-66920500D01*
X162851368Y-66883553D01*
X163075992Y-66810568D01*
X163286433Y-66703343D01*
X163477510Y-66564517D01*
X163644517Y-66397510D01*
X163681495Y-66346613D01*
X163736826Y-66303949D01*
X163781813Y-66295500D01*
X164085994Y-66295500D01*
X164153033Y-66315185D01*
X164173675Y-66331819D01*
X164974548Y-67132692D01*
X165008033Y-67194015D01*
X165009341Y-67239769D01*
X164999500Y-67301907D01*
X164999500Y-67538097D01*
X165036446Y-67771368D01*
X165109433Y-67995996D01*
X165179743Y-68133985D01*
X165216657Y-68206433D01*
X165355483Y-68397510D01*
X165522490Y-68564517D01*
X165713567Y-68703343D01*
X165804795Y-68749826D01*
X165924003Y-68810566D01*
X165924005Y-68810566D01*
X165924008Y-68810568D01*
X166033915Y-68846279D01*
X166148631Y-68883553D01*
X166381903Y-68920500D01*
X166381908Y-68920500D01*
X166618097Y-68920500D01*
X166851368Y-68883553D01*
X166856449Y-68881902D01*
X167075992Y-68810568D01*
X167195205Y-68749825D01*
X167263874Y-68736929D01*
X167328614Y-68763205D01*
X167368872Y-68820311D01*
X167375500Y-68860310D01*
X167375500Y-69334993D01*
X167355815Y-69402032D01*
X167339181Y-69422674D01*
X162718088Y-74043766D01*
X162656765Y-74077251D01*
X162620691Y-74079704D01*
X162618095Y-74079500D01*
X162618092Y-74079500D01*
X162381908Y-74079500D01*
X162381903Y-74079500D01*
X162148631Y-74116446D01*
X161924003Y-74189433D01*
X161713566Y-74296657D01*
X161609056Y-74372589D01*
X161522490Y-74435483D01*
X161522488Y-74435485D01*
X161522487Y-74435485D01*
X161355484Y-74602488D01*
X161355483Y-74602490D01*
X161324949Y-74644517D01*
X161318505Y-74653386D01*
X161263174Y-74696051D01*
X161218187Y-74704500D01*
X160301315Y-74704500D01*
X160234276Y-74684815D01*
X160188521Y-74632011D01*
X160178842Y-74599898D01*
X160178699Y-74598998D01*
X160176015Y-74582049D01*
X160156081Y-74520697D01*
X160107896Y-74372396D01*
X160107895Y-74372393D01*
X160064095Y-74286433D01*
X160007815Y-74175978D01*
X159979990Y-74137680D01*
X159878247Y-73997641D01*
X159878243Y-73997636D01*
X159722363Y-73841756D01*
X159722358Y-73841752D01*
X159544025Y-73712187D01*
X159544024Y-73712186D01*
X159544022Y-73712185D01*
X159481096Y-73680122D01*
X159347606Y-73612104D01*
X159347603Y-73612103D01*
X159137952Y-73543985D01*
X159029086Y-73526742D01*
X158920222Y-73509500D01*
X158699778Y-73509500D01*
X158656232Y-73516397D01*
X158482045Y-73543985D01*
X158403423Y-73569531D01*
X158333582Y-73571526D01*
X158277425Y-73539281D01*
X157492102Y-72753957D01*
X157492098Y-72753954D01*
X157348711Y-72658145D01*
X157348698Y-72658138D01*
X157189378Y-72592146D01*
X157189366Y-72592143D01*
X157020232Y-72558500D01*
X157020229Y-72558500D01*
X155519771Y-72558500D01*
X155519768Y-72558500D01*
X155350633Y-72592143D01*
X155350621Y-72592146D01*
X155191301Y-72658138D01*
X155191289Y-72658145D01*
X155108346Y-72713567D01*
X155108345Y-72713568D01*
X155047898Y-72753956D01*
X154262574Y-73539280D01*
X154201251Y-73572765D01*
X154136576Y-73569530D01*
X154057954Y-73543985D01*
X153894654Y-73518121D01*
X153840222Y-73509500D01*
X153619778Y-73509500D01*
X153547201Y-73520995D01*
X153402047Y-73543985D01*
X153192396Y-73612103D01*
X153192393Y-73612104D01*
X152995974Y-73712187D01*
X152817641Y-73841752D01*
X152817636Y-73841756D01*
X152661756Y-73997636D01*
X152560008Y-74137681D01*
X152504678Y-74180346D01*
X152435065Y-74186325D01*
X152373270Y-74153719D01*
X152359372Y-74137680D01*
X152257862Y-73997964D01*
X152257857Y-73997958D01*
X152102041Y-73842142D01*
X151923760Y-73712613D01*
X151727410Y-73612567D01*
X151517836Y-73544473D01*
X151440000Y-73532144D01*
X151440000Y-74994314D01*
X151435606Y-74989920D01*
X151344394Y-74937259D01*
X151242661Y-74910000D01*
X151137339Y-74910000D01*
X151035606Y-74937259D01*
X150944394Y-74989920D01*
X150940000Y-74994314D01*
X150940000Y-73532144D01*
X150862164Y-73544473D01*
X150862161Y-73544473D01*
X150652589Y-73612567D01*
X150456239Y-73712613D01*
X150277958Y-73842142D01*
X150122142Y-73997958D01*
X149992613Y-74176239D01*
X149892567Y-74372589D01*
X149824473Y-74582164D01*
X149790000Y-74799818D01*
X149790000Y-75060000D01*
X150874314Y-75060000D01*
X150869920Y-75064394D01*
X150817259Y-75155606D01*
X150790000Y-75257339D01*
X150790000Y-75362661D01*
X150817259Y-75464394D01*
X150869920Y-75555606D01*
X150874314Y-75560000D01*
X149790000Y-75560000D01*
X149790000Y-75820181D01*
X149824473Y-76037835D01*
X149892567Y-76247410D01*
X149992613Y-76443760D01*
X150122142Y-76622041D01*
X150277958Y-76777857D01*
X150456239Y-76907386D01*
X150652589Y-77007432D01*
X150862163Y-77075526D01*
X150939999Y-77087854D01*
X150940000Y-77087854D01*
X150940000Y-75625686D01*
X150944394Y-75630080D01*
X151035606Y-75682741D01*
X151137339Y-75710000D01*
X151242661Y-75710000D01*
X151344394Y-75682741D01*
X151435606Y-75630080D01*
X151440000Y-75625686D01*
X151440000Y-77087854D01*
X151517834Y-77075526D01*
X151517837Y-77075526D01*
X151727410Y-77007432D01*
X151923760Y-76907386D01*
X152102041Y-76777857D01*
X152257857Y-76622041D01*
X152257862Y-76622035D01*
X152359372Y-76482319D01*
X152380956Y-76465674D01*
X152400225Y-76446393D01*
X152408220Y-76444650D01*
X152414702Y-76439653D01*
X152441860Y-76437320D01*
X152468493Y-76431517D01*
X152476161Y-76434374D01*
X152484315Y-76433674D01*
X152508423Y-76446394D01*
X152533966Y-76455911D01*
X152542107Y-76464167D01*
X152546110Y-76466279D01*
X152558931Y-76480859D01*
X152559510Y-76481632D01*
X152661758Y-76622365D01*
X152674437Y-76635044D01*
X152679741Y-76642124D01*
X152688992Y-76666901D01*
X152701666Y-76690111D01*
X152703286Y-76705183D01*
X152704181Y-76707579D01*
X152703755Y-76709540D01*
X152704500Y-76716469D01*
X152704500Y-78218187D01*
X152684815Y-78285226D01*
X152653386Y-78318505D01*
X152602488Y-78355484D01*
X152435485Y-78522487D01*
X152435485Y-78522488D01*
X152435483Y-78522490D01*
X152410039Y-78557511D01*
X152296657Y-78713566D01*
X152189433Y-78924003D01*
X152116446Y-79148631D01*
X152079500Y-79381902D01*
X152079500Y-79618097D01*
X152116446Y-79851368D01*
X152189433Y-80075996D01*
X152224347Y-80144517D01*
X152296657Y-80286433D01*
X152435483Y-80477510D01*
X152602490Y-80644517D01*
X152793567Y-80783343D01*
X152892991Y-80834002D01*
X153004003Y-80890566D01*
X153004005Y-80890566D01*
X153004008Y-80890568D01*
X153124412Y-80929689D01*
X153228631Y-80963553D01*
X153461903Y-81000500D01*
X153461908Y-81000500D01*
X153698097Y-81000500D01*
X153931368Y-80963553D01*
X154155992Y-80890568D01*
X154366433Y-80783343D01*
X154557510Y-80644517D01*
X154724517Y-80477510D01*
X154863343Y-80286433D01*
X154970568Y-80075992D01*
X155043553Y-79851368D01*
X155080500Y-79618097D01*
X155080500Y-79381902D01*
X155043553Y-79148631D01*
X154985696Y-78970568D01*
X154970568Y-78924008D01*
X154970566Y-78924005D01*
X154970566Y-78924003D01*
X154884145Y-78754394D01*
X154863343Y-78713567D01*
X154724517Y-78522490D01*
X154557510Y-78355483D01*
X154506613Y-78318504D01*
X154463949Y-78263174D01*
X154455500Y-78218187D01*
X154455500Y-76977187D01*
X154475185Y-76910148D01*
X154506613Y-76876870D01*
X154642365Y-76778242D01*
X154798242Y-76622365D01*
X154814260Y-76600318D01*
X154899682Y-76482745D01*
X154955011Y-76440079D01*
X155024625Y-76434100D01*
X155086420Y-76466705D01*
X155100318Y-76482745D01*
X155201752Y-76622358D01*
X155201756Y-76622363D01*
X155357636Y-76778243D01*
X155357641Y-76778247D01*
X155466912Y-76857636D01*
X155535978Y-76907815D01*
X155659136Y-76970568D01*
X155732393Y-77007895D01*
X155732396Y-77007896D01*
X155818826Y-77035978D01*
X155942049Y-77076015D01*
X156159778Y-77110500D01*
X156159779Y-77110500D01*
X156380221Y-77110500D01*
X156380222Y-77110500D01*
X156597951Y-77076015D01*
X156807606Y-77007895D01*
X156944204Y-76938293D01*
X157012873Y-76925397D01*
X157077614Y-76951673D01*
X157117871Y-77008779D01*
X157124500Y-77048778D01*
X157124500Y-77718187D01*
X157104815Y-77785226D01*
X157073386Y-77818505D01*
X157022488Y-77855484D01*
X156855485Y-78022487D01*
X156855485Y-78022488D01*
X156855483Y-78022490D01*
X156799169Y-78100000D01*
X156716657Y-78213566D01*
X156609433Y-78424003D01*
X156536446Y-78648631D01*
X156499500Y-78881902D01*
X156499500Y-79118097D01*
X156536446Y-79351368D01*
X156609433Y-79575996D01*
X156684162Y-79722658D01*
X156716657Y-79786433D01*
X156855483Y-79977510D01*
X157022490Y-80144517D01*
X157213567Y-80283343D01*
X157312991Y-80334002D01*
X157424003Y-80390566D01*
X157424005Y-80390566D01*
X157424008Y-80390568D01*
X157544412Y-80429689D01*
X157648631Y-80463553D01*
X157881903Y-80500500D01*
X157881908Y-80500500D01*
X158118097Y-80500500D01*
X158351368Y-80463553D01*
X158352870Y-80463065D01*
X158575992Y-80390568D01*
X158786433Y-80283343D01*
X158977510Y-80144517D01*
X159144517Y-79977510D01*
X159283343Y-79786433D01*
X159390568Y-79575992D01*
X159463553Y-79351368D01*
X159463572Y-79351247D01*
X159500500Y-79118097D01*
X159500500Y-78881947D01*
X161500000Y-78881947D01*
X161500000Y-79118052D01*
X161536934Y-79351247D01*
X161609897Y-79575802D01*
X161717087Y-79786174D01*
X161777338Y-79869104D01*
X161777340Y-79869105D01*
X162600000Y-79046445D01*
X162600000Y-79052661D01*
X162627259Y-79154394D01*
X162679920Y-79245606D01*
X162754394Y-79320080D01*
X162845606Y-79372741D01*
X162947339Y-79400000D01*
X162953554Y-79400000D01*
X162130893Y-80222658D01*
X162213828Y-80282914D01*
X162424197Y-80390102D01*
X162648752Y-80463065D01*
X162648751Y-80463065D01*
X162881948Y-80500000D01*
X163118052Y-80500000D01*
X163351247Y-80463065D01*
X163575802Y-80390102D01*
X163786163Y-80282918D01*
X163786169Y-80282914D01*
X163869104Y-80222658D01*
X163869105Y-80222658D01*
X163046446Y-79400000D01*
X163052661Y-79400000D01*
X163154394Y-79372741D01*
X163245606Y-79320080D01*
X163320080Y-79245606D01*
X163372741Y-79154394D01*
X163400000Y-79052661D01*
X163400000Y-79046447D01*
X164222658Y-79869105D01*
X164222658Y-79869104D01*
X164282914Y-79786169D01*
X164282918Y-79786163D01*
X164390102Y-79575802D01*
X164463065Y-79351247D01*
X164500000Y-79118052D01*
X164500000Y-78881947D01*
X164463065Y-78648752D01*
X164390102Y-78424197D01*
X164282914Y-78213828D01*
X164222658Y-78130894D01*
X164222658Y-78130893D01*
X163400000Y-78953552D01*
X163400000Y-78947339D01*
X163372741Y-78845606D01*
X163320080Y-78754394D01*
X163245606Y-78679920D01*
X163154394Y-78627259D01*
X163052661Y-78600000D01*
X163046447Y-78600000D01*
X163869105Y-77777340D01*
X163869104Y-77777338D01*
X163786174Y-77717087D01*
X163575802Y-77609897D01*
X163351247Y-77536934D01*
X163351248Y-77536934D01*
X163118052Y-77500000D01*
X162881948Y-77500000D01*
X162648752Y-77536934D01*
X162424197Y-77609897D01*
X162213830Y-77717084D01*
X162130894Y-77777340D01*
X162953554Y-78600000D01*
X162947339Y-78600000D01*
X162845606Y-78627259D01*
X162754394Y-78679920D01*
X162679920Y-78754394D01*
X162627259Y-78845606D01*
X162600000Y-78947339D01*
X162600000Y-78953553D01*
X161777340Y-78130894D01*
X161717084Y-78213830D01*
X161609897Y-78424197D01*
X161536934Y-78648752D01*
X161500000Y-78881947D01*
X159500500Y-78881947D01*
X159500500Y-78881902D01*
X159463553Y-78648631D01*
X159416567Y-78504025D01*
X159390568Y-78424008D01*
X159390566Y-78424005D01*
X159390566Y-78424003D01*
X159308619Y-78263174D01*
X159283343Y-78213567D01*
X159144517Y-78022490D01*
X158977510Y-77855483D01*
X158922247Y-77815332D01*
X158918177Y-77811796D01*
X158902117Y-77786736D01*
X158883949Y-77763174D01*
X158882676Y-77756400D01*
X158880478Y-77752969D01*
X158880488Y-77744748D01*
X158875500Y-77718187D01*
X158875500Y-77223488D01*
X158895185Y-77156449D01*
X158947989Y-77110694D01*
X158980097Y-77101016D01*
X159137951Y-77076015D01*
X159347606Y-77007895D01*
X159544022Y-76907815D01*
X159722365Y-76778242D01*
X159878242Y-76622365D01*
X159962340Y-76506613D01*
X160017668Y-76463949D01*
X160062657Y-76455500D01*
X161218187Y-76455500D01*
X161285226Y-76475185D01*
X161318504Y-76506613D01*
X161355483Y-76557510D01*
X161522490Y-76724517D01*
X161713567Y-76863343D01*
X161800006Y-76907386D01*
X161924003Y-76970566D01*
X161924005Y-76970566D01*
X161924008Y-76970568D01*
X162037463Y-77007432D01*
X162148631Y-77043553D01*
X162381903Y-77080500D01*
X162381908Y-77080500D01*
X162618097Y-77080500D01*
X162851368Y-77043553D01*
X162874681Y-77035978D01*
X163075992Y-76970568D01*
X163286433Y-76863343D01*
X163477510Y-76724517D01*
X163644517Y-76557510D01*
X163783343Y-76366433D01*
X163890568Y-76155992D01*
X163963553Y-75931368D01*
X164000500Y-75698097D01*
X164000500Y-75461910D01*
X163997595Y-75443567D01*
X163979719Y-75330707D01*
X163988673Y-75261417D01*
X164014508Y-75223634D01*
X168931045Y-70307099D01*
X169026858Y-70163705D01*
X169092855Y-70004374D01*
X169126500Y-69835229D01*
X169126500Y-69662771D01*
X169126500Y-66608483D01*
X169126500Y-66608480D01*
X169126499Y-66608478D01*
X169092855Y-66439338D01*
X169067327Y-66377708D01*
X169026861Y-66280013D01*
X169026854Y-66280000D01*
X168931046Y-66136614D01*
X168886617Y-66092185D01*
X168809099Y-66014667D01*
X166970011Y-64175579D01*
X165114390Y-62319957D01*
X165114386Y-62319954D01*
X164970999Y-62224145D01*
X164970986Y-62224138D01*
X164811666Y-62158146D01*
X164811654Y-62158143D01*
X164642520Y-62124500D01*
X164642517Y-62124500D01*
X161914006Y-62124500D01*
X161846967Y-62104815D01*
X161826325Y-62088181D01*
X160411819Y-60673675D01*
X160378334Y-60612352D01*
X160375500Y-60585994D01*
X160375500Y-54281812D01*
X160395185Y-54214773D01*
X160426616Y-54181493D01*
X160428782Y-54179920D01*
X160477510Y-54144517D01*
X160644517Y-53977510D01*
X160783343Y-53786433D01*
X160890568Y-53575992D01*
X160963553Y-53351368D01*
X160965687Y-53337895D01*
X161000500Y-53118097D01*
X161000500Y-52881905D01*
X160994750Y-52845606D01*
X160990658Y-52819769D01*
X160999612Y-52750480D01*
X161025447Y-52712695D01*
X162826325Y-50911819D01*
X162887648Y-50878334D01*
X162914006Y-50875500D01*
X167085994Y-50875500D01*
X167153033Y-50895185D01*
X167173675Y-50911819D01*
X168408535Y-52146679D01*
X168442020Y-52208002D01*
X168437036Y-52277694D01*
X168395164Y-52333627D01*
X168329700Y-52358044D01*
X168291920Y-52354937D01*
X168287954Y-52353985D01*
X168115226Y-52326628D01*
X168070222Y-52319500D01*
X167849778Y-52319500D01*
X167804774Y-52326628D01*
X167632047Y-52353985D01*
X167422396Y-52422103D01*
X167422393Y-52422104D01*
X167225974Y-52522187D01*
X167047641Y-52651752D01*
X167047636Y-52651756D01*
X166891756Y-52807636D01*
X166891752Y-52807641D01*
X166790318Y-52947254D01*
X166734988Y-52989920D01*
X166665375Y-52995899D01*
X166603580Y-52963293D01*
X166589682Y-52947254D01*
X166488247Y-52807641D01*
X166488243Y-52807636D01*
X166332363Y-52651756D01*
X166332358Y-52651752D01*
X166154025Y-52522187D01*
X166154024Y-52522186D01*
X166154022Y-52522185D01*
X166088931Y-52489019D01*
X165957606Y-52422104D01*
X165957603Y-52422103D01*
X165747952Y-52353985D01*
X165575226Y-52326628D01*
X165530222Y-52319500D01*
X165309778Y-52319500D01*
X165264774Y-52326628D01*
X165092047Y-52353985D01*
X164882396Y-52422103D01*
X164882393Y-52422104D01*
X164685974Y-52522187D01*
X164507641Y-52651752D01*
X164507636Y-52651756D01*
X164351756Y-52807636D01*
X164250008Y-52947681D01*
X164194678Y-52990346D01*
X164125065Y-52996325D01*
X164063270Y-52963719D01*
X164049372Y-52947680D01*
X163947862Y-52807964D01*
X163947857Y-52807958D01*
X163792041Y-52652142D01*
X163613760Y-52522613D01*
X163417410Y-52422567D01*
X163207836Y-52354473D01*
X163130000Y-52342144D01*
X163130000Y-53804314D01*
X163125606Y-53799920D01*
X163034394Y-53747259D01*
X162932661Y-53720000D01*
X162827339Y-53720000D01*
X162725606Y-53747259D01*
X162634394Y-53799920D01*
X162630000Y-53804314D01*
X162630000Y-52342144D01*
X162552164Y-52354473D01*
X162552161Y-52354473D01*
X162342589Y-52422567D01*
X162146239Y-52522613D01*
X161967958Y-52652142D01*
X161812142Y-52807958D01*
X161682613Y-52986239D01*
X161582567Y-53182589D01*
X161514473Y-53392164D01*
X161480000Y-53609818D01*
X161480000Y-53870000D01*
X162564314Y-53870000D01*
X162559920Y-53874394D01*
X162507259Y-53965606D01*
X162480000Y-54067339D01*
X162480000Y-54172661D01*
X162507259Y-54274394D01*
X162559920Y-54365606D01*
X162564314Y-54370000D01*
X161480000Y-54370000D01*
X161480000Y-54630181D01*
X161514473Y-54847835D01*
X161582567Y-55057410D01*
X161682613Y-55253760D01*
X161812142Y-55432041D01*
X161967958Y-55587857D01*
X162146239Y-55717386D01*
X162342589Y-55817432D01*
X162552163Y-55885526D01*
X162629999Y-55897854D01*
X162630000Y-55897854D01*
X162630000Y-54435686D01*
X162634394Y-54440080D01*
X162725606Y-54492741D01*
X162827339Y-54520000D01*
X162932661Y-54520000D01*
X163034394Y-54492741D01*
X163125606Y-54440080D01*
X163130000Y-54435686D01*
X163130000Y-55897854D01*
X163207834Y-55885526D01*
X163207837Y-55885526D01*
X163417410Y-55817432D01*
X163613760Y-55717386D01*
X163792041Y-55587857D01*
X163947857Y-55432041D01*
X163947862Y-55432035D01*
X164049372Y-55292319D01*
X164104702Y-55249653D01*
X164174315Y-55243674D01*
X164236110Y-55276279D01*
X164250008Y-55292319D01*
X164351752Y-55432358D01*
X164351756Y-55432363D01*
X164507636Y-55588243D01*
X164507641Y-55588247D01*
X164614981Y-55666233D01*
X164685978Y-55717815D01*
X164814375Y-55783237D01*
X164882393Y-55817895D01*
X164882396Y-55817896D01*
X164987221Y-55851955D01*
X165092049Y-55886015D01*
X165309778Y-55920500D01*
X165309779Y-55920500D01*
X165530221Y-55920500D01*
X165530222Y-55920500D01*
X165747951Y-55886015D01*
X165957606Y-55817895D01*
X166154022Y-55717815D01*
X166332365Y-55588242D01*
X166488242Y-55432365D01*
X166536144Y-55366433D01*
X166589682Y-55292745D01*
X166645011Y-55250079D01*
X166714625Y-55244100D01*
X166776420Y-55276705D01*
X166790318Y-55292745D01*
X166891752Y-55432358D01*
X166891756Y-55432363D01*
X167047636Y-55588243D01*
X167047641Y-55588247D01*
X167154981Y-55666233D01*
X167225978Y-55717815D01*
X167363627Y-55787951D01*
X167414423Y-55835926D01*
X167431218Y-55903747D01*
X167408680Y-55969882D01*
X167353965Y-56013333D01*
X167326731Y-56020909D01*
X167228630Y-56036447D01*
X167004003Y-56109433D01*
X166793566Y-56216657D01*
X166729542Y-56263174D01*
X166602490Y-56355483D01*
X166602488Y-56355485D01*
X166602487Y-56355485D01*
X166435485Y-56522487D01*
X166435485Y-56522488D01*
X166435483Y-56522490D01*
X166377362Y-56602487D01*
X166296657Y-56713566D01*
X166189433Y-56924003D01*
X166116446Y-57148631D01*
X166079500Y-57381902D01*
X166079500Y-57618097D01*
X166116446Y-57851368D01*
X166189433Y-58075996D01*
X166276349Y-58246577D01*
X166296657Y-58286433D01*
X166435483Y-58477510D01*
X166602490Y-58644517D01*
X166793567Y-58783343D01*
X166944070Y-58860028D01*
X166968410Y-58872430D01*
X167019206Y-58920405D01*
X167036001Y-58988226D01*
X167013464Y-59054361D01*
X166958748Y-59097812D01*
X166950442Y-59100842D01*
X166940839Y-59103962D01*
X166924003Y-59109433D01*
X166713566Y-59216657D01*
X166604550Y-59295862D01*
X166522490Y-59355483D01*
X166522488Y-59355485D01*
X166522487Y-59355485D01*
X166355485Y-59522487D01*
X166355485Y-59522488D01*
X166355483Y-59522490D01*
X166298192Y-59601344D01*
X166216657Y-59713566D01*
X166109433Y-59924003D01*
X166036446Y-60148631D01*
X165999500Y-60381902D01*
X165999500Y-60618097D01*
X166036446Y-60851368D01*
X166109433Y-61075996D01*
X166216657Y-61286433D01*
X166355483Y-61477510D01*
X166522490Y-61644517D01*
X166713567Y-61783343D01*
X166784529Y-61819500D01*
X166924003Y-61890566D01*
X166924005Y-61890566D01*
X166924008Y-61890568D01*
X167035057Y-61926650D01*
X167148631Y-61963553D01*
X167381903Y-62000500D01*
X167381908Y-62000500D01*
X167618096Y-62000500D01*
X167680227Y-61990659D01*
X167749521Y-61999613D01*
X167787307Y-62025451D01*
X170398181Y-64636325D01*
X170431666Y-64697648D01*
X170434500Y-64724006D01*
X170434500Y-70316233D01*
X170468143Y-70485366D01*
X170468146Y-70485378D01*
X170534138Y-70644698D01*
X170534145Y-70644711D01*
X170629953Y-70788097D01*
X170629954Y-70788098D01*
X170629955Y-70788099D01*
X170784549Y-70942693D01*
X170818033Y-71004015D01*
X170819341Y-71049769D01*
X170809500Y-71111907D01*
X170809500Y-71348097D01*
X170846446Y-71581368D01*
X170919433Y-71805996D01*
X171008093Y-71980000D01*
X171026657Y-72016433D01*
X171165483Y-72207510D01*
X171332490Y-72374517D01*
X171523567Y-72513343D01*
X171612193Y-72558500D01*
X171734003Y-72620566D01*
X171734005Y-72620566D01*
X171734008Y-72620568D01*
X171849636Y-72658138D01*
X171958631Y-72693553D01*
X172191903Y-72730500D01*
X172191908Y-72730500D01*
X172428096Y-72730500D01*
X172490226Y-72720659D01*
X172559520Y-72729613D01*
X172597306Y-72755451D01*
X173211897Y-73370042D01*
X173211901Y-73370045D01*
X173355288Y-73465854D01*
X173355301Y-73465861D01*
X173456047Y-73507591D01*
X173514626Y-73531855D01*
X173683766Y-73565499D01*
X173683769Y-73565500D01*
X173683771Y-73565500D01*
X173856229Y-73565500D01*
X174844880Y-73565500D01*
X174911919Y-73585185D01*
X174957674Y-73637989D01*
X174961924Y-73648552D01*
X174962461Y-73650087D01*
X175030420Y-73758243D01*
X175056186Y-73799248D01*
X175180752Y-73923814D01*
X175309940Y-74004989D01*
X175316130Y-74008878D01*
X175362421Y-74061213D01*
X175373069Y-74130266D01*
X175344694Y-74194115D01*
X175337840Y-74201553D01*
X175221751Y-74317642D01*
X175092187Y-74495974D01*
X174992104Y-74692393D01*
X174992103Y-74692396D01*
X174923985Y-74902047D01*
X174899080Y-75059284D01*
X174869150Y-75122418D01*
X174864289Y-75127566D01*
X174673673Y-75318182D01*
X174612353Y-75351666D01*
X174585994Y-75354500D01*
X173591813Y-75354500D01*
X173524774Y-75334815D01*
X173491495Y-75303386D01*
X173454517Y-75252490D01*
X173287510Y-75085483D01*
X173096433Y-74946657D01*
X172885996Y-74839433D01*
X172661368Y-74766446D01*
X172428097Y-74729500D01*
X172428092Y-74729500D01*
X172191908Y-74729500D01*
X172191903Y-74729500D01*
X171958631Y-74766446D01*
X171734003Y-74839433D01*
X171523566Y-74946657D01*
X171414550Y-75025862D01*
X171332490Y-75085483D01*
X171332488Y-75085485D01*
X171332487Y-75085485D01*
X171165485Y-75252487D01*
X171165485Y-75252488D01*
X171165483Y-75252490D01*
X171128505Y-75303386D01*
X171026657Y-75443566D01*
X170919433Y-75654003D01*
X170846446Y-75878631D01*
X170809500Y-76111902D01*
X170809500Y-76348091D01*
X170819341Y-76410229D01*
X170818639Y-76415655D01*
X170820551Y-76420780D01*
X170814209Y-76449929D01*
X170810385Y-76479523D01*
X170806553Y-76485127D01*
X170805699Y-76489053D01*
X170784551Y-76517303D01*
X170633673Y-76668182D01*
X170572352Y-76701666D01*
X170545994Y-76704500D01*
X167781813Y-76704500D01*
X167714774Y-76684815D01*
X167681495Y-76653386D01*
X167658957Y-76622365D01*
X167644517Y-76602490D01*
X167477510Y-76435483D01*
X167286433Y-76296657D01*
X167075996Y-76189433D01*
X166851368Y-76116446D01*
X166618097Y-76079500D01*
X166618092Y-76079500D01*
X166381908Y-76079500D01*
X166381903Y-76079500D01*
X166148631Y-76116446D01*
X165924003Y-76189433D01*
X165713566Y-76296657D01*
X165642774Y-76348091D01*
X165522490Y-76435483D01*
X165522488Y-76435485D01*
X165522487Y-76435485D01*
X165355485Y-76602487D01*
X165355485Y-76602488D01*
X165355483Y-76602490D01*
X165341043Y-76622365D01*
X165216657Y-76793566D01*
X165109433Y-77004003D01*
X165036446Y-77228631D01*
X164999500Y-77461902D01*
X164999500Y-77698097D01*
X165036446Y-77931368D01*
X165109433Y-78155996D01*
X165192236Y-78318505D01*
X165216657Y-78366433D01*
X165355483Y-78557510D01*
X165522490Y-78724517D01*
X165713567Y-78863343D01*
X165812991Y-78914002D01*
X165924003Y-78970566D01*
X165924005Y-78970566D01*
X165924008Y-78970568D01*
X166000187Y-78995320D01*
X166148631Y-79043553D01*
X166381903Y-79080500D01*
X166381908Y-79080500D01*
X166618097Y-79080500D01*
X166851368Y-79043553D01*
X167075992Y-78970568D01*
X167286433Y-78863343D01*
X167477510Y-78724517D01*
X167644517Y-78557510D01*
X167681495Y-78506613D01*
X167736826Y-78463949D01*
X167781813Y-78455500D01*
X171046231Y-78455500D01*
X171046232Y-78455499D01*
X171215374Y-78421855D01*
X171374705Y-78355858D01*
X171518099Y-78260045D01*
X172022692Y-77755450D01*
X172084015Y-77721966D01*
X172129771Y-77720659D01*
X172191903Y-77730500D01*
X172191908Y-77730500D01*
X172428097Y-77730500D01*
X172661368Y-77693553D01*
X172885992Y-77620568D01*
X173096433Y-77513343D01*
X173287510Y-77374517D01*
X173454517Y-77207510D01*
X173491495Y-77156613D01*
X173546826Y-77113949D01*
X173591813Y-77105500D01*
X173936994Y-77105500D01*
X174004033Y-77125185D01*
X174049788Y-77177989D01*
X174059732Y-77247147D01*
X174030707Y-77310703D01*
X174024675Y-77317181D01*
X170867306Y-80474548D01*
X170805983Y-80508033D01*
X170760228Y-80509340D01*
X170698092Y-80499500D01*
X170461908Y-80499500D01*
X170461903Y-80499500D01*
X170228631Y-80536446D01*
X170004003Y-80609433D01*
X169793566Y-80716657D01*
X169701783Y-80783342D01*
X169602490Y-80855483D01*
X169602488Y-80855485D01*
X169602487Y-80855485D01*
X169435485Y-81022487D01*
X169435485Y-81022488D01*
X169435483Y-81022490D01*
X169375862Y-81104550D01*
X169296657Y-81213566D01*
X169189433Y-81424003D01*
X169116446Y-81648631D01*
X169079500Y-81881902D01*
X169079500Y-82118097D01*
X169116446Y-82351368D01*
X169189433Y-82575996D01*
X169296102Y-82785343D01*
X169296657Y-82786433D01*
X169435483Y-82977510D01*
X169602490Y-83144517D01*
X169793567Y-83283343D01*
X169879951Y-83327358D01*
X170004003Y-83390566D01*
X170004005Y-83390566D01*
X170004008Y-83390568D01*
X170116029Y-83426966D01*
X170228631Y-83463553D01*
X170461903Y-83500500D01*
X170461908Y-83500500D01*
X170698097Y-83500500D01*
X170931368Y-83463553D01*
X171155992Y-83390568D01*
X171366433Y-83283343D01*
X171557510Y-83144517D01*
X171724517Y-82977510D01*
X171863343Y-82786433D01*
X171970568Y-82575992D01*
X172043553Y-82351368D01*
X172080500Y-82118097D01*
X172080500Y-81881905D01*
X172077053Y-81860147D01*
X172070658Y-81819769D01*
X172079612Y-81750480D01*
X172105447Y-81712695D01*
X175091089Y-78727054D01*
X175152410Y-78693571D01*
X175222102Y-78698555D01*
X175266449Y-78727056D01*
X175377636Y-78838243D01*
X175377641Y-78838247D01*
X175517680Y-78939991D01*
X175560346Y-78995320D01*
X175566325Y-79064934D01*
X175533720Y-79126729D01*
X175517681Y-79140627D01*
X175377959Y-79242142D01*
X175377958Y-79242142D01*
X175222142Y-79397958D01*
X175092613Y-79576239D01*
X174992567Y-79772589D01*
X174924473Y-79982161D01*
X174924473Y-79982164D01*
X174912145Y-80060000D01*
X176374314Y-80060000D01*
X176369920Y-80064394D01*
X176317259Y-80155606D01*
X176290000Y-80257339D01*
X176290000Y-80362661D01*
X176317259Y-80464394D01*
X176369920Y-80555606D01*
X176374314Y-80560000D01*
X174912145Y-80560000D01*
X174924473Y-80637835D01*
X174924473Y-80637838D01*
X174992567Y-80847410D01*
X175092613Y-81043760D01*
X175222142Y-81222041D01*
X175377958Y-81377857D01*
X175556239Y-81507386D01*
X175752589Y-81607432D01*
X175962164Y-81675526D01*
X176179819Y-81710000D01*
X176440000Y-81710000D01*
X176440000Y-80625686D01*
X176444394Y-80630080D01*
X176535606Y-80682741D01*
X176637339Y-80710000D01*
X176742661Y-80710000D01*
X176844394Y-80682741D01*
X176935606Y-80630080D01*
X176940000Y-80625686D01*
X176940000Y-81710000D01*
X177200181Y-81710000D01*
X177417835Y-81675526D01*
X177627410Y-81607432D01*
X177823760Y-81507386D01*
X178002041Y-81377857D01*
X178157857Y-81222041D01*
X178287386Y-81043760D01*
X178387432Y-80847410D01*
X178455526Y-80637838D01*
X178455526Y-80637835D01*
X178467855Y-80560000D01*
X177005686Y-80560000D01*
X177010080Y-80555606D01*
X177062741Y-80464394D01*
X177090000Y-80362661D01*
X177090000Y-80257339D01*
X177062741Y-80155606D01*
X177010080Y-80064394D01*
X177005686Y-80060000D01*
X178467855Y-80060000D01*
X178455526Y-79982164D01*
X178455526Y-79982161D01*
X178387432Y-79772589D01*
X178287386Y-79576239D01*
X178157857Y-79397958D01*
X178002041Y-79242142D01*
X177862318Y-79140627D01*
X177819653Y-79085297D01*
X177813674Y-79015684D01*
X177846280Y-78953889D01*
X177862313Y-78939994D01*
X178002365Y-78838242D01*
X178158242Y-78682365D01*
X178287815Y-78504022D01*
X178387895Y-78307606D01*
X178456015Y-78097951D01*
X178490500Y-77880222D01*
X178490500Y-77659778D01*
X178456015Y-77442049D01*
X178402498Y-77277338D01*
X178387896Y-77232396D01*
X178387895Y-77232393D01*
X178349199Y-77156449D01*
X178287815Y-77035978D01*
X178207474Y-76925397D01*
X178158247Y-76857641D01*
X178158243Y-76857636D01*
X178002363Y-76701756D01*
X178002358Y-76701752D01*
X177862745Y-76600318D01*
X177820079Y-76544989D01*
X177814100Y-76475375D01*
X177846705Y-76413580D01*
X177862745Y-76399682D01*
X178002358Y-76298247D01*
X178002356Y-76298247D01*
X178002365Y-76298242D01*
X178158242Y-76142365D01*
X178287815Y-75964022D01*
X178387895Y-75767606D01*
X178456015Y-75557951D01*
X178490500Y-75340222D01*
X178490500Y-75119778D01*
X178456015Y-74902049D01*
X178411956Y-74766446D01*
X178387896Y-74692396D01*
X178387895Y-74692393D01*
X178331670Y-74582048D01*
X178287815Y-74495978D01*
X178231579Y-74418575D01*
X178158247Y-74317641D01*
X178158243Y-74317636D01*
X178042160Y-74201553D01*
X178008675Y-74140230D01*
X178013659Y-74070538D01*
X178055531Y-74014605D01*
X178063854Y-74008888D01*
X178199248Y-73923814D01*
X178323814Y-73799248D01*
X178417540Y-73650085D01*
X178475723Y-73483807D01*
X178477746Y-73465858D01*
X178490499Y-73352662D01*
X178490500Y-73352658D01*
X178490500Y-72179005D01*
X178510185Y-72111966D01*
X178526814Y-72091328D01*
X179701844Y-70916298D01*
X179763165Y-70882815D01*
X179770076Y-70881516D01*
X179867951Y-70866015D01*
X180077606Y-70797895D01*
X180274022Y-70697815D01*
X180452365Y-70568242D01*
X180608242Y-70412365D01*
X180737815Y-70234022D01*
X180837895Y-70037606D01*
X180906015Y-69827951D01*
X180940500Y-69610222D01*
X180940500Y-69389778D01*
X180906015Y-69172049D01*
X180854552Y-69013659D01*
X180837896Y-68962396D01*
X180837895Y-68962393D01*
X180797900Y-68883901D01*
X180737815Y-68765978D01*
X180645293Y-68638631D01*
X180608247Y-68587641D01*
X180608243Y-68587636D01*
X180452363Y-68431756D01*
X180452358Y-68431752D01*
X180274025Y-68302187D01*
X180274024Y-68302186D01*
X180274022Y-68302185D01*
X180211096Y-68270122D01*
X180077606Y-68202104D01*
X180077603Y-68202103D01*
X179867952Y-68133985D01*
X179695226Y-68106628D01*
X179650222Y-68099500D01*
X179429778Y-68099500D01*
X179384774Y-68106628D01*
X179212047Y-68133985D01*
X179002396Y-68202103D01*
X179002393Y-68202104D01*
X178805974Y-68302187D01*
X178627641Y-68431752D01*
X178627636Y-68431756D01*
X178471756Y-68587636D01*
X178471752Y-68587641D01*
X178370318Y-68727254D01*
X178314988Y-68769920D01*
X178245375Y-68775899D01*
X178183580Y-68743293D01*
X178169682Y-68727254D01*
X178068247Y-68587641D01*
X178068243Y-68587636D01*
X177912363Y-68431756D01*
X177912358Y-68431752D01*
X177734025Y-68302187D01*
X177734024Y-68302186D01*
X177734022Y-68302185D01*
X177671096Y-68270122D01*
X177537606Y-68202104D01*
X177537603Y-68202103D01*
X177327952Y-68133985D01*
X177155226Y-68106628D01*
X177110222Y-68099500D01*
X176889778Y-68099500D01*
X176889006Y-68099500D01*
X176821967Y-68079815D01*
X176801325Y-68063181D01*
X176535819Y-67797675D01*
X176502334Y-67736352D01*
X176499500Y-67709994D01*
X176499500Y-60871178D01*
X176519185Y-60804139D01*
X176571989Y-60758384D01*
X176641147Y-60748440D01*
X176696385Y-60770859D01*
X176713567Y-60783343D01*
X176812991Y-60834002D01*
X176924003Y-60890566D01*
X176924005Y-60890566D01*
X176924008Y-60890568D01*
X177044412Y-60929689D01*
X177148631Y-60963553D01*
X177199195Y-60971561D01*
X177253108Y-60980100D01*
X177316243Y-61010029D01*
X177321392Y-61014892D01*
X182049714Y-65743214D01*
X182083199Y-65804537D01*
X182084507Y-65850291D01*
X182079500Y-65881907D01*
X182079500Y-66118097D01*
X182116446Y-66351368D01*
X182189433Y-66575996D01*
X182296657Y-66786433D01*
X182435483Y-66977510D01*
X182602490Y-67144517D01*
X182793567Y-67283343D01*
X183004008Y-67390568D01*
X183189192Y-67450738D01*
X183246868Y-67490176D01*
X183274066Y-67554534D01*
X183262151Y-67623381D01*
X183214907Y-67674856D01*
X183207170Y-67679153D01*
X183133569Y-67716655D01*
X183072044Y-67761356D01*
X182942490Y-67855483D01*
X182942488Y-67855485D01*
X182942487Y-67855485D01*
X182775485Y-68022487D01*
X182775485Y-68022488D01*
X182775483Y-68022490D01*
X182764381Y-68037771D01*
X182636657Y-68213566D01*
X182529433Y-68424003D01*
X182456446Y-68648631D01*
X182419500Y-68881902D01*
X182419500Y-69118097D01*
X182456446Y-69351368D01*
X182529433Y-69575996D01*
X182574096Y-69663651D01*
X182636657Y-69786433D01*
X182775483Y-69977510D01*
X182942490Y-70144517D01*
X183133567Y-70283343D01*
X183344008Y-70390568D01*
X183348816Y-70392130D01*
X183406492Y-70431566D01*
X183433691Y-70495925D01*
X183434500Y-70510062D01*
X183434500Y-71284473D01*
X183414815Y-71351512D01*
X183366795Y-71394957D01*
X183249379Y-71454785D01*
X183175974Y-71492187D01*
X182997641Y-71621752D01*
X182997636Y-71621756D01*
X182841756Y-71777636D01*
X182841752Y-71777641D01*
X182712187Y-71955974D01*
X182612104Y-72152393D01*
X182612103Y-72152396D01*
X182543985Y-72362047D01*
X182509500Y-72579778D01*
X182509500Y-72800221D01*
X182543985Y-73017952D01*
X182612103Y-73227603D01*
X182612104Y-73227606D01*
X182712187Y-73424025D01*
X182841752Y-73602358D01*
X182841756Y-73602363D01*
X182997636Y-73758243D01*
X182997641Y-73758247D01*
X183137254Y-73859682D01*
X183179920Y-73915012D01*
X183185899Y-73984625D01*
X183153293Y-74046420D01*
X183137254Y-74060318D01*
X182997641Y-74161752D01*
X182997636Y-74161756D01*
X182841756Y-74317636D01*
X182841752Y-74317641D01*
X182712187Y-74495974D01*
X182612104Y-74692393D01*
X182612103Y-74692396D01*
X182543985Y-74902047D01*
X182528392Y-75000500D01*
X182509500Y-75119778D01*
X182509500Y-75340222D01*
X182513054Y-75362661D01*
X182543985Y-75557952D01*
X182612103Y-75767603D01*
X182612104Y-75767606D01*
X182712187Y-75964025D01*
X182841752Y-76142358D01*
X182841756Y-76142363D01*
X182997636Y-76298243D01*
X182997641Y-76298247D01*
X183137254Y-76399682D01*
X183179920Y-76455012D01*
X183185899Y-76524625D01*
X183153293Y-76586420D01*
X183137254Y-76600318D01*
X182997641Y-76701752D01*
X182997636Y-76701756D01*
X182841756Y-76857636D01*
X182841752Y-76857641D01*
X182712187Y-77035974D01*
X182612104Y-77232393D01*
X182612103Y-77232396D01*
X182543985Y-77442047D01*
X182517400Y-77609897D01*
X182509500Y-77659778D01*
X182509500Y-77880222D01*
X182516465Y-77924197D01*
X182543985Y-78097952D01*
X182612103Y-78307603D01*
X182612104Y-78307606D01*
X182636692Y-78355861D01*
X182710135Y-78499999D01*
X182712187Y-78504025D01*
X182841752Y-78682358D01*
X182841756Y-78682363D01*
X182997636Y-78838243D01*
X182997641Y-78838247D01*
X183137680Y-78939991D01*
X183180346Y-78995320D01*
X183186325Y-79064934D01*
X183153720Y-79126729D01*
X183137681Y-79140627D01*
X182997959Y-79242142D01*
X182997958Y-79242142D01*
X182842142Y-79397958D01*
X182712613Y-79576239D01*
X182612567Y-79772589D01*
X182544473Y-79982161D01*
X182544473Y-79982164D01*
X182532145Y-80060000D01*
X183994314Y-80060000D01*
X183989920Y-80064394D01*
X183937259Y-80155606D01*
X183910000Y-80257339D01*
X183910000Y-80362661D01*
X183937259Y-80464394D01*
X183989920Y-80555606D01*
X183994314Y-80560000D01*
X182532145Y-80560000D01*
X182544473Y-80637835D01*
X182544473Y-80637838D01*
X182612567Y-80847410D01*
X182712613Y-81043760D01*
X182842142Y-81222041D01*
X182997958Y-81377857D01*
X183176239Y-81507386D01*
X183372589Y-81607432D01*
X183582164Y-81675526D01*
X183799819Y-81710000D01*
X184060000Y-81710000D01*
X184060000Y-80625686D01*
X184064394Y-80630080D01*
X184155606Y-80682741D01*
X184257339Y-80710000D01*
X184362661Y-80710000D01*
X184464394Y-80682741D01*
X184555606Y-80630080D01*
X184560000Y-80625686D01*
X184560000Y-81710000D01*
X184820181Y-81710000D01*
X185037835Y-81675526D01*
X185247410Y-81607432D01*
X185443760Y-81507386D01*
X185622041Y-81377857D01*
X185777857Y-81222041D01*
X185907386Y-81043760D01*
X186007432Y-80847410D01*
X186075526Y-80637838D01*
X186075526Y-80637835D01*
X186087855Y-80560000D01*
X184625686Y-80560000D01*
X184630080Y-80555606D01*
X184682741Y-80464394D01*
X184710000Y-80362661D01*
X184710000Y-80257339D01*
X184682741Y-80155606D01*
X184630080Y-80064394D01*
X184625686Y-80060000D01*
X186087855Y-80060000D01*
X186075526Y-79982164D01*
X186075526Y-79982161D01*
X186007432Y-79772589D01*
X185986595Y-79731694D01*
X185907386Y-79576239D01*
X185777857Y-79397958D01*
X185622041Y-79242142D01*
X185482318Y-79140627D01*
X185439653Y-79085297D01*
X185433674Y-79015684D01*
X185466280Y-78953889D01*
X185482313Y-78939994D01*
X185622365Y-78838242D01*
X185778242Y-78682365D01*
X185907815Y-78504022D01*
X185949683Y-78421853D01*
X185970017Y-78381947D01*
X187000000Y-78381947D01*
X187000000Y-78618052D01*
X187036934Y-78851247D01*
X187109897Y-79075802D01*
X187217087Y-79286174D01*
X187277338Y-79369104D01*
X187277340Y-79369105D01*
X188100000Y-78546445D01*
X188100000Y-78552661D01*
X188127259Y-78654394D01*
X188179920Y-78745606D01*
X188254394Y-78820080D01*
X188345606Y-78872741D01*
X188447339Y-78900000D01*
X188453554Y-78900000D01*
X187630893Y-79722658D01*
X187713828Y-79782914D01*
X187924197Y-79890102D01*
X188148752Y-79963065D01*
X188148751Y-79963065D01*
X188381948Y-80000000D01*
X188618052Y-80000000D01*
X188851247Y-79963065D01*
X189075802Y-79890102D01*
X189286163Y-79782918D01*
X189286169Y-79782914D01*
X189369104Y-79722658D01*
X189369105Y-79722658D01*
X188546446Y-78900000D01*
X188552661Y-78900000D01*
X188654394Y-78872741D01*
X188745606Y-78820080D01*
X188820080Y-78745606D01*
X188872741Y-78654394D01*
X188900000Y-78552661D01*
X188900000Y-78546446D01*
X189722658Y-79369105D01*
X189722658Y-79369104D01*
X189782914Y-79286169D01*
X189782918Y-79286163D01*
X189890102Y-79075802D01*
X189963065Y-78851247D01*
X190000000Y-78618052D01*
X190000000Y-78381947D01*
X189963065Y-78148752D01*
X189890102Y-77924197D01*
X189782914Y-77713828D01*
X189722658Y-77630894D01*
X189722658Y-77630893D01*
X188900000Y-78453552D01*
X188900000Y-78447339D01*
X188872741Y-78345606D01*
X188820080Y-78254394D01*
X188745606Y-78179920D01*
X188654394Y-78127259D01*
X188552661Y-78100000D01*
X188546447Y-78100000D01*
X189369105Y-77277340D01*
X189369104Y-77277338D01*
X189286174Y-77217087D01*
X189075802Y-77109897D01*
X188851247Y-77036934D01*
X188851248Y-77036934D01*
X188618052Y-77000000D01*
X188381948Y-77000000D01*
X188148752Y-77036934D01*
X187924197Y-77109897D01*
X187713830Y-77217084D01*
X187630894Y-77277340D01*
X188453554Y-78100000D01*
X188447339Y-78100000D01*
X188345606Y-78127259D01*
X188254394Y-78179920D01*
X188179920Y-78254394D01*
X188127259Y-78345606D01*
X188100000Y-78447339D01*
X188100000Y-78453554D01*
X187277340Y-77630894D01*
X187217084Y-77713830D01*
X187109897Y-77924197D01*
X187036934Y-78148752D01*
X187000000Y-78381947D01*
X185970017Y-78381947D01*
X186001184Y-78320779D01*
X186007894Y-78307607D01*
X186007895Y-78307606D01*
X186076015Y-78097951D01*
X186110500Y-77880222D01*
X186110500Y-77659778D01*
X186076015Y-77442049D01*
X186022498Y-77277338D01*
X186007897Y-77232399D01*
X186007895Y-77232393D01*
X185969199Y-77156449D01*
X185907815Y-77035978D01*
X185827474Y-76925397D01*
X185778247Y-76857641D01*
X185778243Y-76857636D01*
X185622363Y-76701756D01*
X185622358Y-76701752D01*
X185482745Y-76600318D01*
X185440079Y-76544989D01*
X185434100Y-76475375D01*
X185466705Y-76413580D01*
X185482745Y-76399682D01*
X185622358Y-76298247D01*
X185622356Y-76298247D01*
X185622365Y-76298242D01*
X185778242Y-76142365D01*
X185907815Y-75964022D01*
X186007895Y-75767606D01*
X186076015Y-75557951D01*
X186110500Y-75340222D01*
X186110500Y-75119778D01*
X186076015Y-74902049D01*
X186031956Y-74766446D01*
X186007896Y-74692396D01*
X186007895Y-74692393D01*
X185951670Y-74582048D01*
X185907815Y-74495978D01*
X185851579Y-74418575D01*
X185778247Y-74317641D01*
X185778243Y-74317636D01*
X185622363Y-74161756D01*
X185622358Y-74161752D01*
X185482745Y-74060318D01*
X185440079Y-74004989D01*
X185434100Y-73935375D01*
X185466705Y-73873580D01*
X185482745Y-73859682D01*
X185622358Y-73758247D01*
X185622356Y-73758247D01*
X185622365Y-73758242D01*
X185778242Y-73602365D01*
X185778242Y-73602364D01*
X185778788Y-73601819D01*
X185840111Y-73568334D01*
X185866469Y-73565500D01*
X186885264Y-73565500D01*
X186952303Y-73585185D01*
X186998058Y-73637989D01*
X187007737Y-73670102D01*
X187036446Y-73851368D01*
X187109433Y-74075996D01*
X187173408Y-74201553D01*
X187216657Y-74286433D01*
X187355483Y-74477510D01*
X187522490Y-74644517D01*
X187713567Y-74783343D01*
X187797924Y-74826325D01*
X187924003Y-74890566D01*
X187924005Y-74890566D01*
X187924008Y-74890568D01*
X188044412Y-74929689D01*
X188148631Y-74963553D01*
X188381903Y-75000500D01*
X188381908Y-75000500D01*
X188618097Y-75000500D01*
X188851368Y-74963553D01*
X188897862Y-74948446D01*
X189075992Y-74890568D01*
X189286433Y-74783343D01*
X189477510Y-74644517D01*
X189644517Y-74477510D01*
X189783343Y-74286433D01*
X189890568Y-74075992D01*
X189963553Y-73851368D01*
X189978302Y-73758247D01*
X190000500Y-73618097D01*
X190000500Y-73381902D01*
X189963553Y-73148631D01*
X189890566Y-72924003D01*
X189804684Y-72755451D01*
X189783343Y-72713567D01*
X189644517Y-72522490D01*
X189477510Y-72355483D01*
X189286433Y-72216657D01*
X189212537Y-72179005D01*
X189075996Y-72109433D01*
X188851368Y-72036446D01*
X188618097Y-71999500D01*
X188618092Y-71999500D01*
X188381908Y-71999500D01*
X188309022Y-72011043D01*
X188239729Y-72002087D01*
X188220735Y-71991671D01*
X188104710Y-71914145D01*
X188104698Y-71914138D01*
X187945378Y-71848146D01*
X187945366Y-71848143D01*
X187776232Y-71814500D01*
X187776229Y-71814500D01*
X185866469Y-71814500D01*
X185799430Y-71794815D01*
X185778788Y-71778181D01*
X185622363Y-71621756D01*
X185622358Y-71621752D01*
X185444025Y-71492187D01*
X185444024Y-71492186D01*
X185444022Y-71492185D01*
X185253204Y-71394957D01*
X185202409Y-71346983D01*
X185185500Y-71284473D01*
X185185500Y-69850521D01*
X185202200Y-69791319D01*
X185201131Y-69790774D01*
X185265904Y-69663651D01*
X185310568Y-69575992D01*
X185383553Y-69351368D01*
X185393687Y-69287386D01*
X185420500Y-69118097D01*
X185420500Y-68881902D01*
X185383553Y-68648631D01*
X185310566Y-68424003D01*
X185203342Y-68213566D01*
X185064517Y-68022490D01*
X184897510Y-67855483D01*
X184706433Y-67716657D01*
X184654116Y-67690000D01*
X184495996Y-67609433D01*
X184310806Y-67549261D01*
X184253131Y-67509823D01*
X184225933Y-67445464D01*
X184237848Y-67376618D01*
X184285092Y-67325142D01*
X184292831Y-67320845D01*
X184366431Y-67283344D01*
X184366430Y-67283344D01*
X184366433Y-67283343D01*
X184557510Y-67144517D01*
X184623691Y-67078335D01*
X184685010Y-67044853D01*
X184754702Y-67049837D01*
X184799050Y-67078338D01*
X205420174Y-87699462D01*
X205457067Y-87724113D01*
X205567667Y-87798014D01*
X205615665Y-87817895D01*
X205731547Y-87865895D01*
X205905516Y-87900499D01*
X205905520Y-87900500D01*
X205905521Y-87900500D01*
X205905522Y-87900500D01*
X210596374Y-87900500D01*
X210663413Y-87920185D01*
X210706858Y-87968203D01*
X210716657Y-87987434D01*
X210855483Y-88178510D01*
X212366490Y-89689517D01*
X212557566Y-89828343D01*
X212656992Y-89879003D01*
X212768003Y-89935566D01*
X212768005Y-89935566D01*
X212768008Y-89935568D01*
X212838915Y-89958607D01*
X212992631Y-90008553D01*
X213225903Y-90045500D01*
X213225908Y-90045500D01*
X213462092Y-90045500D01*
X215775501Y-90045500D01*
X215842540Y-90065185D01*
X215888295Y-90117989D01*
X215899501Y-90169500D01*
X215899501Y-90192876D01*
X215905908Y-90252483D01*
X215956202Y-90387328D01*
X215956206Y-90387335D01*
X216042452Y-90502544D01*
X216042455Y-90502547D01*
X216157664Y-90588793D01*
X216157671Y-90588797D01*
X216292517Y-90639091D01*
X216292516Y-90639091D01*
X216299444Y-90639835D01*
X216352127Y-90645500D01*
X219647872Y-90645499D01*
X219707483Y-90639091D01*
X219842331Y-90588796D01*
X219957546Y-90502546D01*
X220043796Y-90387331D01*
X220094091Y-90252483D01*
X220100500Y-90192873D01*
X220100500Y-90169500D01*
X220120185Y-90102461D01*
X220172989Y-90056706D01*
X220224500Y-90045500D01*
X231283937Y-90045500D01*
X231350976Y-90065185D01*
X231383204Y-90095190D01*
X231392454Y-90107546D01*
X231392457Y-90107548D01*
X231507664Y-90193793D01*
X231507671Y-90193797D01*
X231642517Y-90244091D01*
X231642516Y-90244091D01*
X231649444Y-90244835D01*
X231702127Y-90250500D01*
X234297872Y-90250499D01*
X234357483Y-90244091D01*
X234492331Y-90193796D01*
X234607546Y-90107546D01*
X234616795Y-90095190D01*
X234672728Y-90053319D01*
X234716063Y-90045500D01*
X237142659Y-90045500D01*
X237204660Y-90062114D01*
X237224100Y-90073338D01*
X237224120Y-90073348D01*
X237306687Y-90107548D01*
X237436113Y-90161158D01*
X237657762Y-90220548D01*
X237874312Y-90249057D01*
X237885250Y-90250498D01*
X237885266Y-90250500D01*
X237885273Y-90250500D01*
X238114727Y-90250500D01*
X238114734Y-90250500D01*
X238342238Y-90220548D01*
X238563887Y-90161158D01*
X238730538Y-90092128D01*
X238775879Y-90073348D01*
X238775882Y-90073346D01*
X238775888Y-90073344D01*
X238775894Y-90073340D01*
X238775899Y-90073338D01*
X238795340Y-90062114D01*
X238857341Y-90045500D01*
X247142659Y-90045500D01*
X247204660Y-90062114D01*
X247224100Y-90073338D01*
X247224120Y-90073348D01*
X247306687Y-90107548D01*
X247436113Y-90161158D01*
X247657762Y-90220548D01*
X247874312Y-90249057D01*
X247885250Y-90250498D01*
X247885266Y-90250500D01*
X247885273Y-90250500D01*
X248114727Y-90250500D01*
X248114734Y-90250500D01*
X248342238Y-90220548D01*
X248563887Y-90161158D01*
X248730538Y-90092128D01*
X248775879Y-90073348D01*
X248775882Y-90073346D01*
X248775888Y-90073344D01*
X248775894Y-90073340D01*
X248775899Y-90073338D01*
X248795340Y-90062114D01*
X248857341Y-90045500D01*
X252142659Y-90045500D01*
X252204660Y-90062114D01*
X252224100Y-90073338D01*
X252224120Y-90073348D01*
X252306687Y-90107548D01*
X252436113Y-90161158D01*
X252657762Y-90220548D01*
X252874312Y-90249057D01*
X252885250Y-90250498D01*
X252885266Y-90250500D01*
X252885273Y-90250500D01*
X253114727Y-90250500D01*
X253114734Y-90250500D01*
X253342238Y-90220548D01*
X253563887Y-90161158D01*
X253775888Y-90073344D01*
X253974612Y-89958611D01*
X254156661Y-89818919D01*
X254156665Y-89818914D01*
X254156670Y-89818911D01*
X254318911Y-89656670D01*
X254318914Y-89656665D01*
X254318919Y-89656661D01*
X254458611Y-89474612D01*
X254573344Y-89275888D01*
X254661158Y-89063887D01*
X254720548Y-88842238D01*
X254750500Y-88614734D01*
X254750500Y-88385266D01*
X254720548Y-88157762D01*
X254661158Y-87936113D01*
X254573344Y-87724112D01*
X254458611Y-87525388D01*
X254458608Y-87525385D01*
X254458607Y-87525382D01*
X254318918Y-87343338D01*
X254318911Y-87343330D01*
X254156670Y-87181089D01*
X254156661Y-87181081D01*
X253974617Y-87041392D01*
X253775890Y-86926657D01*
X253775876Y-86926650D01*
X253563887Y-86838842D01*
X253558938Y-86837516D01*
X253342238Y-86779452D01*
X253304215Y-86774446D01*
X253114741Y-86749500D01*
X253114734Y-86749500D01*
X252885266Y-86749500D01*
X252885258Y-86749500D01*
X252668715Y-86778009D01*
X252657762Y-86779452D01*
X252564076Y-86804554D01*
X252436112Y-86838842D01*
X252224123Y-86926650D01*
X252224108Y-86926657D01*
X252048774Y-87027887D01*
X251986774Y-87044500D01*
X249013226Y-87044500D01*
X248951226Y-87027887D01*
X248775891Y-86926657D01*
X248775876Y-86926650D01*
X248563887Y-86838842D01*
X248558938Y-86837516D01*
X248342238Y-86779452D01*
X248304215Y-86774446D01*
X248114741Y-86749500D01*
X248114734Y-86749500D01*
X247885266Y-86749500D01*
X247885258Y-86749500D01*
X247668715Y-86778009D01*
X247657762Y-86779452D01*
X247564076Y-86804554D01*
X247436112Y-86838842D01*
X247224123Y-86926650D01*
X247224108Y-86926657D01*
X247048774Y-87027887D01*
X246986774Y-87044500D01*
X239013226Y-87044500D01*
X238951226Y-87027887D01*
X238775891Y-86926657D01*
X238775876Y-86926650D01*
X238563887Y-86838842D01*
X238558938Y-86837516D01*
X238342238Y-86779452D01*
X238304215Y-86774446D01*
X238114741Y-86749500D01*
X238114734Y-86749500D01*
X237885266Y-86749500D01*
X237885258Y-86749500D01*
X237668715Y-86778009D01*
X237657762Y-86779452D01*
X237564076Y-86804554D01*
X237436112Y-86838842D01*
X237224123Y-86926650D01*
X237224108Y-86926657D01*
X237048774Y-87027887D01*
X236986774Y-87044500D01*
X234783437Y-87044500D01*
X234716398Y-87024815D01*
X234684170Y-86994811D01*
X234607546Y-86892454D01*
X234534160Y-86837517D01*
X234492335Y-86806206D01*
X234492328Y-86806202D01*
X234357482Y-86755908D01*
X234357483Y-86755908D01*
X234297883Y-86749501D01*
X234297881Y-86749500D01*
X234297873Y-86749500D01*
X234297864Y-86749500D01*
X231702129Y-86749500D01*
X231702123Y-86749501D01*
X231642516Y-86755908D01*
X231507671Y-86806202D01*
X231507664Y-86806206D01*
X231392456Y-86892452D01*
X231392455Y-86892453D01*
X231392454Y-86892454D01*
X231315830Y-86994811D01*
X231259896Y-87036682D01*
X231216563Y-87044500D01*
X220224499Y-87044500D01*
X220157460Y-87024815D01*
X220111705Y-86972011D01*
X220100499Y-86920500D01*
X220100499Y-86897129D01*
X220100498Y-86897123D01*
X220100497Y-86897116D01*
X220095299Y-86848757D01*
X220094091Y-86837516D01*
X220043797Y-86702671D01*
X220043793Y-86702664D01*
X219957547Y-86587455D01*
X219957544Y-86587452D01*
X219842335Y-86501206D01*
X219842328Y-86501202D01*
X219707482Y-86450908D01*
X219707483Y-86450908D01*
X219647883Y-86444501D01*
X219647881Y-86444500D01*
X219647873Y-86444500D01*
X219647864Y-86444500D01*
X216352129Y-86444500D01*
X216352123Y-86444501D01*
X216292516Y-86450908D01*
X216157671Y-86501202D01*
X216157664Y-86501206D01*
X216042455Y-86587452D01*
X216042452Y-86587455D01*
X215956206Y-86702664D01*
X215956202Y-86702671D01*
X215905908Y-86837517D01*
X215900002Y-86892454D01*
X215899501Y-86897123D01*
X215899500Y-86897135D01*
X215899500Y-86920500D01*
X215879815Y-86987539D01*
X215827011Y-87033294D01*
X215775500Y-87044500D01*
X214016889Y-87044500D01*
X213949850Y-87024815D01*
X213929208Y-87008181D01*
X213068408Y-86147381D01*
X213051095Y-86125672D01*
X213032869Y-86096666D01*
X213031593Y-86094634D01*
X212905366Y-85968407D01*
X212905365Y-85968406D01*
X212754218Y-85873433D01*
X212588858Y-85815572D01*
X212588859Y-85815572D01*
X212585723Y-85814475D01*
X212585449Y-85814444D01*
X212580933Y-85812949D01*
X212575992Y-85810432D01*
X212427647Y-85762231D01*
X212427225Y-85762092D01*
X212424944Y-85760514D01*
X212378496Y-85732050D01*
X212000001Y-85353554D01*
X212000000Y-85353554D01*
X211621503Y-85732049D01*
X211610382Y-85738904D01*
X211604363Y-85746348D01*
X211573641Y-85761556D01*
X211572774Y-85762091D01*
X211572129Y-85762304D01*
X211424008Y-85810432D01*
X211419072Y-85812946D01*
X211414544Y-85814444D01*
X211414277Y-85814475D01*
X211411211Y-85815547D01*
X211411147Y-85815569D01*
X211245781Y-85873433D01*
X211094637Y-85968404D01*
X210999859Y-86063182D01*
X210938535Y-86096666D01*
X210912178Y-86099500D01*
X206418575Y-86099500D01*
X206351536Y-86079815D01*
X206330894Y-86063181D01*
X205173265Y-84905552D01*
X210800000Y-84905552D01*
X210800000Y-85094447D01*
X210829548Y-85281002D01*
X210887914Y-85460637D01*
X210973666Y-85628933D01*
X210992116Y-85654328D01*
X211646446Y-85000000D01*
X211646446Y-84999999D01*
X211606951Y-84960504D01*
X211700000Y-84960504D01*
X211700000Y-85039496D01*
X211720444Y-85115796D01*
X211759940Y-85184205D01*
X211815795Y-85240060D01*
X211884204Y-85279556D01*
X211960504Y-85300000D01*
X212039496Y-85300000D01*
X212115796Y-85279556D01*
X212184205Y-85240060D01*
X212240060Y-85184205D01*
X212279556Y-85115796D01*
X212300000Y-85039496D01*
X212300000Y-84999999D01*
X212353554Y-84999999D01*
X212353554Y-85000000D01*
X213007882Y-85654328D01*
X213007883Y-85654328D01*
X213026331Y-85628937D01*
X213112085Y-85460637D01*
X213170451Y-85281002D01*
X213200000Y-85094447D01*
X213200000Y-84905552D01*
X213170451Y-84718997D01*
X213112085Y-84539362D01*
X213026329Y-84371059D01*
X213007883Y-84345670D01*
X213007882Y-84345669D01*
X212353554Y-84999999D01*
X212300000Y-84999999D01*
X212300000Y-84960504D01*
X212279556Y-84884204D01*
X212240060Y-84815795D01*
X212184205Y-84759940D01*
X212115796Y-84720444D01*
X212039496Y-84700000D01*
X211960504Y-84700000D01*
X211884204Y-84720444D01*
X211815795Y-84759940D01*
X211759940Y-84815795D01*
X211720444Y-84884204D01*
X211700000Y-84960504D01*
X211606951Y-84960504D01*
X210992116Y-84345669D01*
X210992116Y-84345670D01*
X210973669Y-84371060D01*
X210887914Y-84539362D01*
X210829548Y-84718997D01*
X210800000Y-84905552D01*
X205173265Y-84905552D01*
X204259829Y-83992116D01*
X211345669Y-83992116D01*
X212000000Y-84646446D01*
X212000001Y-84646446D01*
X212654328Y-83992116D01*
X212628933Y-83973666D01*
X212460637Y-83887914D01*
X212281002Y-83829548D01*
X212094447Y-83800000D01*
X211905553Y-83800000D01*
X211718997Y-83829548D01*
X211539362Y-83887914D01*
X211371060Y-83973669D01*
X211345670Y-83992116D01*
X211345669Y-83992116D01*
X204259829Y-83992116D01*
X203595071Y-83327358D01*
X215900000Y-83327358D01*
X215900000Y-83602641D01*
X215935930Y-83875565D01*
X216007180Y-84141471D01*
X216112520Y-84395787D01*
X216112527Y-84395802D01*
X216250163Y-84634196D01*
X216348758Y-84762686D01*
X217227545Y-83883899D01*
X217320343Y-84022780D01*
X217442220Y-84144657D01*
X217581099Y-84237453D01*
X216702312Y-85116240D01*
X216830804Y-85214836D01*
X217069197Y-85352472D01*
X217069212Y-85352479D01*
X217323528Y-85457819D01*
X217589434Y-85529069D01*
X217862358Y-85565000D01*
X218137642Y-85565000D01*
X218410565Y-85529069D01*
X218676471Y-85457819D01*
X218930787Y-85352479D01*
X218930802Y-85352472D01*
X219169194Y-85214836D01*
X219169211Y-85214825D01*
X219297686Y-85116241D01*
X219297686Y-85116239D01*
X218418899Y-84237453D01*
X218557780Y-84144657D01*
X218679657Y-84022780D01*
X218772453Y-83883899D01*
X219651239Y-84762686D01*
X219651241Y-84762686D01*
X219749825Y-84634211D01*
X219749836Y-84634194D01*
X219887472Y-84395802D01*
X219887479Y-84395787D01*
X219992819Y-84141471D01*
X220064069Y-83875565D01*
X220100000Y-83602641D01*
X220100000Y-83327358D01*
X220064069Y-83054434D01*
X219992819Y-82788528D01*
X219887479Y-82534212D01*
X219887472Y-82534197D01*
X219749836Y-82295804D01*
X219651240Y-82167312D01*
X218772453Y-83046099D01*
X218679657Y-82907220D01*
X218557780Y-82785343D01*
X218418899Y-82692546D01*
X219297686Y-81813758D01*
X219169196Y-81715163D01*
X218930802Y-81577527D01*
X218930787Y-81577520D01*
X218676471Y-81472180D01*
X218410565Y-81400930D01*
X218137642Y-81365000D01*
X217862358Y-81365000D01*
X217589434Y-81400930D01*
X217323528Y-81472180D01*
X217069212Y-81577520D01*
X217069197Y-81577527D01*
X216830799Y-81715166D01*
X216702312Y-81813757D01*
X216702312Y-81813758D01*
X217581100Y-82692546D01*
X217442220Y-82785343D01*
X217320343Y-82907220D01*
X217227546Y-83046100D01*
X216348758Y-82167312D01*
X216348757Y-82167312D01*
X216250166Y-82295799D01*
X216112527Y-82534197D01*
X216112520Y-82534212D01*
X216007180Y-82788528D01*
X215935930Y-83054434D01*
X215900000Y-83327358D01*
X203595071Y-83327358D01*
X202217105Y-81949392D01*
X195182386Y-74914672D01*
X193721785Y-73454071D01*
X200400000Y-73454071D01*
X200400000Y-73705928D01*
X200439397Y-73954669D01*
X200517219Y-74194184D01*
X200631557Y-74418583D01*
X200705748Y-74520697D01*
X200705748Y-74520698D01*
X201476212Y-73750234D01*
X201487482Y-73792292D01*
X201559890Y-73917708D01*
X201662292Y-74020110D01*
X201787708Y-74092518D01*
X201829765Y-74103787D01*
X201059300Y-74874250D01*
X201161416Y-74948442D01*
X201385815Y-75062780D01*
X201625330Y-75140602D01*
X201874072Y-75180000D01*
X202125928Y-75180000D01*
X202374669Y-75140602D01*
X202614184Y-75062780D01*
X202838575Y-74948446D01*
X202838581Y-74948442D01*
X202940697Y-74874250D01*
X202940698Y-74874250D01*
X202170234Y-74103787D01*
X202212292Y-74092518D01*
X202337708Y-74020110D01*
X202440110Y-73917708D01*
X202512518Y-73792292D01*
X202523787Y-73750235D01*
X203294250Y-74520698D01*
X203294250Y-74520697D01*
X203368442Y-74418581D01*
X203368446Y-74418575D01*
X203482780Y-74194184D01*
X203560602Y-73954669D01*
X203600000Y-73705928D01*
X203600000Y-73454071D01*
X203560602Y-73205330D01*
X203482780Y-72965815D01*
X203368442Y-72741416D01*
X203294250Y-72639301D01*
X203294250Y-72639300D01*
X202523787Y-73409764D01*
X202512518Y-73367708D01*
X202440110Y-73242292D01*
X202337708Y-73139890D01*
X202212292Y-73067482D01*
X202170232Y-73056212D01*
X202940698Y-72285748D01*
X202838583Y-72211557D01*
X202614184Y-72097219D01*
X202374669Y-72019397D01*
X202125928Y-71980000D01*
X201874072Y-71980000D01*
X201625330Y-72019397D01*
X201385815Y-72097219D01*
X201161413Y-72211559D01*
X201059301Y-72285747D01*
X201059300Y-72285748D01*
X201829765Y-73056212D01*
X201787708Y-73067482D01*
X201662292Y-73139890D01*
X201559890Y-73242292D01*
X201487482Y-73367708D01*
X201476212Y-73409765D01*
X200705748Y-72639300D01*
X200705747Y-72639301D01*
X200631559Y-72741413D01*
X200517219Y-72965815D01*
X200439397Y-73205330D01*
X200400000Y-73454071D01*
X193721785Y-73454071D01*
X185568251Y-65300537D01*
X185493363Y-65250499D01*
X185420757Y-65201985D01*
X185420755Y-65201984D01*
X185330562Y-65164626D01*
X185256879Y-65134105D01*
X185256871Y-65134103D01*
X185082909Y-65099500D01*
X185082905Y-65099500D01*
X185082904Y-65099500D01*
X184843649Y-65099500D01*
X184776610Y-65079815D01*
X184743332Y-65048387D01*
X184724517Y-65022490D01*
X184557510Y-64855483D01*
X184366433Y-64716657D01*
X184157506Y-64610203D01*
X184106711Y-64562229D01*
X184089916Y-64494408D01*
X184112453Y-64428274D01*
X184157507Y-64389234D01*
X184366163Y-64282918D01*
X184366169Y-64282914D01*
X184449104Y-64222658D01*
X184449105Y-64222658D01*
X183626446Y-63400000D01*
X183632661Y-63400000D01*
X183734394Y-63372741D01*
X183825606Y-63320080D01*
X183900080Y-63245606D01*
X183952741Y-63154394D01*
X183980000Y-63052661D01*
X183980000Y-63046447D01*
X184802658Y-63869105D01*
X184802658Y-63869104D01*
X184862914Y-63786169D01*
X184862918Y-63786163D01*
X184970102Y-63575802D01*
X185043065Y-63351247D01*
X185080000Y-63118052D01*
X185080000Y-62881947D01*
X185043065Y-62648752D01*
X184970102Y-62424197D01*
X184862914Y-62213828D01*
X184802658Y-62130894D01*
X184802658Y-62130893D01*
X183980000Y-62953552D01*
X183980000Y-62947339D01*
X183952741Y-62845606D01*
X183900080Y-62754394D01*
X183825606Y-62679920D01*
X183734394Y-62627259D01*
X183632661Y-62600000D01*
X183626447Y-62600000D01*
X184449105Y-61777340D01*
X184449104Y-61777338D01*
X184366174Y-61717087D01*
X184155802Y-61609897D01*
X183931247Y-61536934D01*
X183931248Y-61536934D01*
X183698052Y-61500000D01*
X183461948Y-61500000D01*
X183228752Y-61536934D01*
X183004197Y-61609897D01*
X182793830Y-61717084D01*
X182710894Y-61777340D01*
X183533554Y-62600000D01*
X183527339Y-62600000D01*
X183425606Y-62627259D01*
X183334394Y-62679920D01*
X183259920Y-62754394D01*
X183207259Y-62845606D01*
X183180000Y-62947339D01*
X183180000Y-62953554D01*
X182357340Y-62130894D01*
X182297084Y-62213830D01*
X182189897Y-62424197D01*
X182116934Y-62648752D01*
X182080000Y-62881947D01*
X182080000Y-62927138D01*
X182060315Y-62994177D01*
X182007511Y-63039932D01*
X181938353Y-63049876D01*
X181874797Y-63020851D01*
X181868319Y-63014819D01*
X178953844Y-60100344D01*
X178920359Y-60039021D01*
X178923593Y-59974347D01*
X178963553Y-59851368D01*
X178984729Y-59717669D01*
X179000500Y-59618097D01*
X179000500Y-59381902D01*
X178963553Y-59148631D01*
X178905696Y-58970568D01*
X178890568Y-58924008D01*
X178890566Y-58924005D01*
X178890566Y-58924003D01*
X178834002Y-58812991D01*
X178783343Y-58713567D01*
X178644517Y-58522490D01*
X178477510Y-58355483D01*
X178286433Y-58216657D01*
X178227610Y-58186685D01*
X178075996Y-58109433D01*
X177851368Y-58036446D01*
X177618097Y-57999500D01*
X177618092Y-57999500D01*
X177381908Y-57999500D01*
X177381903Y-57999500D01*
X177148631Y-58036446D01*
X176924003Y-58109433D01*
X176713564Y-58216658D01*
X176696383Y-58229141D01*
X176630576Y-58252619D01*
X176562523Y-58236792D01*
X176513829Y-58186685D01*
X176499500Y-58128821D01*
X176499500Y-55383359D01*
X176519185Y-55316320D01*
X176571989Y-55270565D01*
X176641147Y-55260621D01*
X176704703Y-55289646D01*
X176723818Y-55310474D01*
X176812137Y-55432035D01*
X176812142Y-55432041D01*
X176967958Y-55587857D01*
X177146239Y-55717386D01*
X177342589Y-55817432D01*
X177552163Y-55885526D01*
X177629999Y-55897854D01*
X177630000Y-55897854D01*
X177630000Y-54435686D01*
X177634394Y-54440080D01*
X177725606Y-54492741D01*
X177827339Y-54520000D01*
X177932661Y-54520000D01*
X178034394Y-54492741D01*
X178125606Y-54440080D01*
X178130000Y-54435686D01*
X178130000Y-55897854D01*
X178207834Y-55885526D01*
X178207837Y-55885526D01*
X178417410Y-55817432D01*
X178613760Y-55717386D01*
X178792041Y-55587857D01*
X178947857Y-55432041D01*
X178947862Y-55432035D01*
X179049372Y-55292319D01*
X179104702Y-55249653D01*
X179174315Y-55243674D01*
X179236110Y-55276279D01*
X179250008Y-55292319D01*
X179351752Y-55432358D01*
X179351756Y-55432363D01*
X179507636Y-55588243D01*
X179507641Y-55588247D01*
X179614981Y-55666233D01*
X179685978Y-55717815D01*
X179814375Y-55783237D01*
X179882393Y-55817895D01*
X179882396Y-55817896D01*
X179987221Y-55851955D01*
X180092049Y-55886015D01*
X180309778Y-55920500D01*
X180309779Y-55920500D01*
X180530221Y-55920500D01*
X180530222Y-55920500D01*
X180747951Y-55886015D01*
X180957606Y-55817895D01*
X181154022Y-55717815D01*
X181332365Y-55588242D01*
X181488242Y-55432365D01*
X181536144Y-55366433D01*
X181589682Y-55292745D01*
X181645011Y-55250079D01*
X181714625Y-55244100D01*
X181776420Y-55276705D01*
X181790318Y-55292745D01*
X181891752Y-55432358D01*
X181891756Y-55432363D01*
X182047636Y-55588243D01*
X182047641Y-55588247D01*
X182154981Y-55666233D01*
X182225978Y-55717815D01*
X182354375Y-55783237D01*
X182422393Y-55817895D01*
X182422396Y-55817896D01*
X182527221Y-55851955D01*
X182632049Y-55886015D01*
X182849778Y-55920500D01*
X182849779Y-55920500D01*
X183070221Y-55920500D01*
X183070222Y-55920500D01*
X183287951Y-55886015D01*
X183497606Y-55817895D01*
X183694022Y-55717815D01*
X183872365Y-55588242D01*
X184028242Y-55432365D01*
X184076144Y-55366433D01*
X184129682Y-55292745D01*
X184185011Y-55250079D01*
X184254625Y-55244100D01*
X184316420Y-55276705D01*
X184330318Y-55292745D01*
X184431752Y-55432358D01*
X184431756Y-55432363D01*
X184587636Y-55588243D01*
X184587641Y-55588247D01*
X184694981Y-55666233D01*
X184765978Y-55717815D01*
X184894375Y-55783237D01*
X184962393Y-55817895D01*
X184962396Y-55817896D01*
X185067221Y-55851955D01*
X185172049Y-55886015D01*
X185389778Y-55920500D01*
X185389779Y-55920500D01*
X185610221Y-55920500D01*
X185610222Y-55920500D01*
X185827951Y-55886015D01*
X186037606Y-55817895D01*
X186234022Y-55717815D01*
X186412365Y-55588242D01*
X186568242Y-55432365D01*
X186697815Y-55254022D01*
X186795042Y-55063204D01*
X186843017Y-55012409D01*
X186905527Y-54995500D01*
X187493237Y-54995500D01*
X187560276Y-55015185D01*
X187606031Y-55067989D01*
X187607800Y-55072052D01*
X187609431Y-55075991D01*
X187694870Y-55243674D01*
X187716657Y-55286433D01*
X187855483Y-55477510D01*
X188022490Y-55644517D01*
X188213567Y-55783343D01*
X188281379Y-55817895D01*
X188424003Y-55890566D01*
X188424005Y-55890566D01*
X188424008Y-55890568D01*
X188464569Y-55903747D01*
X188648631Y-55963553D01*
X188881903Y-56000500D01*
X188881908Y-56000500D01*
X189118096Y-56000500D01*
X189180227Y-55990659D01*
X189249521Y-55999613D01*
X189287307Y-56025451D01*
X193168181Y-59906325D01*
X193201666Y-59967648D01*
X193204500Y-59994006D01*
X193204500Y-67718187D01*
X193184815Y-67785226D01*
X193153386Y-67818505D01*
X193102488Y-67855484D01*
X192935485Y-68022487D01*
X192935485Y-68022488D01*
X192935483Y-68022490D01*
X192924381Y-68037771D01*
X192796657Y-68213566D01*
X192689433Y-68424003D01*
X192616446Y-68648631D01*
X192579500Y-68881902D01*
X192579500Y-69118097D01*
X192616446Y-69351368D01*
X192689433Y-69575996D01*
X192734096Y-69663651D01*
X192796657Y-69786433D01*
X192935483Y-69977510D01*
X193102490Y-70144517D01*
X193293567Y-70283343D01*
X193365420Y-70319954D01*
X193504003Y-70390566D01*
X193504005Y-70390566D01*
X193504008Y-70390568D01*
X193594498Y-70419970D01*
X193728631Y-70463553D01*
X193961903Y-70500500D01*
X193961908Y-70500500D01*
X194198097Y-70500500D01*
X194431368Y-70463553D01*
X194492881Y-70443566D01*
X194655992Y-70390568D01*
X194866433Y-70283343D01*
X195057510Y-70144517D01*
X195224517Y-69977510D01*
X195363343Y-69786433D01*
X195470568Y-69575992D01*
X195543553Y-69351368D01*
X195553687Y-69287386D01*
X195580500Y-69118097D01*
X195580500Y-68881902D01*
X195543553Y-68648631D01*
X195470566Y-68424003D01*
X195363342Y-68213566D01*
X195224517Y-68022490D01*
X195057510Y-67855483D01*
X195006613Y-67818504D01*
X194963949Y-67763174D01*
X194955500Y-67718187D01*
X194955500Y-59493768D01*
X194955499Y-59493766D01*
X194952752Y-59479955D01*
X194921855Y-59324626D01*
X194877133Y-59216657D01*
X194855861Y-59165301D01*
X194855854Y-59165288D01*
X194760046Y-59021902D01*
X194701697Y-58963553D01*
X194638099Y-58899955D01*
X190525451Y-54787307D01*
X190491966Y-54725984D01*
X190490659Y-54680227D01*
X190500500Y-54618096D01*
X190500500Y-54381947D01*
X192500000Y-54381947D01*
X192500000Y-54618052D01*
X192536934Y-54851247D01*
X192609897Y-55075802D01*
X192717087Y-55286174D01*
X192777338Y-55369104D01*
X192777340Y-55369105D01*
X193600000Y-54546445D01*
X193600000Y-54552661D01*
X193627259Y-54654394D01*
X193679920Y-54745606D01*
X193754394Y-54820080D01*
X193845606Y-54872741D01*
X193947339Y-54900000D01*
X193953554Y-54900000D01*
X193130893Y-55722658D01*
X193213828Y-55782914D01*
X193424197Y-55890102D01*
X193648752Y-55963065D01*
X193648751Y-55963065D01*
X193881948Y-56000000D01*
X194118052Y-56000000D01*
X194351247Y-55963065D01*
X194575802Y-55890102D01*
X194786163Y-55782918D01*
X194786169Y-55782914D01*
X194869104Y-55722658D01*
X194869105Y-55722658D01*
X194046446Y-54900000D01*
X194052661Y-54900000D01*
X194154394Y-54872741D01*
X194245606Y-54820080D01*
X194320080Y-54745606D01*
X194372741Y-54654394D01*
X194400000Y-54552661D01*
X194400000Y-54546447D01*
X195222658Y-55369105D01*
X195222658Y-55369104D01*
X195282914Y-55286169D01*
X195282918Y-55286163D01*
X195390102Y-55075802D01*
X195463065Y-54851247D01*
X195500000Y-54618052D01*
X195500000Y-54381947D01*
X195463065Y-54148752D01*
X195390102Y-53924197D01*
X195282914Y-53713828D01*
X195222658Y-53630894D01*
X195222658Y-53630893D01*
X194400000Y-54453552D01*
X194400000Y-54447339D01*
X194372741Y-54345606D01*
X194320080Y-54254394D01*
X194245606Y-54179920D01*
X194154394Y-54127259D01*
X194052661Y-54100000D01*
X194046447Y-54100000D01*
X194869105Y-53277340D01*
X194869104Y-53277338D01*
X194786174Y-53217087D01*
X194575802Y-53109897D01*
X194351247Y-53036934D01*
X194351248Y-53036934D01*
X194118052Y-53000000D01*
X193881948Y-53000000D01*
X193648752Y-53036934D01*
X193424197Y-53109897D01*
X193213830Y-53217084D01*
X193130894Y-53277340D01*
X193953554Y-54100000D01*
X193947339Y-54100000D01*
X193845606Y-54127259D01*
X193754394Y-54179920D01*
X193679920Y-54254394D01*
X193627259Y-54345606D01*
X193600000Y-54447339D01*
X193600000Y-54453553D01*
X192777340Y-53630894D01*
X192717084Y-53713830D01*
X192609897Y-53924197D01*
X192536934Y-54148752D01*
X192500000Y-54381947D01*
X190500500Y-54381947D01*
X190500500Y-54381902D01*
X190463553Y-54148631D01*
X190416560Y-54004003D01*
X190390568Y-53924008D01*
X190390566Y-53924005D01*
X190390566Y-53924003D01*
X190324105Y-53793567D01*
X190283343Y-53713567D01*
X190144517Y-53522490D01*
X189977510Y-53355483D01*
X189786433Y-53216657D01*
X189719571Y-53182589D01*
X189575996Y-53109433D01*
X189351368Y-53036446D01*
X189118097Y-52999500D01*
X189118092Y-52999500D01*
X188881908Y-52999500D01*
X188881903Y-52999500D01*
X188648631Y-53036446D01*
X188424003Y-53109433D01*
X188213574Y-53216653D01*
X188213570Y-53216655D01*
X188213567Y-53216657D01*
X188213563Y-53216660D01*
X188207839Y-53220819D01*
X188187794Y-53227970D01*
X188169890Y-53239477D01*
X188145860Y-53242931D01*
X188142032Y-53244298D01*
X188134955Y-53244500D01*
X187913006Y-53244500D01*
X187845967Y-53224815D01*
X187800212Y-53172011D01*
X187790268Y-53102853D01*
X187819293Y-53039297D01*
X187825325Y-53032819D01*
X188812531Y-52045613D01*
X192955492Y-47902650D01*
X193016813Y-47869167D01*
X193086505Y-47874151D01*
X193142438Y-47916023D01*
X193166855Y-47981487D01*
X193161102Y-48028650D01*
X193114474Y-48172157D01*
X193114473Y-48172164D01*
X193102145Y-48250000D01*
X194564314Y-48250000D01*
X194559920Y-48254394D01*
X194507259Y-48345606D01*
X194480000Y-48447339D01*
X194480000Y-48552661D01*
X194507259Y-48654394D01*
X194559920Y-48745606D01*
X194564314Y-48750000D01*
X193102145Y-48750000D01*
X193114473Y-48827835D01*
X193114473Y-48827838D01*
X193182567Y-49037410D01*
X193282613Y-49233760D01*
X193412142Y-49412041D01*
X193567958Y-49567857D01*
X193746239Y-49697386D01*
X193942589Y-49797432D01*
X194152164Y-49865526D01*
X194369819Y-49900000D01*
X194630000Y-49900000D01*
X194630000Y-48815686D01*
X194634394Y-48820080D01*
X194725606Y-48872741D01*
X194827339Y-48900000D01*
X194932661Y-48900000D01*
X195034394Y-48872741D01*
X195125606Y-48820080D01*
X195130000Y-48815686D01*
X195130000Y-49900000D01*
X195390181Y-49900000D01*
X195607835Y-49865526D01*
X195817410Y-49797432D01*
X196013760Y-49697386D01*
X196192041Y-49567857D01*
X196347857Y-49412041D01*
X196477386Y-49233760D01*
X196577432Y-49037410D01*
X196645526Y-48827838D01*
X196645526Y-48827835D01*
X196657855Y-48750000D01*
X195195686Y-48750000D01*
X195200080Y-48745606D01*
X195252741Y-48654394D01*
X195280000Y-48552661D01*
X195280000Y-48447339D01*
X195252741Y-48345606D01*
X195200080Y-48254394D01*
X195195686Y-48250000D01*
X196657855Y-48250000D01*
X196645526Y-48172164D01*
X196645526Y-48172161D01*
X196577432Y-47962589D01*
X196477386Y-47766239D01*
X196347857Y-47587958D01*
X196192041Y-47432142D01*
X196052318Y-47330627D01*
X196009653Y-47275297D01*
X196003674Y-47205684D01*
X196036280Y-47143889D01*
X196052313Y-47129994D01*
X196192365Y-47028242D01*
X196348242Y-46872365D01*
X196427529Y-46763233D01*
X196458957Y-46733017D01*
X196518788Y-46693039D01*
X196598099Y-46640045D01*
X197611045Y-45627099D01*
X197706858Y-45483705D01*
X197772855Y-45324374D01*
X197806500Y-45155229D01*
X197806500Y-44982771D01*
X197806500Y-42844771D01*
X197806500Y-42844768D01*
X197806499Y-42844766D01*
X197780228Y-42712692D01*
X197772855Y-42675626D01*
X197733453Y-42580500D01*
X197706861Y-42516301D01*
X197706854Y-42516288D01*
X197611046Y-42372902D01*
X197558410Y-42320266D01*
X197489099Y-42250955D01*
X196716819Y-41478675D01*
X196683334Y-41417352D01*
X196680500Y-41390994D01*
X196680500Y-40217341D01*
X196680499Y-40217337D01*
X196680422Y-40216657D01*
X196670349Y-40127248D01*
X196665724Y-40086198D01*
X196665723Y-40086193D01*
X196635388Y-39999500D01*
X196607540Y-39919915D01*
X196604070Y-39914393D01*
X196513814Y-39770752D01*
X196389247Y-39646185D01*
X196240086Y-39552460D01*
X196073806Y-39494276D01*
X196073801Y-39494275D01*
X195942662Y-39479500D01*
X195942656Y-39479500D01*
X194769006Y-39479500D01*
X194701967Y-39459815D01*
X194681325Y-39443181D01*
X194021819Y-38783675D01*
X193988334Y-38722352D01*
X193985500Y-38695994D01*
X193985500Y-37571902D01*
X196189500Y-37571902D01*
X196189500Y-37808097D01*
X196226446Y-38041368D01*
X196299433Y-38265996D01*
X196367712Y-38400000D01*
X196406657Y-38476433D01*
X196545483Y-38667510D01*
X196712490Y-38834517D01*
X196903567Y-38973343D01*
X196979061Y-39011809D01*
X197114003Y-39080566D01*
X197114005Y-39080566D01*
X197114008Y-39080568D01*
X197222447Y-39115802D01*
X197338631Y-39153553D01*
X197571903Y-39190500D01*
X197571908Y-39190500D01*
X197808096Y-39190500D01*
X197870227Y-39180659D01*
X197939521Y-39189613D01*
X197977307Y-39215451D01*
X199088181Y-40326325D01*
X199121666Y-40387648D01*
X199124500Y-40414006D01*
X199124500Y-44086233D01*
X199158143Y-44255366D01*
X199158146Y-44255378D01*
X199224138Y-44414698D01*
X199224145Y-44414711D01*
X199319954Y-44558098D01*
X199319957Y-44558102D01*
X200663181Y-45901325D01*
X200696666Y-45962648D01*
X200699500Y-45989006D01*
X200699500Y-46070222D01*
X200702557Y-46089521D01*
X200733985Y-46287954D01*
X200759530Y-46366576D01*
X200761525Y-46436418D01*
X200729280Y-46492574D01*
X200098514Y-47123342D01*
X199890901Y-47330955D01*
X199856406Y-47365450D01*
X199768953Y-47452902D01*
X199673145Y-47596288D01*
X199673138Y-47596301D01*
X199607146Y-47755621D01*
X199607143Y-47755633D01*
X199573500Y-47924766D01*
X199573500Y-61955233D01*
X199607143Y-62124366D01*
X199607146Y-62124378D01*
X199673138Y-62283698D01*
X199673145Y-62283711D01*
X199768954Y-62427098D01*
X199768957Y-62427102D01*
X200363181Y-63021325D01*
X200396666Y-63082648D01*
X200399500Y-63109006D01*
X200399500Y-64320017D01*
X200410000Y-64422796D01*
X200442133Y-64519767D01*
X200465186Y-64589335D01*
X200557288Y-64738656D01*
X200681344Y-64862712D01*
X200830665Y-64954814D01*
X200997202Y-65009999D01*
X201099990Y-65020500D01*
X201099995Y-65020500D01*
X202900005Y-65020500D01*
X202900010Y-65020500D01*
X203002798Y-65009999D01*
X203012470Y-65006793D01*
X203051473Y-65000500D01*
X205607775Y-65000500D01*
X205674814Y-65020185D01*
X205720569Y-65072989D01*
X205730513Y-65142147D01*
X205708093Y-65197385D01*
X205667087Y-65253825D01*
X205559897Y-65464197D01*
X205486934Y-65688752D01*
X205470898Y-65790000D01*
X206559252Y-65790000D01*
X206537482Y-65827708D01*
X206500000Y-65967591D01*
X206500000Y-66112409D01*
X206537482Y-66252292D01*
X206559252Y-66290000D01*
X205470898Y-66290000D01*
X205486934Y-66391247D01*
X205559897Y-66615802D01*
X205667085Y-66826171D01*
X205805866Y-67017186D01*
X205972813Y-67184133D01*
X206163828Y-67322914D01*
X206374197Y-67430102D01*
X206598752Y-67503065D01*
X206800000Y-67534940D01*
X206800000Y-66530747D01*
X206837708Y-66552518D01*
X206977591Y-66590000D01*
X207122409Y-66590000D01*
X207262292Y-66552518D01*
X207300000Y-66530747D01*
X207300000Y-67534939D01*
X207501247Y-67503065D01*
X207725802Y-67430102D01*
X207936171Y-67322914D01*
X208127186Y-67184133D01*
X208294133Y-67017186D01*
X208432914Y-66826171D01*
X208540102Y-66615802D01*
X208613065Y-66391247D01*
X208629102Y-66290000D01*
X207540748Y-66290000D01*
X207562518Y-66252292D01*
X207600000Y-66112409D01*
X207600000Y-65967591D01*
X207562518Y-65827708D01*
X207540748Y-65790000D01*
X208629102Y-65790000D01*
X208613065Y-65688752D01*
X208540102Y-65464197D01*
X208432914Y-65253828D01*
X208407164Y-65218386D01*
X208383684Y-65152579D01*
X208399509Y-65084525D01*
X208449615Y-65035830D01*
X208507482Y-65021500D01*
X215375500Y-65021500D01*
X215442539Y-65041185D01*
X215488294Y-65093989D01*
X215499500Y-65145500D01*
X215499500Y-65907110D01*
X215479815Y-65974149D01*
X215463181Y-65994791D01*
X211849747Y-69608224D01*
X211818362Y-69631027D01*
X211661153Y-69711130D01*
X211457350Y-69859201D01*
X211457345Y-69859205D01*
X211279205Y-70037345D01*
X211279201Y-70037350D01*
X211131132Y-70241151D01*
X211016760Y-70465616D01*
X210955548Y-70654008D01*
X210938910Y-70705215D01*
X210899500Y-70954038D01*
X210899500Y-71205962D01*
X210911935Y-71284473D01*
X210938910Y-71454785D01*
X211016760Y-71694383D01*
X211091901Y-71841853D01*
X211128735Y-71914145D01*
X211131132Y-71918848D01*
X211279201Y-72122649D01*
X211279205Y-72122654D01*
X211457345Y-72300794D01*
X211457350Y-72300798D01*
X211635117Y-72429952D01*
X211661155Y-72448870D01*
X211787689Y-72513342D01*
X211885616Y-72563239D01*
X211885618Y-72563239D01*
X211885621Y-72563241D01*
X212125215Y-72641090D01*
X212374038Y-72680500D01*
X212374039Y-72680500D01*
X212625961Y-72680500D01*
X212625962Y-72680500D01*
X212874785Y-72641090D01*
X213114379Y-72563241D01*
X213338845Y-72448870D01*
X213542656Y-72300793D01*
X213720793Y-72122656D01*
X213868870Y-71918845D01*
X213948971Y-71761634D01*
X213971770Y-71730255D01*
X218144517Y-67557510D01*
X218283343Y-67366434D01*
X218390568Y-67155992D01*
X218463553Y-66931368D01*
X218475861Y-66853659D01*
X218500500Y-66698097D01*
X218500500Y-65124500D01*
X218520185Y-65057461D01*
X218572989Y-65011706D01*
X218624500Y-65000500D01*
X232064717Y-65000500D01*
X232126716Y-65017112D01*
X232224112Y-65073344D01*
X232224117Y-65073346D01*
X232224123Y-65073349D01*
X232273953Y-65093989D01*
X232436113Y-65161158D01*
X232657762Y-65220548D01*
X232885266Y-65250500D01*
X232885273Y-65250500D01*
X233114727Y-65250500D01*
X233114734Y-65250500D01*
X233342238Y-65220548D01*
X233563887Y-65161158D01*
X233775888Y-65073344D01*
X233873283Y-65017112D01*
X233935283Y-65000500D01*
X237064717Y-65000500D01*
X237126716Y-65017112D01*
X237224112Y-65073344D01*
X237224117Y-65073346D01*
X237224123Y-65073349D01*
X237273953Y-65093989D01*
X237436113Y-65161158D01*
X237657762Y-65220548D01*
X237885266Y-65250500D01*
X237885273Y-65250500D01*
X238114727Y-65250500D01*
X238114734Y-65250500D01*
X238342238Y-65220548D01*
X238563887Y-65161158D01*
X238775888Y-65073344D01*
X238873283Y-65017112D01*
X238935283Y-65000500D01*
X242064717Y-65000500D01*
X242126716Y-65017112D01*
X242224112Y-65073344D01*
X242224117Y-65073346D01*
X242224123Y-65073349D01*
X242273953Y-65093989D01*
X242436113Y-65161158D01*
X242657762Y-65220548D01*
X242885266Y-65250500D01*
X242885273Y-65250500D01*
X243114727Y-65250500D01*
X243114734Y-65250500D01*
X243342238Y-65220548D01*
X243563887Y-65161158D01*
X243775888Y-65073344D01*
X243873283Y-65017112D01*
X243935283Y-65000500D01*
X247064717Y-65000500D01*
X247126716Y-65017112D01*
X247224112Y-65073344D01*
X247224117Y-65073346D01*
X247224123Y-65073349D01*
X247273953Y-65093989D01*
X247436113Y-65161158D01*
X247657762Y-65220548D01*
X247885266Y-65250500D01*
X247885273Y-65250500D01*
X248114727Y-65250500D01*
X248114734Y-65250500D01*
X248342238Y-65220548D01*
X248563887Y-65161158D01*
X248775888Y-65073344D01*
X248873283Y-65017112D01*
X248935283Y-65000500D01*
X252064717Y-65000500D01*
X252126716Y-65017112D01*
X252224112Y-65073344D01*
X252224117Y-65073346D01*
X252224123Y-65073349D01*
X252273953Y-65093989D01*
X252436113Y-65161158D01*
X252657762Y-65220548D01*
X252885266Y-65250500D01*
X252885273Y-65250500D01*
X253114727Y-65250500D01*
X253114734Y-65250500D01*
X253342238Y-65220548D01*
X253563887Y-65161158D01*
X253775888Y-65073344D01*
X253974612Y-64958611D01*
X254156661Y-64818919D01*
X254156665Y-64818914D01*
X254156670Y-64818911D01*
X254318911Y-64656670D01*
X254318914Y-64656665D01*
X254318919Y-64656661D01*
X254458611Y-64474612D01*
X254573344Y-64275888D01*
X254661158Y-64063887D01*
X254720548Y-63842238D01*
X254750500Y-63614734D01*
X254750500Y-63385266D01*
X254720548Y-63157762D01*
X254661158Y-62936113D01*
X254611190Y-62815480D01*
X254573349Y-62724123D01*
X254573346Y-62724117D01*
X254573344Y-62724112D01*
X254458611Y-62525388D01*
X254458608Y-62525385D01*
X254458607Y-62525382D01*
X254318918Y-62343338D01*
X254318911Y-62343330D01*
X254156670Y-62181089D01*
X254156661Y-62181081D01*
X253974617Y-62041392D01*
X253775890Y-61926657D01*
X253775876Y-61926650D01*
X253563887Y-61838842D01*
X253342238Y-61779452D01*
X253304215Y-61774446D01*
X253114741Y-61749500D01*
X253114734Y-61749500D01*
X252885266Y-61749500D01*
X252885258Y-61749500D01*
X252673819Y-61777338D01*
X252657762Y-61779452D01*
X252571319Y-61802614D01*
X252436112Y-61838842D01*
X252224123Y-61926650D01*
X252224109Y-61926657D01*
X252174615Y-61955233D01*
X252136415Y-61977288D01*
X252126717Y-61982887D01*
X252064717Y-61999500D01*
X248935283Y-61999500D01*
X248873283Y-61982887D01*
X248863585Y-61977288D01*
X248775888Y-61926656D01*
X248775876Y-61926650D01*
X248563887Y-61838842D01*
X248342238Y-61779452D01*
X248304215Y-61774446D01*
X248114741Y-61749500D01*
X248114734Y-61749500D01*
X247885266Y-61749500D01*
X247885258Y-61749500D01*
X247673819Y-61777338D01*
X247657762Y-61779452D01*
X247571319Y-61802614D01*
X247436112Y-61838842D01*
X247224123Y-61926650D01*
X247224109Y-61926657D01*
X247174615Y-61955233D01*
X247136415Y-61977288D01*
X247126717Y-61982887D01*
X247064717Y-61999500D01*
X243935283Y-61999500D01*
X243873283Y-61982887D01*
X243863585Y-61977288D01*
X243775888Y-61926656D01*
X243775876Y-61926650D01*
X243563887Y-61838842D01*
X243342238Y-61779452D01*
X243304215Y-61774446D01*
X243114741Y-61749500D01*
X243114734Y-61749500D01*
X242885266Y-61749500D01*
X242885258Y-61749500D01*
X242673819Y-61777338D01*
X242657762Y-61779452D01*
X242571319Y-61802614D01*
X242436112Y-61838842D01*
X242224123Y-61926650D01*
X242224109Y-61926657D01*
X242174615Y-61955233D01*
X242136415Y-61977288D01*
X242126717Y-61982887D01*
X242064717Y-61999500D01*
X238935283Y-61999500D01*
X238873283Y-61982887D01*
X238863585Y-61977288D01*
X238775888Y-61926656D01*
X238775876Y-61926650D01*
X238563887Y-61838842D01*
X238342238Y-61779452D01*
X238304215Y-61774446D01*
X238114741Y-61749500D01*
X238114734Y-61749500D01*
X237885266Y-61749500D01*
X237885258Y-61749500D01*
X237673819Y-61777338D01*
X237657762Y-61779452D01*
X237571319Y-61802614D01*
X237436112Y-61838842D01*
X237224123Y-61926650D01*
X237224109Y-61926657D01*
X237174615Y-61955233D01*
X237136415Y-61977288D01*
X237126717Y-61982887D01*
X237064717Y-61999500D01*
X233935283Y-61999500D01*
X233873283Y-61982887D01*
X233863585Y-61977288D01*
X233775888Y-61926656D01*
X233775876Y-61926650D01*
X233563887Y-61838842D01*
X233342238Y-61779452D01*
X233304215Y-61774446D01*
X233114741Y-61749500D01*
X233114734Y-61749500D01*
X232885266Y-61749500D01*
X232885258Y-61749500D01*
X232673819Y-61777338D01*
X232657762Y-61779452D01*
X232571319Y-61802614D01*
X232436112Y-61838842D01*
X232224123Y-61926650D01*
X232224109Y-61926657D01*
X232174615Y-61955233D01*
X232136415Y-61977288D01*
X232126717Y-61982887D01*
X232064717Y-61999500D01*
X220915508Y-61999500D01*
X220848469Y-61979815D01*
X220802714Y-61927011D01*
X220792770Y-61857853D01*
X220815190Y-61802614D01*
X220829607Y-61782771D01*
X220884343Y-61707434D01*
X220991568Y-61496992D01*
X221022920Y-61400500D01*
X221064553Y-61272368D01*
X221080973Y-61168689D01*
X221101500Y-61039097D01*
X221101500Y-35447902D01*
X221076556Y-35290416D01*
X221064553Y-35214632D01*
X221064552Y-35214628D01*
X221064552Y-35214627D01*
X220991570Y-34990013D01*
X220991568Y-34990010D01*
X220991568Y-34990008D01*
X220961513Y-34931021D01*
X220884343Y-34779566D01*
X220745517Y-34588490D01*
X219171819Y-33014792D01*
X219138334Y-32953469D01*
X219135500Y-32927111D01*
X219135500Y-32862332D01*
X219135500Y-32862326D01*
X219099560Y-32589334D01*
X219028295Y-32323368D01*
X218922923Y-32068979D01*
X218922921Y-32068976D01*
X218922919Y-32068971D01*
X218852694Y-31947339D01*
X218785249Y-31830521D01*
X218634121Y-31633566D01*
X218617629Y-31612073D01*
X218617623Y-31612066D01*
X218422933Y-31417376D01*
X218422926Y-31417370D01*
X218204483Y-31249754D01*
X218204482Y-31249753D01*
X218204479Y-31249751D01*
X218109407Y-31194861D01*
X217966028Y-31112080D01*
X217966017Y-31112075D01*
X217711630Y-31006704D01*
X217524819Y-30956649D01*
X217445666Y-30935440D01*
X217445660Y-30935439D01*
X217445655Y-30935438D01*
X217172684Y-30899501D01*
X217172679Y-30899500D01*
X217172674Y-30899500D01*
X216897326Y-30899500D01*
X216897320Y-30899500D01*
X216897315Y-30899501D01*
X216624344Y-30935438D01*
X216624337Y-30935439D01*
X216624334Y-30935440D01*
X216598023Y-30942490D01*
X216358369Y-31006704D01*
X216103982Y-31112075D01*
X216103971Y-31112080D01*
X215865516Y-31249754D01*
X215647073Y-31417370D01*
X215647066Y-31417376D01*
X215452376Y-31612066D01*
X215452370Y-31612073D01*
X215284754Y-31830516D01*
X215147080Y-32068971D01*
X215147075Y-32068982D01*
X215041704Y-32323369D01*
X214970441Y-32589331D01*
X214970438Y-32589344D01*
X214934501Y-32862315D01*
X214934500Y-32862332D01*
X214934500Y-33137667D01*
X214934501Y-33137684D01*
X214970438Y-33410655D01*
X214970439Y-33410659D01*
X214970440Y-33410666D01*
X214979761Y-33445451D01*
X215041704Y-33676630D01*
X215147075Y-33931017D01*
X215147080Y-33931028D01*
X215229861Y-34074407D01*
X215284751Y-34169479D01*
X215284753Y-34169482D01*
X215284754Y-34169483D01*
X215452370Y-34387926D01*
X215452376Y-34387933D01*
X215647066Y-34582623D01*
X215647073Y-34582629D01*
X215769578Y-34676630D01*
X215865521Y-34750249D01*
X216018778Y-34838732D01*
X216103971Y-34887919D01*
X216103976Y-34887921D01*
X216103979Y-34887923D01*
X216358368Y-34993295D01*
X216624334Y-35064560D01*
X216897326Y-35100500D01*
X216962111Y-35100500D01*
X217029150Y-35120185D01*
X217049792Y-35136819D01*
X218064181Y-36151208D01*
X218097666Y-36212531D01*
X218100500Y-36238889D01*
X218100500Y-38500500D01*
X218080815Y-38567539D01*
X218028011Y-38613294D01*
X217976500Y-38624500D01*
X217112821Y-38624500D01*
X217045782Y-38604815D01*
X217025140Y-38588181D01*
X216905365Y-38468406D01*
X216754218Y-38373433D01*
X216585720Y-38314473D01*
X216452821Y-38299500D01*
X215547181Y-38299500D01*
X215547177Y-38299501D01*
X215414279Y-38314474D01*
X215245781Y-38373433D01*
X215094634Y-38468406D01*
X214968406Y-38594634D01*
X214873433Y-38745781D01*
X214814474Y-38914279D01*
X214803485Y-39011809D01*
X214776418Y-39076223D01*
X214767946Y-39085606D01*
X214353554Y-39499999D01*
X214353554Y-39500000D01*
X214767947Y-39914393D01*
X214801432Y-39975716D01*
X214803486Y-39988191D01*
X214814474Y-40085720D01*
X214814474Y-40085722D01*
X214814475Y-40085723D01*
X214814641Y-40086198D01*
X214873433Y-40254218D01*
X214968406Y-40405365D01*
X215094634Y-40531593D01*
X215229675Y-40616446D01*
X215245783Y-40626567D01*
X215330030Y-40656046D01*
X215414279Y-40685526D01*
X215499271Y-40695101D01*
X215547183Y-40700500D01*
X216452816Y-40700499D01*
X216452818Y-40700499D01*
X216452819Y-40700498D01*
X216585723Y-40685525D01*
X216754217Y-40626567D01*
X216905366Y-40531593D01*
X217025140Y-40411819D01*
X217086463Y-40378334D01*
X217112821Y-40375500D01*
X217976500Y-40375500D01*
X218043539Y-40395185D01*
X218089294Y-40447989D01*
X218100500Y-40499500D01*
X218100500Y-43121476D01*
X218080815Y-43188515D01*
X218028011Y-43234270D01*
X217958853Y-43244214D01*
X217903615Y-43221794D01*
X217786436Y-43136659D01*
X217786435Y-43136658D01*
X217786433Y-43136657D01*
X217720715Y-43103172D01*
X217575996Y-43029433D01*
X217351368Y-42956446D01*
X217118097Y-42919500D01*
X217118092Y-42919500D01*
X216881908Y-42919500D01*
X216819769Y-42929341D01*
X216750476Y-42920385D01*
X216712694Y-42894550D01*
X216558099Y-42739955D01*
X216558098Y-42739954D01*
X216558097Y-42739953D01*
X216414711Y-42644145D01*
X216414698Y-42644138D01*
X216255378Y-42578146D01*
X216255366Y-42578143D01*
X216086232Y-42544500D01*
X216086229Y-42544500D01*
X204056469Y-42544500D01*
X203989430Y-42524815D01*
X203968788Y-42508181D01*
X203812363Y-42351756D01*
X203812358Y-42351752D01*
X203672745Y-42250318D01*
X203630079Y-42194989D01*
X203624100Y-42125375D01*
X203656705Y-42063580D01*
X203672745Y-42049682D01*
X203812358Y-41948247D01*
X203812356Y-41948247D01*
X203812365Y-41948242D01*
X203968242Y-41792365D01*
X204097815Y-41614022D01*
X204197895Y-41417606D01*
X204266015Y-41207951D01*
X204300500Y-40990222D01*
X204300500Y-40769778D01*
X204266015Y-40552049D01*
X204260946Y-40536447D01*
X204251665Y-40507882D01*
X213345669Y-40507882D01*
X213345670Y-40507883D01*
X213371059Y-40526329D01*
X213539362Y-40612085D01*
X213718997Y-40670451D01*
X213905553Y-40700000D01*
X214094447Y-40700000D01*
X214281002Y-40670451D01*
X214460637Y-40612085D01*
X214628937Y-40526331D01*
X214654328Y-40507883D01*
X214654328Y-40507882D01*
X214000001Y-39853554D01*
X214000000Y-39853554D01*
X213345669Y-40507882D01*
X204251665Y-40507882D01*
X204248760Y-40498940D01*
X204197896Y-40342396D01*
X204197895Y-40342393D01*
X204157530Y-40263174D01*
X204097815Y-40145978D01*
X204054379Y-40086193D01*
X203968247Y-39967641D01*
X203968243Y-39967636D01*
X203812363Y-39811756D01*
X203812358Y-39811752D01*
X203634025Y-39682187D01*
X203634024Y-39682186D01*
X203634022Y-39682185D01*
X203443204Y-39584957D01*
X203432140Y-39574508D01*
X203418297Y-39568186D01*
X203407255Y-39551005D01*
X203392409Y-39536983D01*
X203388167Y-39521303D01*
X203380523Y-39509408D01*
X203375500Y-39474473D01*
X203375500Y-39405552D01*
X212800000Y-39405552D01*
X212800000Y-39594447D01*
X212829548Y-39781002D01*
X212887914Y-39960637D01*
X212973666Y-40128933D01*
X212992116Y-40154328D01*
X213646446Y-39500000D01*
X213646446Y-39499999D01*
X213606951Y-39460504D01*
X213700000Y-39460504D01*
X213700000Y-39539496D01*
X213720444Y-39615796D01*
X213759940Y-39684205D01*
X213815795Y-39740060D01*
X213884204Y-39779556D01*
X213960504Y-39800000D01*
X214039496Y-39800000D01*
X214115796Y-39779556D01*
X214184205Y-39740060D01*
X214240060Y-39684205D01*
X214279556Y-39615796D01*
X214300000Y-39539496D01*
X214300000Y-39460504D01*
X214279556Y-39384204D01*
X214240060Y-39315795D01*
X214184205Y-39259940D01*
X214115796Y-39220444D01*
X214039496Y-39200000D01*
X213960504Y-39200000D01*
X213884204Y-39220444D01*
X213815795Y-39259940D01*
X213759940Y-39315795D01*
X213720444Y-39384204D01*
X213700000Y-39460504D01*
X213606951Y-39460504D01*
X212992116Y-38845669D01*
X212992116Y-38845670D01*
X212973669Y-38871060D01*
X212887914Y-39039362D01*
X212829548Y-39218997D01*
X212800000Y-39405552D01*
X203375500Y-39405552D01*
X203375500Y-39100757D01*
X203395185Y-39033718D01*
X203443203Y-38990273D01*
X203476433Y-38973343D01*
X203667510Y-38834517D01*
X203834517Y-38667510D01*
X203961949Y-38492116D01*
X213345669Y-38492116D01*
X214000000Y-39146446D01*
X214000001Y-39146446D01*
X214654328Y-38492116D01*
X214628933Y-38473666D01*
X214460637Y-38387914D01*
X214281002Y-38329548D01*
X214094447Y-38300000D01*
X213905553Y-38300000D01*
X213718997Y-38329548D01*
X213539362Y-38387914D01*
X213371060Y-38473669D01*
X213345670Y-38492116D01*
X213345669Y-38492116D01*
X203961949Y-38492116D01*
X203973343Y-38476433D01*
X204080568Y-38265992D01*
X204153553Y-38041368D01*
X204180659Y-37870227D01*
X204190500Y-37808097D01*
X204190500Y-37571902D01*
X204153553Y-37338631D01*
X204113002Y-37213828D01*
X204080568Y-37114008D01*
X204080566Y-37114005D01*
X204080566Y-37114003D01*
X204015549Y-36986401D01*
X203973343Y-36903567D01*
X203834517Y-36712490D01*
X203667510Y-36545483D01*
X203616613Y-36508504D01*
X203573949Y-36453174D01*
X203565500Y-36408187D01*
X203565500Y-36014499D01*
X203585185Y-35947460D01*
X203637989Y-35901705D01*
X203689500Y-35890499D01*
X204240703Y-35890499D01*
X204240706Y-35890498D01*
X204270990Y-35887086D01*
X204370416Y-35875885D01*
X204370418Y-35875884D01*
X204370422Y-35875884D01*
X204370425Y-35875882D01*
X204370429Y-35875882D01*
X204534884Y-35818336D01*
X204534883Y-35818336D01*
X204534887Y-35818335D01*
X204682423Y-35725632D01*
X204805632Y-35602423D01*
X204898335Y-35454887D01*
X204955884Y-35290422D01*
X204970500Y-35160701D01*
X204970499Y-33219300D01*
X204969735Y-33212515D01*
X204955885Y-33089582D01*
X204955882Y-33089570D01*
X204898336Y-32925115D01*
X204880992Y-32897512D01*
X204805632Y-32777577D01*
X204682423Y-32654368D01*
X204615111Y-32612073D01*
X204534886Y-32561664D01*
X204370416Y-32504114D01*
X204240705Y-32489500D01*
X202299297Y-32489500D01*
X202299291Y-32489501D01*
X202169583Y-32504114D01*
X202169570Y-32504117D01*
X202005115Y-32561663D01*
X201857576Y-32654368D01*
X201734368Y-32777576D01*
X201641664Y-32925113D01*
X201584114Y-33089583D01*
X201569500Y-33219292D01*
X201569500Y-35160702D01*
X201569501Y-35160708D01*
X201584114Y-35290416D01*
X201584117Y-35290429D01*
X201641663Y-35454884D01*
X201734368Y-35602423D01*
X201778181Y-35646236D01*
X201811666Y-35707559D01*
X201814500Y-35733917D01*
X201814500Y-36408187D01*
X201794815Y-36475226D01*
X201763386Y-36508505D01*
X201712488Y-36545484D01*
X201545485Y-36712487D01*
X201545485Y-36712488D01*
X201545483Y-36712490D01*
X201517714Y-36750711D01*
X201406657Y-36903566D01*
X201299433Y-37114003D01*
X201226446Y-37338631D01*
X201189500Y-37571902D01*
X201189500Y-37808097D01*
X201226446Y-38041368D01*
X201299433Y-38265996D01*
X201367712Y-38400000D01*
X201406657Y-38476433D01*
X201545483Y-38667510D01*
X201545485Y-38667512D01*
X201588181Y-38710208D01*
X201621666Y-38771531D01*
X201624500Y-38797889D01*
X201624500Y-39474473D01*
X201604815Y-39541512D01*
X201556795Y-39584957D01*
X201494995Y-39616447D01*
X201365974Y-39682187D01*
X201187642Y-39811751D01*
X201074401Y-39924992D01*
X201013078Y-39958476D01*
X200943386Y-39953492D01*
X200887453Y-39911620D01*
X200865103Y-39861501D01*
X200855207Y-39811751D01*
X200841855Y-39744626D01*
X200839780Y-39739617D01*
X200775861Y-39585301D01*
X200775854Y-39585288D01*
X200680046Y-39441902D01*
X200620052Y-39381908D01*
X200558099Y-39319955D01*
X199215451Y-37977307D01*
X199181966Y-37915984D01*
X199180659Y-37870227D01*
X199190500Y-37808096D01*
X199190500Y-37571902D01*
X199153553Y-37338631D01*
X199113002Y-37213828D01*
X199080568Y-37114008D01*
X199080566Y-37114005D01*
X199080566Y-37114003D01*
X199015549Y-36986401D01*
X198973343Y-36903567D01*
X198834517Y-36712490D01*
X198667510Y-36545483D01*
X198476433Y-36406657D01*
X198265996Y-36299433D01*
X198041368Y-36226446D01*
X197808097Y-36189500D01*
X197808092Y-36189500D01*
X197571908Y-36189500D01*
X197571903Y-36189500D01*
X197338631Y-36226446D01*
X197114003Y-36299433D01*
X196903566Y-36406657D01*
X196879692Y-36424003D01*
X196712490Y-36545483D01*
X196712488Y-36545485D01*
X196712487Y-36545485D01*
X196545485Y-36712487D01*
X196545485Y-36712488D01*
X196545483Y-36712490D01*
X196517714Y-36750711D01*
X196406657Y-36903566D01*
X196299433Y-37114003D01*
X196226446Y-37338631D01*
X196189500Y-37571902D01*
X193985500Y-37571902D01*
X193985500Y-35719689D01*
X194005185Y-35652650D01*
X194047503Y-35612300D01*
X194056774Y-35606948D01*
X194233624Y-35471247D01*
X194391247Y-35313624D01*
X194526948Y-35136774D01*
X194638405Y-34943726D01*
X194723710Y-34737781D01*
X194781404Y-34522463D01*
X194810500Y-34301457D01*
X194810500Y-34078543D01*
X194781404Y-33857537D01*
X194723710Y-33642219D01*
X194638405Y-33436274D01*
X194526948Y-33243226D01*
X194409054Y-33089583D01*
X194391248Y-33066377D01*
X194391242Y-33066370D01*
X194233629Y-32908757D01*
X194233622Y-32908751D01*
X194056782Y-32773058D01*
X194056780Y-32773057D01*
X194056774Y-32773052D01*
X193863726Y-32661595D01*
X193863722Y-32661593D01*
X193657790Y-32576293D01*
X193657783Y-32576291D01*
X193657781Y-32576290D01*
X193442463Y-32518596D01*
X193442457Y-32518595D01*
X193442452Y-32518594D01*
X193221466Y-32489501D01*
X193221463Y-32489500D01*
X193221457Y-32489500D01*
X192998543Y-32489500D01*
X192998537Y-32489500D01*
X192998533Y-32489501D01*
X192777547Y-32518594D01*
X192777540Y-32518595D01*
X192777537Y-32518596D01*
X192704777Y-32538092D01*
X192562219Y-32576290D01*
X192562209Y-32576293D01*
X192356277Y-32661593D01*
X192356273Y-32661595D01*
X192163226Y-32773052D01*
X192163217Y-32773058D01*
X191986377Y-32908751D01*
X191986370Y-32908757D01*
X191828757Y-33066370D01*
X191828751Y-33066377D01*
X191693051Y-33243226D01*
X191687696Y-33252502D01*
X191637128Y-33300716D01*
X191580310Y-33314500D01*
X187684006Y-33314500D01*
X187616967Y-33294815D01*
X187596325Y-33278181D01*
X187025451Y-32707307D01*
X186991966Y-32645984D01*
X186990659Y-32600227D01*
X187000500Y-32538096D01*
X187000500Y-32301902D01*
X186963553Y-32068631D01*
X186920276Y-31935440D01*
X186890568Y-31844008D01*
X186890566Y-31844005D01*
X186890566Y-31844003D01*
X186814882Y-31695466D01*
X186783343Y-31633567D01*
X186644517Y-31442490D01*
X186554182Y-31352155D01*
X209855000Y-31352155D01*
X209855000Y-32750000D01*
X211112586Y-32750000D01*
X211080000Y-32913820D01*
X211080000Y-33086180D01*
X211112586Y-33250000D01*
X209855000Y-33250000D01*
X209855000Y-34647844D01*
X209861401Y-34707372D01*
X209861403Y-34707379D01*
X209911645Y-34842086D01*
X209911649Y-34842093D01*
X209997809Y-34957187D01*
X209997812Y-34957190D01*
X210112906Y-35043350D01*
X210112913Y-35043354D01*
X210247620Y-35093596D01*
X210247627Y-35093598D01*
X210307155Y-35099999D01*
X210307172Y-35100000D01*
X211705000Y-35100000D01*
X211705000Y-33842413D01*
X211868820Y-33875000D01*
X212041180Y-33875000D01*
X212205000Y-33842413D01*
X212205000Y-35100000D01*
X213602828Y-35100000D01*
X213602844Y-35099999D01*
X213662372Y-35093598D01*
X213662379Y-35093596D01*
X213797086Y-35043354D01*
X213797093Y-35043350D01*
X213912187Y-34957190D01*
X213912190Y-34957187D01*
X213998350Y-34842093D01*
X213998354Y-34842086D01*
X214048596Y-34707379D01*
X214048598Y-34707372D01*
X214054999Y-34647844D01*
X214055000Y-34647827D01*
X214055000Y-33250000D01*
X212797414Y-33250000D01*
X212830000Y-33086180D01*
X212830000Y-32913820D01*
X212797414Y-32750000D01*
X214055000Y-32750000D01*
X214055000Y-31352172D01*
X214054999Y-31352155D01*
X214048598Y-31292627D01*
X214048596Y-31292620D01*
X213998354Y-31157913D01*
X213998350Y-31157906D01*
X213912190Y-31042812D01*
X213912187Y-31042809D01*
X213797093Y-30956649D01*
X213797086Y-30956645D01*
X213662379Y-30906403D01*
X213662372Y-30906401D01*
X213602844Y-30900000D01*
X212205000Y-30900000D01*
X212205000Y-32157586D01*
X212041180Y-32125000D01*
X211868820Y-32125000D01*
X211705000Y-32157586D01*
X211705000Y-30900000D01*
X210307155Y-30900000D01*
X210247627Y-30906401D01*
X210247620Y-30906403D01*
X210112913Y-30956645D01*
X210112906Y-30956649D01*
X209997812Y-31042809D01*
X209997809Y-31042812D01*
X209911649Y-31157906D01*
X209911645Y-31157913D01*
X209861403Y-31292620D01*
X209861401Y-31292627D01*
X209855000Y-31352155D01*
X186554182Y-31352155D01*
X186477510Y-31275483D01*
X186286433Y-31136657D01*
X186262574Y-31124500D01*
X186075996Y-31029433D01*
X185851368Y-30956446D01*
X185618097Y-30919500D01*
X185618092Y-30919500D01*
X185381908Y-30919500D01*
X185381903Y-30919500D01*
X185148631Y-30956446D01*
X184924003Y-31029433D01*
X184713566Y-31136657D01*
X184604550Y-31215862D01*
X184522490Y-31275483D01*
X184522488Y-31275485D01*
X184522487Y-31275485D01*
X184355485Y-31442487D01*
X184355485Y-31442488D01*
X184355483Y-31442490D01*
X184314063Y-31499500D01*
X184216657Y-31633566D01*
X184109433Y-31844003D01*
X184036446Y-32068631D01*
X183999500Y-32301902D01*
X183999500Y-32301908D01*
X183999500Y-32538092D01*
X184007615Y-32589331D01*
X184009341Y-32600228D01*
X184000385Y-32669521D01*
X183974548Y-32707306D01*
X181218088Y-35463766D01*
X181156765Y-35497251D01*
X181120691Y-35499704D01*
X181118095Y-35499500D01*
X181118092Y-35499500D01*
X180881908Y-35499500D01*
X180881903Y-35499500D01*
X180648631Y-35536446D01*
X180424003Y-35609433D01*
X180213566Y-35716657D01*
X180104550Y-35795862D01*
X180022490Y-35855483D01*
X180022488Y-35855485D01*
X180022487Y-35855485D01*
X179855485Y-36022487D01*
X179855485Y-36022488D01*
X179855483Y-36022490D01*
X179824917Y-36064561D01*
X179716657Y-36213566D01*
X179609433Y-36424003D01*
X179536446Y-36648631D01*
X179499500Y-36881902D01*
X179499500Y-37118097D01*
X179536446Y-37351368D01*
X179609433Y-37575996D01*
X179668645Y-37692205D01*
X179716657Y-37786433D01*
X179855483Y-37977510D01*
X180022490Y-38144517D01*
X180213567Y-38283343D01*
X180312991Y-38334002D01*
X180424003Y-38390566D01*
X180424005Y-38390566D01*
X180424008Y-38390568D01*
X180486596Y-38410904D01*
X180648631Y-38463553D01*
X180881903Y-38500500D01*
X180881908Y-38500500D01*
X181118097Y-38500500D01*
X181351368Y-38463553D01*
X181401269Y-38447339D01*
X181575992Y-38390568D01*
X181786433Y-38283343D01*
X181977510Y-38144517D01*
X182144517Y-37977510D01*
X182283343Y-37786433D01*
X182390568Y-37575992D01*
X182463553Y-37351368D01*
X182480823Y-37242328D01*
X182500500Y-37118097D01*
X182500500Y-36881910D01*
X182500499Y-36881902D01*
X182479719Y-36750707D01*
X182488673Y-36681417D01*
X182514508Y-36643634D01*
X185212694Y-33945448D01*
X185274015Y-33911965D01*
X185319768Y-33910658D01*
X185360147Y-33917053D01*
X185381905Y-33920500D01*
X185381908Y-33920500D01*
X185618096Y-33920500D01*
X185680227Y-33910659D01*
X185749521Y-33919613D01*
X185787307Y-33945451D01*
X186711897Y-34870042D01*
X186711901Y-34870045D01*
X186855288Y-34965854D01*
X186855301Y-34965861D01*
X187014621Y-35031853D01*
X187014626Y-35031855D01*
X187179035Y-35064558D01*
X187183766Y-35065499D01*
X187183769Y-35065500D01*
X187183771Y-35065500D01*
X187356229Y-35065500D01*
X191580310Y-35065500D01*
X191647349Y-35085185D01*
X191687696Y-35127498D01*
X191693051Y-35136773D01*
X191828751Y-35313622D01*
X191828757Y-35313629D01*
X191986370Y-35471242D01*
X191986376Y-35471247D01*
X192163226Y-35606948D01*
X192172495Y-35612300D01*
X192220713Y-35662864D01*
X192234500Y-35719689D01*
X192234500Y-39196233D01*
X192268143Y-39365366D01*
X192268146Y-39365378D01*
X192334138Y-39524698D01*
X192334145Y-39524711D01*
X192429954Y-39668098D01*
X192429957Y-39668102D01*
X193043181Y-40281325D01*
X193076666Y-40342648D01*
X193079500Y-40369006D01*
X193079500Y-41542662D01*
X193094275Y-41673801D01*
X193094276Y-41673806D01*
X193152460Y-41840086D01*
X193246185Y-41989247D01*
X193246186Y-41989248D01*
X193370752Y-42113814D01*
X193499940Y-42194989D01*
X193506130Y-42198878D01*
X193552421Y-42251213D01*
X193563069Y-42320266D01*
X193534694Y-42384115D01*
X193527840Y-42391553D01*
X193411751Y-42507642D01*
X193282187Y-42685974D01*
X193282185Y-42685978D01*
X193232575Y-42783343D01*
X193220625Y-42806795D01*
X193172650Y-42857591D01*
X193110140Y-42874500D01*
X191156469Y-42874500D01*
X191089430Y-42854815D01*
X191068788Y-42838181D01*
X190912363Y-42681756D01*
X190912358Y-42681752D01*
X190734025Y-42552187D01*
X190734024Y-42552186D01*
X190734022Y-42552185D01*
X190671096Y-42520122D01*
X190537606Y-42452104D01*
X190537603Y-42452103D01*
X190327952Y-42383985D01*
X190197623Y-42363343D01*
X190110222Y-42349500D01*
X189889778Y-42349500D01*
X189875522Y-42351758D01*
X189672047Y-42383985D01*
X189462396Y-42452103D01*
X189462393Y-42452104D01*
X189265974Y-42552187D01*
X189087641Y-42681752D01*
X189087636Y-42681756D01*
X188931756Y-42837636D01*
X188931752Y-42837641D01*
X188802187Y-43015974D01*
X188702104Y-43212393D01*
X188702103Y-43212396D01*
X188633985Y-43422047D01*
X188612530Y-43557510D01*
X188599500Y-43639778D01*
X188599500Y-43860222D01*
X188607981Y-43913771D01*
X188633985Y-44077952D01*
X188702103Y-44287603D01*
X188702104Y-44287606D01*
X188754566Y-44390566D01*
X188791755Y-44463553D01*
X188802187Y-44484025D01*
X188931752Y-44662358D01*
X188931756Y-44662363D01*
X189087636Y-44818243D01*
X189087641Y-44818247D01*
X189227254Y-44919682D01*
X189269920Y-44975012D01*
X189275899Y-45044625D01*
X189243293Y-45106420D01*
X189227254Y-45120318D01*
X189087641Y-45221752D01*
X189087636Y-45221756D01*
X188931756Y-45377636D01*
X188931752Y-45377641D01*
X188802187Y-45555973D01*
X188801770Y-45556793D01*
X188801527Y-45557049D01*
X188799640Y-45560130D01*
X188798992Y-45559733D01*
X188753797Y-45607590D01*
X188691284Y-45624500D01*
X187024500Y-45624500D01*
X186957461Y-45604815D01*
X186911706Y-45552011D01*
X186900500Y-45500500D01*
X186900500Y-45437341D01*
X186900499Y-45437337D01*
X186898815Y-45422394D01*
X186893773Y-45377636D01*
X186885724Y-45306198D01*
X186885723Y-45306193D01*
X186870960Y-45264003D01*
X186827540Y-45139915D01*
X186815226Y-45120318D01*
X186733814Y-44990752D01*
X186609247Y-44866185D01*
X186497292Y-44795839D01*
X186460085Y-44772460D01*
X186460084Y-44772459D01*
X186460083Y-44772459D01*
X186459206Y-44772152D01*
X186458543Y-44771920D01*
X186457681Y-44771302D01*
X186453810Y-44769438D01*
X186454136Y-44768759D01*
X186401768Y-44731198D01*
X186376022Y-44666245D01*
X186375500Y-44654880D01*
X186375500Y-43861812D01*
X186395185Y-43794773D01*
X186426616Y-43761493D01*
X186477506Y-43724520D01*
X186477506Y-43724519D01*
X186477510Y-43724517D01*
X186644517Y-43557510D01*
X186783343Y-43366433D01*
X186890568Y-43155992D01*
X186963553Y-42931368D01*
X186977269Y-42844768D01*
X187000500Y-42698097D01*
X187000500Y-42461902D01*
X186963553Y-42228631D01*
X186909924Y-42063580D01*
X186890568Y-42004008D01*
X186890566Y-42004005D01*
X186890566Y-42004003D01*
X186828352Y-41881902D01*
X186783343Y-41793567D01*
X186644517Y-41602490D01*
X186477510Y-41435483D01*
X186286433Y-41296657D01*
X186280369Y-41293567D01*
X186075996Y-41189433D01*
X185851368Y-41116446D01*
X185618097Y-41079500D01*
X185618092Y-41079500D01*
X185381908Y-41079500D01*
X185381903Y-41079500D01*
X185148631Y-41116446D01*
X184924003Y-41189433D01*
X184713566Y-41296657D01*
X184604550Y-41375862D01*
X184522490Y-41435483D01*
X184522488Y-41435485D01*
X184522487Y-41435485D01*
X184355485Y-41602487D01*
X184355485Y-41602488D01*
X184355483Y-41602490D01*
X184303672Y-41673801D01*
X184216657Y-41793566D01*
X184109433Y-42004003D01*
X184036446Y-42228631D01*
X183999500Y-42461902D01*
X183999500Y-42698097D01*
X184036446Y-42931368D01*
X184109433Y-43155996D01*
X184208981Y-43351368D01*
X184216657Y-43366433D01*
X184355483Y-43557510D01*
X184355485Y-43557512D01*
X184522493Y-43724520D01*
X184573384Y-43761493D01*
X184616050Y-43816822D01*
X184624500Y-43861812D01*
X184624500Y-44654880D01*
X184604815Y-44721919D01*
X184552011Y-44767674D01*
X184541460Y-44771919D01*
X184541057Y-44772060D01*
X184539916Y-44772459D01*
X184390752Y-44866185D01*
X184266184Y-44990753D01*
X184266183Y-44990755D01*
X184181120Y-45126131D01*
X184128786Y-45172421D01*
X184059732Y-45183069D01*
X183995884Y-45154694D01*
X183988446Y-45147839D01*
X183872363Y-45031756D01*
X183872358Y-45031752D01*
X183694025Y-44902187D01*
X183694024Y-44902186D01*
X183694022Y-44902185D01*
X183616111Y-44862487D01*
X183497606Y-44802104D01*
X183497603Y-44802103D01*
X183287952Y-44733985D01*
X183163507Y-44714275D01*
X183070222Y-44699500D01*
X182849778Y-44699500D01*
X182806491Y-44706356D01*
X182632047Y-44733985D01*
X182422396Y-44802103D01*
X182422393Y-44802104D01*
X182225974Y-44902187D01*
X182047641Y-45031752D01*
X182047636Y-45031756D01*
X181891756Y-45187636D01*
X181891752Y-45187641D01*
X181790318Y-45327254D01*
X181734988Y-45369920D01*
X181665375Y-45375899D01*
X181603580Y-45343293D01*
X181589682Y-45327254D01*
X181488247Y-45187641D01*
X181488243Y-45187636D01*
X181332363Y-45031756D01*
X181332358Y-45031752D01*
X181154025Y-44902187D01*
X181154024Y-44902186D01*
X181154022Y-44902185D01*
X181076111Y-44862487D01*
X180957606Y-44802104D01*
X180957603Y-44802103D01*
X180747952Y-44733985D01*
X180623507Y-44714275D01*
X180530222Y-44699500D01*
X180309778Y-44699500D01*
X180266491Y-44706356D01*
X180092047Y-44733985D01*
X179882396Y-44802103D01*
X179882393Y-44802104D01*
X179685974Y-44902187D01*
X179507641Y-45031752D01*
X179507636Y-45031756D01*
X179351756Y-45187636D01*
X179250008Y-45327681D01*
X179194678Y-45370346D01*
X179125065Y-45376325D01*
X179063270Y-45343719D01*
X179049372Y-45327680D01*
X178947862Y-45187964D01*
X178947857Y-45187958D01*
X178792041Y-45032142D01*
X178613760Y-44902613D01*
X178417410Y-44802567D01*
X178207836Y-44734473D01*
X178130000Y-44722144D01*
X178130000Y-46184314D01*
X178125606Y-46179920D01*
X178034394Y-46127259D01*
X177932661Y-46100000D01*
X177827339Y-46100000D01*
X177725606Y-46127259D01*
X177634394Y-46179920D01*
X177630000Y-46184314D01*
X177630000Y-44722144D01*
X177552164Y-44734473D01*
X177552161Y-44734473D01*
X177342589Y-44802567D01*
X177146239Y-44902613D01*
X176967958Y-45032142D01*
X176812142Y-45187958D01*
X176682613Y-45366239D01*
X176582567Y-45562589D01*
X176514473Y-45772164D01*
X176480000Y-45989818D01*
X176480000Y-46297359D01*
X176460315Y-46364398D01*
X176407511Y-46410153D01*
X176338353Y-46420097D01*
X176274797Y-46391072D01*
X176268319Y-46385040D01*
X175703236Y-45819957D01*
X175703232Y-45819954D01*
X175559845Y-45724145D01*
X175559832Y-45724138D01*
X175400512Y-45658146D01*
X175400500Y-45658143D01*
X175231366Y-45624500D01*
X175231363Y-45624500D01*
X175231362Y-45624500D01*
X173913006Y-45624500D01*
X173845967Y-45604815D01*
X173800212Y-45552011D01*
X173790268Y-45482853D01*
X173819293Y-45419297D01*
X173825325Y-45412819D01*
X174294613Y-44943531D01*
X175712694Y-43525448D01*
X175774015Y-43491965D01*
X175819768Y-43490658D01*
X175860147Y-43497053D01*
X175881905Y-43500500D01*
X175881908Y-43500500D01*
X176118097Y-43500500D01*
X176351368Y-43463553D01*
X176370049Y-43457483D01*
X176575992Y-43390568D01*
X176786433Y-43283343D01*
X176977510Y-43144517D01*
X177144517Y-42977510D01*
X177283343Y-42786433D01*
X177388271Y-42580500D01*
X177390566Y-42575996D01*
X177390566Y-42575995D01*
X177390568Y-42575992D01*
X177463553Y-42351368D01*
X177468479Y-42320266D01*
X177500500Y-42118097D01*
X177500500Y-41881902D01*
X177463553Y-41648631D01*
X177401502Y-41457659D01*
X177390568Y-41424008D01*
X177390566Y-41424005D01*
X177390566Y-41424003D01*
X177324105Y-41293567D01*
X177283343Y-41213567D01*
X177144517Y-41022490D01*
X176977510Y-40855483D01*
X176926613Y-40818504D01*
X176883949Y-40763174D01*
X176875500Y-40718187D01*
X176875500Y-33635334D01*
X176889016Y-33579038D01*
X176890565Y-33575997D01*
X176890568Y-33575992D01*
X176963553Y-33351368D01*
X176970015Y-33310566D01*
X177000500Y-33118097D01*
X177000500Y-32881902D01*
X176963553Y-32648631D01*
X176916596Y-32504114D01*
X176890568Y-32424008D01*
X176890566Y-32424005D01*
X176890566Y-32424003D01*
X176801781Y-32249754D01*
X176783343Y-32213567D01*
X176644517Y-32022490D01*
X176477510Y-31855483D01*
X176286433Y-31716657D01*
X176245071Y-31695582D01*
X176075996Y-31609433D01*
X175851368Y-31536446D01*
X175618097Y-31499500D01*
X175618092Y-31499500D01*
X175381908Y-31499500D01*
X175381903Y-31499500D01*
X175148631Y-31536446D01*
X174924003Y-31609433D01*
X174713566Y-31716657D01*
X174604550Y-31795862D01*
X174522490Y-31855483D01*
X174522488Y-31855485D01*
X174522487Y-31855485D01*
X174355485Y-32022487D01*
X174355485Y-32022488D01*
X174355483Y-32022490D01*
X174318505Y-32073386D01*
X174216657Y-32213566D01*
X174109433Y-32424003D01*
X174036446Y-32648631D01*
X173999500Y-32881902D01*
X173999500Y-33118097D01*
X174036446Y-33351368D01*
X174109433Y-33575996D01*
X174162450Y-33680046D01*
X174216657Y-33786433D01*
X174355483Y-33977510D01*
X174522490Y-34144517D01*
X174713567Y-34283343D01*
X174924008Y-34390568D01*
X175036168Y-34427011D01*
X175038818Y-34427872D01*
X175096494Y-34467310D01*
X175123692Y-34531668D01*
X175124500Y-34545803D01*
X175124500Y-40718187D01*
X175104815Y-40785226D01*
X175073386Y-40818505D01*
X175022488Y-40855484D01*
X174855485Y-41022487D01*
X174855485Y-41022488D01*
X174855483Y-41022490D01*
X174831203Y-41055909D01*
X174716657Y-41213566D01*
X174609433Y-41424003D01*
X174536446Y-41648631D01*
X174499500Y-41881902D01*
X174499500Y-41881908D01*
X174499500Y-42118092D01*
X174509341Y-42180228D01*
X174500385Y-42249521D01*
X174474548Y-42287306D01*
X171840139Y-44921715D01*
X171778816Y-44955200D01*
X171709124Y-44950216D01*
X171664777Y-44921715D01*
X171609247Y-44866185D01*
X171460086Y-44772460D01*
X171293806Y-44714276D01*
X171293801Y-44714275D01*
X171162662Y-44699500D01*
X171162656Y-44699500D01*
X169837344Y-44699500D01*
X169837337Y-44699500D01*
X169706198Y-44714275D01*
X169706193Y-44714276D01*
X169539913Y-44772460D01*
X169390752Y-44866185D01*
X169266184Y-44990753D01*
X169266183Y-44990755D01*
X169181120Y-45126131D01*
X169164074Y-45141207D01*
X169150437Y-45159425D01*
X169138405Y-45163912D01*
X169128786Y-45172421D01*
X169106295Y-45175888D01*
X169084973Y-45183842D01*
X169072423Y-45181111D01*
X169059732Y-45183069D01*
X169038937Y-45173827D01*
X169016700Y-45168990D01*
X169000114Y-45156574D01*
X168995884Y-45154694D01*
X168988446Y-45147839D01*
X168871819Y-45031212D01*
X168838334Y-44969889D01*
X168835500Y-44943531D01*
X168835500Y-43079500D01*
X168855185Y-43012461D01*
X168907989Y-42966706D01*
X168959500Y-42955500D01*
X169782111Y-42955500D01*
X169849150Y-42975185D01*
X169869792Y-42991819D01*
X170022490Y-43144517D01*
X170213567Y-43283343D01*
X170296303Y-43325499D01*
X170424003Y-43390566D01*
X170424005Y-43390566D01*
X170424008Y-43390568D01*
X170492791Y-43412917D01*
X170648631Y-43463553D01*
X170881903Y-43500500D01*
X170881908Y-43500500D01*
X171118097Y-43500500D01*
X171351368Y-43463553D01*
X171370049Y-43457483D01*
X171575992Y-43390568D01*
X171786433Y-43283343D01*
X171977510Y-43144517D01*
X172144517Y-42977510D01*
X172283343Y-42786433D01*
X172388271Y-42580500D01*
X172390566Y-42575996D01*
X172390566Y-42575995D01*
X172390568Y-42575992D01*
X172463553Y-42351368D01*
X172468479Y-42320266D01*
X172500500Y-42118097D01*
X172500500Y-41881902D01*
X172463553Y-41648631D01*
X172401502Y-41457659D01*
X172390568Y-41424008D01*
X172390566Y-41424005D01*
X172390566Y-41424003D01*
X172324105Y-41293567D01*
X172283343Y-41213567D01*
X172144517Y-41022490D01*
X171977510Y-40855483D01*
X171786433Y-40716657D01*
X171733001Y-40689432D01*
X171575996Y-40609433D01*
X171351368Y-40536446D01*
X171118097Y-40499500D01*
X171118092Y-40499500D01*
X170881908Y-40499500D01*
X170881903Y-40499500D01*
X170648631Y-40536446D01*
X170424003Y-40609433D01*
X170213566Y-40716657D01*
X170149542Y-40763174D01*
X170022490Y-40855483D01*
X170022488Y-40855485D01*
X170022487Y-40855485D01*
X169855485Y-41022487D01*
X169855480Y-41022493D01*
X169760382Y-41153385D01*
X169705052Y-41196051D01*
X169660064Y-41204500D01*
X168281813Y-41204500D01*
X168214774Y-41184815D01*
X168181495Y-41153386D01*
X168144517Y-41102490D01*
X167977510Y-40935483D01*
X167786433Y-40796657D01*
X167768210Y-40787372D01*
X167575996Y-40689433D01*
X167351368Y-40616446D01*
X167118097Y-40579500D01*
X167118092Y-40579500D01*
X166881908Y-40579500D01*
X166881903Y-40579500D01*
X166648631Y-40616446D01*
X166424003Y-40689433D01*
X166213566Y-40796657D01*
X166147996Y-40844297D01*
X166022490Y-40935483D01*
X166022488Y-40935485D01*
X166022487Y-40935485D01*
X165855485Y-41102487D01*
X165855478Y-41102496D01*
X165769341Y-41221051D01*
X165714011Y-41263717D01*
X165644397Y-41269695D01*
X165582603Y-41237088D01*
X165548246Y-41176249D01*
X165546554Y-41167583D01*
X165543553Y-41148632D01*
X165470568Y-40924008D01*
X165470566Y-40924005D01*
X165470566Y-40924003D01*
X165400952Y-40787379D01*
X165363343Y-40713567D01*
X165224517Y-40522490D01*
X165057510Y-40355483D01*
X164866433Y-40216657D01*
X164803940Y-40184815D01*
X164655996Y-40109433D01*
X164643541Y-40105386D01*
X164628891Y-40100626D01*
X164571217Y-40061189D01*
X164544019Y-39996830D01*
X164555934Y-39927984D01*
X164603179Y-39876508D01*
X164610917Y-39872211D01*
X164786158Y-39782921D01*
X164786169Y-39782914D01*
X164869104Y-39722658D01*
X164869105Y-39722658D01*
X164046446Y-38900000D01*
X164052661Y-38900000D01*
X164154394Y-38872741D01*
X164245606Y-38820080D01*
X164320080Y-38745606D01*
X164372741Y-38654394D01*
X164400000Y-38552661D01*
X164400000Y-38546447D01*
X165222658Y-39369105D01*
X165222658Y-39369104D01*
X165282914Y-39286169D01*
X165282918Y-39286163D01*
X165390102Y-39075802D01*
X165463065Y-38851247D01*
X165500000Y-38618052D01*
X165500000Y-38381947D01*
X165463065Y-38148752D01*
X165390102Y-37924197D01*
X165329264Y-37804795D01*
X165316368Y-37736126D01*
X165342644Y-37671385D01*
X165399751Y-37631128D01*
X165439749Y-37624500D01*
X169398160Y-37624500D01*
X169465199Y-37644185D01*
X169508645Y-37692205D01*
X169556657Y-37786433D01*
X169695483Y-37977510D01*
X169862490Y-38144517D01*
X170053567Y-38283343D01*
X170152991Y-38334002D01*
X170264003Y-38390566D01*
X170264005Y-38390566D01*
X170264008Y-38390568D01*
X170326596Y-38410904D01*
X170488631Y-38463553D01*
X170721903Y-38500500D01*
X170721908Y-38500500D01*
X170958097Y-38500500D01*
X171191368Y-38463553D01*
X171241269Y-38447339D01*
X171415992Y-38390568D01*
X171626433Y-38283343D01*
X171817510Y-38144517D01*
X171984517Y-37977510D01*
X172123343Y-37786433D01*
X172230568Y-37575992D01*
X172303553Y-37351368D01*
X172320823Y-37242328D01*
X172340500Y-37118097D01*
X172340500Y-36881902D01*
X172303553Y-36648631D01*
X172245956Y-36471368D01*
X172230568Y-36424008D01*
X172230566Y-36424005D01*
X172230566Y-36424003D01*
X172136245Y-36238889D01*
X172123343Y-36213567D01*
X171984517Y-36022490D01*
X171817510Y-35855483D01*
X171626433Y-35716657D01*
X171608577Y-35707559D01*
X171415996Y-35609433D01*
X171191368Y-35536446D01*
X170958097Y-35499500D01*
X170958092Y-35499500D01*
X170721908Y-35499500D01*
X170721903Y-35499500D01*
X170488631Y-35536446D01*
X170264003Y-35609433D01*
X170053566Y-35716657D01*
X169952905Y-35789791D01*
X169870286Y-35849818D01*
X169804481Y-35873298D01*
X169797402Y-35873500D01*
X152664768Y-35873500D01*
X152495633Y-35907143D01*
X152495621Y-35907146D01*
X152336301Y-35973138D01*
X152336288Y-35973145D01*
X152192901Y-36068954D01*
X152192897Y-36068957D01*
X146837681Y-41424174D01*
X146776358Y-41457659D01*
X146706666Y-41452675D01*
X146662319Y-41424174D01*
X145638102Y-40399957D01*
X145638098Y-40399954D01*
X145494711Y-40304145D01*
X145494698Y-40304138D01*
X145335378Y-40238146D01*
X145335366Y-40238143D01*
X145166232Y-40204500D01*
X145166229Y-40204500D01*
X143381813Y-40204500D01*
X143314774Y-40184815D01*
X143281495Y-40153386D01*
X143263729Y-40128933D01*
X143244517Y-40102490D01*
X143077510Y-39935483D01*
X143042447Y-39910008D01*
X142999782Y-39854679D01*
X142993803Y-39785066D01*
X143026409Y-39723271D01*
X143042450Y-39709371D01*
X143077182Y-39684137D01*
X143244133Y-39517186D01*
X143382914Y-39326171D01*
X143488421Y-39119104D01*
X143488421Y-39119103D01*
X143490102Y-39115803D01*
X143563065Y-38891247D01*
X143579102Y-38790000D01*
X142490748Y-38790000D01*
X142512518Y-38752292D01*
X142550000Y-38612409D01*
X142550000Y-38467591D01*
X142512518Y-38327708D01*
X142490748Y-38290000D01*
X143579102Y-38290000D01*
X143563065Y-38188752D01*
X143490102Y-37964195D01*
X143474396Y-37933371D01*
X143474395Y-37933370D01*
X143448194Y-37881947D01*
X145500000Y-37881947D01*
X145500000Y-38118052D01*
X145536934Y-38351247D01*
X145609897Y-38575802D01*
X145717087Y-38786174D01*
X145777338Y-38869104D01*
X145777340Y-38869105D01*
X146600000Y-38046445D01*
X146600000Y-38052661D01*
X146627259Y-38154394D01*
X146679920Y-38245606D01*
X146754394Y-38320080D01*
X146845606Y-38372741D01*
X146947339Y-38400000D01*
X146953554Y-38400000D01*
X146130893Y-39222658D01*
X146213828Y-39282914D01*
X146424197Y-39390102D01*
X146648752Y-39463065D01*
X146648751Y-39463065D01*
X146881948Y-39500000D01*
X147118052Y-39500000D01*
X147351247Y-39463065D01*
X147575802Y-39390102D01*
X147786163Y-39282918D01*
X147786169Y-39282914D01*
X147869104Y-39222658D01*
X147869105Y-39222658D01*
X147046446Y-38400000D01*
X147052661Y-38400000D01*
X147154394Y-38372741D01*
X147245606Y-38320080D01*
X147320080Y-38245606D01*
X147372741Y-38154394D01*
X147400000Y-38052661D01*
X147400000Y-38046447D01*
X148222658Y-38869105D01*
X148222658Y-38869104D01*
X148282914Y-38786169D01*
X148282918Y-38786163D01*
X148390102Y-38575802D01*
X148463065Y-38351247D01*
X148500000Y-38118052D01*
X148500000Y-37881947D01*
X148463065Y-37648752D01*
X148390102Y-37424197D01*
X148282914Y-37213828D01*
X148222658Y-37130894D01*
X148222658Y-37130893D01*
X147400000Y-37953552D01*
X147400000Y-37947339D01*
X147372741Y-37845606D01*
X147320080Y-37754394D01*
X147245606Y-37679920D01*
X147154394Y-37627259D01*
X147052661Y-37600000D01*
X147046447Y-37600000D01*
X147869105Y-36777340D01*
X147869104Y-36777338D01*
X147786174Y-36717087D01*
X147575802Y-36609897D01*
X147351247Y-36536934D01*
X147351248Y-36536934D01*
X147118052Y-36500000D01*
X146881948Y-36500000D01*
X146648752Y-36536934D01*
X146424197Y-36609897D01*
X146213830Y-36717084D01*
X146130894Y-36777340D01*
X146953554Y-37600000D01*
X146947339Y-37600000D01*
X146845606Y-37627259D01*
X146754394Y-37679920D01*
X146679920Y-37754394D01*
X146627259Y-37845606D01*
X146600000Y-37947339D01*
X146600000Y-37953554D01*
X145777340Y-37130894D01*
X145717084Y-37213830D01*
X145609897Y-37424197D01*
X145536934Y-37648752D01*
X145500000Y-37881947D01*
X143448194Y-37881947D01*
X143382914Y-37753828D01*
X143292964Y-37630023D01*
X143269484Y-37564216D01*
X143285309Y-37496162D01*
X143334640Y-37448220D01*
X143334546Y-37448047D01*
X143335169Y-37447706D01*
X143335415Y-37447468D01*
X143336480Y-37446990D01*
X143342326Y-37443797D01*
X143342331Y-37443796D01*
X143457546Y-37357546D01*
X143543796Y-37242331D01*
X143594091Y-37107483D01*
X143600500Y-37047873D01*
X143600499Y-35993295D01*
X143600499Y-34952129D01*
X143600498Y-34952123D01*
X143600497Y-34952116D01*
X143594091Y-34892517D01*
X143585709Y-34870045D01*
X143543797Y-34757671D01*
X143543793Y-34757664D01*
X143457547Y-34642455D01*
X143457544Y-34642452D01*
X143342335Y-34556206D01*
X143342328Y-34556202D01*
X143207482Y-34505908D01*
X143207483Y-34505908D01*
X143147883Y-34499501D01*
X143147881Y-34499500D01*
X143147873Y-34499500D01*
X143147865Y-34499500D01*
X142999500Y-34499500D01*
X142932461Y-34479815D01*
X142886706Y-34427011D01*
X142875500Y-34375500D01*
X142875500Y-32413768D01*
X142875499Y-32413766D01*
X142856916Y-32320343D01*
X142841855Y-32244626D01*
X142828990Y-32213566D01*
X142809021Y-32165356D01*
X142799583Y-32117398D01*
X142799621Y-32107896D01*
X142800500Y-32102352D01*
X142800500Y-31897682D01*
X145200000Y-31897682D01*
X145200000Y-32102317D01*
X145232009Y-32304417D01*
X145295244Y-32499031D01*
X145388141Y-32681350D01*
X145388147Y-32681359D01*
X145420523Y-32725921D01*
X145420524Y-32725922D01*
X146100000Y-32046446D01*
X146100000Y-32052661D01*
X146127259Y-32154394D01*
X146179920Y-32245606D01*
X146254394Y-32320080D01*
X146345606Y-32372741D01*
X146447339Y-32400000D01*
X146453553Y-32400000D01*
X145774076Y-33079474D01*
X145818650Y-33111859D01*
X146000968Y-33204755D01*
X146195582Y-33267990D01*
X146397683Y-33300000D01*
X146602317Y-33300000D01*
X146804417Y-33267990D01*
X146999031Y-33204755D01*
X147181349Y-33111859D01*
X147225921Y-33079474D01*
X146546447Y-32400000D01*
X146552661Y-32400000D01*
X146654394Y-32372741D01*
X146745606Y-32320080D01*
X146820080Y-32245606D01*
X146872741Y-32154394D01*
X146900000Y-32052661D01*
X146900000Y-32046448D01*
X147579474Y-32725922D01*
X147579474Y-32725921D01*
X147611859Y-32681349D01*
X147704755Y-32499031D01*
X147767990Y-32304417D01*
X147800000Y-32102317D01*
X147800000Y-31897683D01*
X147787131Y-31816435D01*
X147787131Y-31816434D01*
X147784829Y-31801902D01*
X165499500Y-31801902D01*
X165499500Y-32038097D01*
X165536446Y-32271368D01*
X165609433Y-32495996D01*
X165703881Y-32681359D01*
X165716657Y-32706433D01*
X165855483Y-32897510D01*
X166022490Y-33064517D01*
X166213567Y-33203343D01*
X166291824Y-33243217D01*
X166424003Y-33310566D01*
X166424005Y-33310566D01*
X166424008Y-33310568D01*
X166544412Y-33349689D01*
X166648631Y-33383553D01*
X166881903Y-33420500D01*
X166881908Y-33420500D01*
X167118096Y-33420500D01*
X167180227Y-33410659D01*
X167185653Y-33411360D01*
X167190780Y-33409448D01*
X167219930Y-33415789D01*
X167249521Y-33419613D01*
X167255126Y-33423445D01*
X167259053Y-33424300D01*
X167287307Y-33445451D01*
X167399955Y-33558099D01*
X167477190Y-33635334D01*
X167521902Y-33680046D01*
X167665288Y-33775854D01*
X167665301Y-33775861D01*
X167823465Y-33841374D01*
X167824626Y-33841855D01*
X167991257Y-33875000D01*
X167993766Y-33875499D01*
X167993769Y-33875500D01*
X167993771Y-33875500D01*
X168166229Y-33875500D01*
X169218187Y-33875500D01*
X169285226Y-33895185D01*
X169318504Y-33926613D01*
X169355483Y-33977510D01*
X169522490Y-34144517D01*
X169713567Y-34283343D01*
X169812991Y-34334002D01*
X169924003Y-34390566D01*
X169924005Y-34390566D01*
X169924008Y-34390568D01*
X170036168Y-34427011D01*
X170148631Y-34463553D01*
X170381903Y-34500500D01*
X170381908Y-34500500D01*
X170618097Y-34500500D01*
X170851368Y-34463553D01*
X170916042Y-34442539D01*
X171075992Y-34390568D01*
X171081164Y-34387933D01*
X171083719Y-34386630D01*
X171286433Y-34283343D01*
X171477510Y-34144517D01*
X171644517Y-33977510D01*
X171783343Y-33786433D01*
X171890568Y-33575992D01*
X171963553Y-33351368D01*
X171970015Y-33310566D01*
X172000500Y-33118097D01*
X172000500Y-32881902D01*
X171963553Y-32648631D01*
X171916596Y-32504114D01*
X171890568Y-32424008D01*
X171890566Y-32424005D01*
X171890566Y-32424003D01*
X171801781Y-32249754D01*
X171783343Y-32213567D01*
X171644517Y-32022490D01*
X171477510Y-31855483D01*
X171286433Y-31716657D01*
X171245071Y-31695582D01*
X171075996Y-31609433D01*
X170851368Y-31536446D01*
X170618097Y-31499500D01*
X170618092Y-31499500D01*
X170381908Y-31499500D01*
X170381903Y-31499500D01*
X170148631Y-31536446D01*
X169924003Y-31609433D01*
X169713566Y-31716657D01*
X169604550Y-31795862D01*
X169522490Y-31855483D01*
X169522488Y-31855485D01*
X169522487Y-31855485D01*
X169355484Y-32022488D01*
X169355483Y-32022490D01*
X169321705Y-32068982D01*
X169318505Y-32073386D01*
X169263174Y-32116051D01*
X169218187Y-32124500D01*
X168624500Y-32124500D01*
X168557461Y-32104815D01*
X168511706Y-32052011D01*
X168500500Y-32000500D01*
X168500500Y-31801902D01*
X168463553Y-31568631D01*
X168414405Y-31417370D01*
X168390568Y-31344008D01*
X168390566Y-31344005D01*
X168390566Y-31344003D01*
X168329491Y-31224138D01*
X168283343Y-31133567D01*
X168144517Y-30942490D01*
X167977510Y-30775483D01*
X167786433Y-30636657D01*
X167575996Y-30529433D01*
X167351368Y-30456446D01*
X167118097Y-30419500D01*
X167118092Y-30419500D01*
X166881908Y-30419500D01*
X166881903Y-30419500D01*
X166648631Y-30456446D01*
X166424003Y-30529433D01*
X166213566Y-30636657D01*
X166127071Y-30699500D01*
X166022490Y-30775483D01*
X166022488Y-30775485D01*
X166022487Y-30775485D01*
X165855485Y-30942487D01*
X165855485Y-30942488D01*
X165855483Y-30942490D01*
X165845343Y-30956447D01*
X165716657Y-31133566D01*
X165609433Y-31344003D01*
X165536446Y-31568631D01*
X165499500Y-31801902D01*
X147784829Y-31801902D01*
X147767990Y-31695582D01*
X147704755Y-31500968D01*
X147611859Y-31318650D01*
X147579474Y-31274077D01*
X147579474Y-31274076D01*
X146900000Y-31953551D01*
X146900000Y-31947339D01*
X146872741Y-31845606D01*
X146820080Y-31754394D01*
X146745606Y-31679920D01*
X146654394Y-31627259D01*
X146552661Y-31600000D01*
X146546446Y-31600000D01*
X147225922Y-30920524D01*
X147225921Y-30920523D01*
X147181359Y-30888147D01*
X147181350Y-30888141D01*
X146999031Y-30795244D01*
X146804417Y-30732009D01*
X146602317Y-30700000D01*
X146397683Y-30700000D01*
X146195582Y-30732009D01*
X146000968Y-30795244D01*
X145818644Y-30888143D01*
X145774077Y-30920523D01*
X145774077Y-30920524D01*
X146453554Y-31600000D01*
X146447339Y-31600000D01*
X146345606Y-31627259D01*
X146254394Y-31679920D01*
X146179920Y-31754394D01*
X146127259Y-31845606D01*
X146100000Y-31947339D01*
X146100000Y-31953553D01*
X145420524Y-31274077D01*
X145420523Y-31274077D01*
X145388143Y-31318644D01*
X145295244Y-31500968D01*
X145232009Y-31695582D01*
X145200000Y-31897682D01*
X142800500Y-31897682D01*
X142800500Y-31897648D01*
X142771833Y-31716657D01*
X142768477Y-31695465D01*
X142727266Y-31568631D01*
X142705220Y-31500781D01*
X142705218Y-31500778D01*
X142705218Y-31500776D01*
X142662720Y-31417370D01*
X142612287Y-31318390D01*
X142581115Y-31275485D01*
X142491971Y-31152786D01*
X142347213Y-31008028D01*
X142181613Y-30887715D01*
X142181612Y-30887714D01*
X142181610Y-30887713D01*
X142124653Y-30858691D01*
X141999223Y-30794781D01*
X141804534Y-30731522D01*
X141629995Y-30703878D01*
X141602352Y-30699500D01*
X141397648Y-30699500D01*
X141373329Y-30703351D01*
X141195465Y-30731522D01*
X141000776Y-30794781D01*
X140818386Y-30887715D01*
X140652786Y-31008028D01*
X140652782Y-31008032D01*
X140572634Y-31088181D01*
X140511311Y-31121666D01*
X140484953Y-31124500D01*
X138413768Y-31124500D01*
X138244633Y-31158143D01*
X138244621Y-31158146D01*
X138085301Y-31224138D01*
X138085288Y-31224145D01*
X137941901Y-31319954D01*
X137941897Y-31319957D01*
X137289179Y-31972675D01*
X137227856Y-32006160D01*
X137169406Y-32004769D01*
X136910666Y-31935440D01*
X136910660Y-31935439D01*
X136910655Y-31935438D01*
X136637684Y-31899501D01*
X136637679Y-31899500D01*
X136637674Y-31899500D01*
X136362326Y-31899500D01*
X136362320Y-31899500D01*
X136362315Y-31899501D01*
X136089344Y-31935438D01*
X136089337Y-31935439D01*
X136089334Y-31935440D01*
X136044926Y-31947339D01*
X135823369Y-32006704D01*
X135568982Y-32112075D01*
X135568971Y-32112080D01*
X135330516Y-32249754D01*
X135112073Y-32417370D01*
X135112066Y-32417376D01*
X134917376Y-32612066D01*
X134917370Y-32612073D01*
X134749754Y-32830516D01*
X134612080Y-33068971D01*
X134612075Y-33068982D01*
X134506704Y-33323369D01*
X134435441Y-33589331D01*
X134435438Y-33589344D01*
X134399501Y-33862315D01*
X134399500Y-33862332D01*
X131040421Y-33862332D01*
X131040290Y-33841374D01*
X131004433Y-28125278D01*
X131023697Y-28058116D01*
X131076213Y-28012031D01*
X131128431Y-28000500D01*
X255875500Y-28000500D01*
X255942539Y-28020185D01*
G37*
%TD.AperFunction*%
%TD*%
M02*
