M48
; DRILL file {KiCad 9.0.6} date 2025-11-28T19:55:16-0300
; FORMAT={-:-/ absolute / inch / decimal}
; #@! TF.CreationDate,2025-11-28T19:55:16-03:00
; #@! TF.GenerationSoftware,Kicad,Pcbnew,9.0.6
; #@! TF.FileFunction,MixedPlating,1,2
FMAT,2
INCH
; #@! TA.AperFunction,Plated,PTH,ComponentDrill
T1C0.0236
; #@! TA.AperFunction,Plated,PTH,ComponentDrill
T2C0.0315
; #@! TA.AperFunction,Plated,PTH,ComponentDrill
T3C0.0354
; #@! TA.AperFunction,Plated,PTH,ComponentDrill
T4C0.0433
; #@! TA.AperFunction,Plated,PTH,ComponentDrill
T5C0.0689
%
G90
G05
T1
X8.3465Y-3.3465
X8.3465Y-3.4252
X8.4252Y-1.5551
X8.5039Y-1.5551
T2
X5.5055Y-3.3465
X5.5709Y-1.2598
X5.6465Y-3.1299
X5.748Y-1.8669
X5.748Y-2.2669
X5.7677Y-1.2598
X5.7874Y-1.4961
X5.7874Y-1.6929
X5.8433Y-2.5197
X5.9055Y-3.3465
X5.9075Y-1.6713
X5.9075Y-1.7713
X5.9075Y-1.8713
X5.9524Y-2.665
X5.9524Y-2.965
X6.0402Y-3.3465
X6.0465Y-3.1299
X6.0524Y-2.665
X6.0524Y-2.965
X6.0567Y-1.5157
X6.0598Y-1.6339
X6.0827Y-2.0866
X6.1524Y-2.665
X6.1524Y-2.965
X6.1945Y-2.3819
X6.1976Y-2.2638
X6.2205Y-3.1102
X6.2433Y-2.5197
X6.2524Y-2.665
X6.2524Y-2.965
X6.2795Y-2.0866
X6.3157Y-3.2283
X6.3976Y-2.5756
X6.3976Y-2.9756
X6.4126Y-1.8307
X6.4126Y-2.1307
X6.4173Y-3.1102
X6.4402Y-3.3465
X6.4567Y-1.5157
X6.4598Y-1.6339
X6.5126Y-1.8307
X6.5126Y-2.1307
X6.5551Y-2.6543
X6.5551Y-3.0543
X6.5748Y-1.2567
X6.5748Y-1.6567
X6.5945Y-2.3819
X6.5976Y-2.2638
X6.6126Y-1.8307
X6.6126Y-2.1307
X6.7126Y-1.2992
X6.7126Y-1.8307
X6.7126Y-2.1307
X6.7157Y-3.2283
X6.726Y-1.4567
X6.7323Y-1.6535
X6.7839Y-2.8043
X6.7839Y-3.0012
X6.7913Y-2.3425
X6.8276Y-2.4803
X6.8276Y-2.5984
X6.8307Y-1.9488
X6.8307Y-2.0488
X6.9094Y-1.2992
X6.9291Y-1.6535
X6.9563Y-2.8618
X6.9563Y-2.9618
X6.9563Y-3.0618
X6.9563Y-3.1618
X6.9685Y-2.7362
X6.9882Y-2.3425
X7.0031Y-1.8307
X7.0031Y-2.1307
X7.0685Y-2.7362
X7.1031Y-1.8307
X7.1031Y-2.1307
X7.126Y-1.4567
X7.2031Y-1.8307
X7.2031Y-2.1307
X7.2276Y-2.4803
X7.2276Y-2.5984
X7.2409Y-2.7165
X7.2563Y-2.8618
X7.2563Y-2.9618
X7.2563Y-3.0618
X7.2563Y-3.1618
X7.3031Y-1.2764
X7.3031Y-1.6764
X7.3031Y-1.8307
X7.3031Y-2.1307
X7.4213Y-2.8937
X7.4213Y-3.0906
X7.4409Y-2.1457
X7.4803Y-1.7224
X7.4803Y-1.8224
X7.6378Y-2.1457
X7.6409Y-2.7165
X7.6724Y-1.6094
X7.6724Y-1.7094
X7.6724Y-1.8094
X7.6724Y-1.9094
X7.7831Y-1.4839
X7.9724Y-1.6094
X7.9724Y-1.7094
X7.9724Y-1.8094
X7.9724Y-1.9094
X7.9799Y-1.4839
X8.1496Y-1.8047
X8.1496Y-2.2047
X8.5433Y-1.7488
X8.5433Y-2.1488
T3
X9.1732Y-2.5
X9.1732Y-3.4843
X9.3701Y-2.5
X9.3701Y-3.4843
X9.5669Y-2.5
X9.7638Y-2.5
X9.7638Y-3.4843
X9.9606Y-2.5
X9.9606Y-3.4843
T4
X5.5906Y-1.4173
X5.5906Y-1.5173
X5.5906Y-1.6173
X7.6028Y-1.3461
X7.9528Y-2.4969
X7.9528Y-2.8969
X8.0028Y-1.3461
X8.1516Y-2.4
X8.1516Y-2.5
X8.1516Y-2.6
X8.3661Y-2.3984
X8.3661Y-2.7984
X8.5433Y-2.3
X8.5433Y-2.4
X8.5433Y-2.5
T5
X5.374Y-1.3386
X5.374Y-1.5386
X8.3447Y-1.2992
X8.5447Y-1.2992
X8.5827Y-3.286
X8.5827Y-3.486
M30
