M48
; DRILL file {KiCad 9.0.4} date 2025-10-31T21:20:42-0300
; FORMAT={-:-/ absolute / metric / decimal}
; #@! TF.CreationDate,2025-10-31T21:20:42-03:00
; #@! TF.GenerationSoftware,Kicad,Pcbnew,9.0.4
; #@! TF.FileFunction,MixedPlating,1,2
FMAT,2
METRIC
; #@! TA.AperFunction,Plated,PTH,ComponentDrill
T1C0.800
; #@! TA.AperFunction,Plated,PTH,ComponentDrill
T2C1.000
; #@! TA.AperFunction,Plated,PTH,ComponentDrill
T3C1.500
; #@! TA.AperFunction,Plated,PTH,ComponentDrill
T4C1.750
%
G90
G05
T1
X54.015Y-57.92
X57.41Y-64.96
X57.41Y-67.5
X57.41Y-70.04
X64.095Y-60.84
X64.095Y-71.0
X64.175Y-57.92
X66.92Y-77.0
X67.515Y-57.92
X68.785Y-82.61
X68.785Y-90.23
X70.975Y-64.42
X70.975Y-66.96
X70.975Y-69.5
X70.975Y-72.04
X71.325Y-82.61
X71.325Y-90.23
X73.865Y-82.61
X73.865Y-90.23
X76.405Y-82.61
X76.405Y-90.23
X77.08Y-77.0
X77.675Y-57.92
X78.595Y-64.42
X78.595Y-66.96
X78.595Y-69.5
X78.595Y-72.04
X80.0Y-88.0
X80.0Y-93.0
X81.595Y-80.42
X81.595Y-85.42
X83.5Y-65.5
X83.5Y-70.5
X88.095Y-56.84
X88.095Y-67.0
X95.595Y-82.88
X95.595Y-85.42
X95.595Y-87.96
T2
X88.5Y-72.5
X88.5Y-75.04
X88.5Y-77.58
T3
X59.595Y-61.42
X65.0Y-80.5
X82.5Y-75.5
T4
X53.92Y-82.5
X59.0Y-82.5
X87.095Y-88.92
X87.095Y-94.0
X94.5Y-72.455
X94.5Y-77.535
M30
