%TF.GenerationSoftware,KiCad,Pcbnew,9.0.5*%
%TF.CreationDate,2025-10-30T22:03:32-03:00*%
%TF.ProjectId,cuarto_check_oscilador,63756172-746f-45f6-9368-65636b5f6f73,rev?*%
%TF.SameCoordinates,Original*%
%TF.FileFunction,Copper,L1,Top*%
%TF.FilePolarity,Positive*%
%FSLAX46Y46*%
G04 Gerber Fmt 4.6, Leading zero omitted, Abs format (unit mm)*
G04 Created by KiCad (PCBNEW 9.0.5) date 2025-10-30 22:03:32*
%MOMM*%
%LPD*%
G01*
G04 APERTURE LIST*
G04 Aperture macros list*
%AMRoundRect*
0 Rectangle with rounded corners*
0 $1 Rounding radius*
0 $2 $3 $4 $5 $6 $7 $8 $9 X,Y pos of 4 corners*
0 Add a 4 corners polygon primitive as box body*
4,1,4,$2,$3,$4,$5,$6,$7,$8,$9,$2,$3,0*
0 Add four circle primitives for the rounded corners*
1,1,$1+$1,$2,$3*
1,1,$1+$1,$4,$5*
1,1,$1+$1,$6,$7*
1,1,$1+$1,$8,$9*
0 Add four rect primitives between the rounded corners*
20,1,$1+$1,$2,$3,$4,$5,0*
20,1,$1+$1,$4,$5,$6,$7,0*
20,1,$1+$1,$6,$7,$8,$9,0*
20,1,$1+$1,$8,$9,$2,$3,0*%
G04 Aperture macros list end*
%TA.AperFunction,ComponentPad*%
%ADD10R,3.000000X3.000000*%
%TD*%
%TA.AperFunction,ComponentPad*%
%ADD11C,3.200000*%
%TD*%
%TA.AperFunction,ComponentPad*%
%ADD12C,2.000000*%
%TD*%
%TA.AperFunction,ComponentPad*%
%ADD13C,3.000000*%
%TD*%
%TA.AperFunction,ComponentPad*%
%ADD14R,1.900000X1.900000*%
%TD*%
%TA.AperFunction,ComponentPad*%
%ADD15RoundRect,0.281250X-0.918750X-0.618750X0.918750X-0.618750X0.918750X0.618750X-0.918750X0.618750X0*%
%TD*%
%TA.AperFunction,ComponentPad*%
%ADD16O,2.400000X1.800000*%
%TD*%
%TA.AperFunction,ComponentPad*%
%ADD17RoundRect,0.281250X-0.618750X0.918750X-0.618750X-0.918750X0.618750X-0.918750X0.618750X0.918750X0*%
%TD*%
%TA.AperFunction,ComponentPad*%
%ADD18O,1.800000X2.400000*%
%TD*%
%TA.AperFunction,ComponentPad*%
%ADD19C,1.600000*%
%TD*%
%TA.AperFunction,ComponentPad*%
%ADD20R,3.200000X3.200000*%
%TD*%
%TA.AperFunction,ComponentPad*%
%ADD21C,3.500000*%
%TD*%
G04 APERTURE END LIST*
D10*
%TO.P,J2,1,Pin_1*%
%TO.N,Vout*%
X93594867Y-70375000D03*
D11*
%TO.P,J2,2,Pin_2*%
%TO.N,GND*%
X93594867Y-75455000D03*
%TD*%
D12*
%TO.P,RV1,1,1*%
%TO.N,Vin*%
X57594867Y-69960000D03*
%TO.P,RV1,2,2*%
%TO.N,Offset*%
X57594867Y-67420000D03*
%TO.P,RV1,3,3*%
%TO.N,GND*%
X57594867Y-64880000D03*
%TD*%
D13*
%TO.P,TP3,1,1*%
%TO.N,Net-(U1B--)*%
X83594867Y-69920000D03*
%TD*%
D14*
%TO.P,JP1,1,A*%
%TO.N,DCycle*%
X86094867Y-77880000D03*
D12*
%TO.P,JP1,2,C*%
%TO.N,Net-(JP1-C)*%
X86094867Y-80420000D03*
%TO.P,JP1,3,B*%
%TO.N,ExtDCycle*%
X86094867Y-82960000D03*
%TD*%
%TO.P,R3,1*%
%TO.N,Net-(U1A-+)*%
X69514867Y-76920000D03*
%TO.P,R3,2*%
%TO.N,Net-(U1B--)*%
X79674867Y-76920000D03*
%TD*%
D13*
%TO.P,TP2,1,1*%
%TO.N,GND*%
X62500000Y-85500000D03*
%TD*%
D12*
%TO.P,R4,1*%
%TO.N,Net-(R1-Pad2)*%
X64094867Y-60840000D03*
%TO.P,R4,2*%
%TO.N,Net-(U1A-+)*%
X64094867Y-71000000D03*
%TD*%
%TO.P,R5,1*%
%TO.N,Vin*%
X88094867Y-56840000D03*
%TO.P,R5,2*%
%TO.N,Vout*%
X88094867Y-67000000D03*
%TD*%
D15*
%TO.P,U1,1*%
%TO.N,Net-(R1-Pad2)*%
X70974867Y-64420000D03*
D16*
%TO.P,U1,2,-*%
%TO.N,Offset*%
X70974867Y-66960000D03*
%TO.P,U1,3,+*%
%TO.N,Net-(U1A-+)*%
X70974867Y-69500000D03*
%TO.P,U1,4,V-*%
%TO.N,Vin*%
X70974867Y-72040000D03*
%TO.P,U1,5,+*%
%TO.N,Net-(JP1-C)*%
X78594867Y-72040000D03*
%TO.P,U1,6,-*%
%TO.N,Net-(U1B--)*%
X78594867Y-69500000D03*
%TO.P,U1,7*%
%TO.N,Vout*%
X78594867Y-66960000D03*
%TO.P,U1,8,V+*%
%TO.N,GND*%
X78594867Y-64420000D03*
%TD*%
D17*
%TO.P,U2,1*%
%TO.N,Net-(U1B--)*%
X76404867Y-82610000D03*
D18*
%TO.P,U2,2,-*%
%TO.N,Net-(U2A--)*%
X73864867Y-82610000D03*
%TO.P,U2,3,+*%
%TO.N,Offset*%
X71324867Y-82610000D03*
%TO.P,U2,4,V-*%
%TO.N,Vin*%
X68784867Y-82610000D03*
%TO.P,U2,5,+*%
%TO.N,GND*%
X68784867Y-90230000D03*
%TO.P,U2,6,-*%
%TO.N,Net-(U2B--)*%
X71324867Y-90230000D03*
%TO.P,U2,7*%
X73864867Y-90230000D03*
%TO.P,U2,8,V+*%
%TO.N,GND*%
X76404867Y-90230000D03*
%TD*%
D10*
%TO.P,J3,1,Pin_1*%
%TO.N,ExtDCycle*%
X87094867Y-88920000D03*
D11*
%TO.P,J3,2,Pin_2*%
%TO.N,GND*%
X87094867Y-94000000D03*
%TD*%
D19*
%TO.P,C2,1*%
%TO.N,GND*%
X66500000Y-80000000D03*
%TO.P,C2,2*%
%TO.N,Vin*%
X66500000Y-75000000D03*
%TD*%
D20*
%TO.P,J1,1,Pin_1*%
%TO.N,Vin*%
X55594867Y-75375000D03*
D21*
%TO.P,J1,2,Pin_2*%
%TO.N,GND*%
X55594867Y-80455000D03*
%TD*%
D12*
%TO.P,R1,1*%
%TO.N,Net-(U2A--)*%
X77674867Y-57920000D03*
%TO.P,R1,2*%
%TO.N,Net-(R1-Pad2)*%
X67514867Y-57920000D03*
%TD*%
D13*
%TO.P,TP1,1,1*%
%TO.N,Net-(R1-Pad2)*%
X59594867Y-61420000D03*
%TD*%
D12*
%TO.P,C1,1*%
%TO.N,Net-(U1B--)*%
X81594867Y-80420000D03*
%TO.P,C1,2*%
%TO.N,Net-(U2A--)*%
X81594867Y-85420000D03*
%TD*%
%TO.P,R2,1*%
%TO.N,Vin*%
X54014867Y-57920000D03*
%TO.P,R2,2*%
%TO.N,Net-(R1-Pad2)*%
X64174867Y-57920000D03*
%TD*%
%TO.P,RV2,1,1*%
%TO.N,Vin*%
X95594867Y-87960000D03*
%TO.P,RV2,2,2*%
%TO.N,DCycle*%
X95594867Y-85420000D03*
%TO.P,RV2,3,3*%
%TO.N,GND*%
X95594867Y-82880000D03*
%TD*%
M02*
