M48
; DRILL file {KiCad 9.0.5} date 2025-10-30T22:02:00-0300
; FORMAT={-:-/ absolute / inch / decimal}
; #@! TF.CreationDate,2025-10-30T22:02:00-03:00
; #@! TF.GenerationSoftware,Kicad,Pcbnew,9.0.5
; #@! TF.FileFunction,MixedPlating,1,2
FMAT,2
INCH
; #@! TA.AperFunction,Plated,PTH,ComponentDrill
T1C0.0315
; #@! TA.AperFunction,Plated,PTH,ComponentDrill
T2C0.0394
; #@! TA.AperFunction,Plated,PTH,ComponentDrill
T3C0.0591
; #@! TA.AperFunction,Plated,PTH,ComponentDrill
T4C0.0689
%
G90
G05
T1
X2.1266Y-2.2803
X2.2675Y-2.5543
X2.2675Y-2.6543
X2.2675Y-2.7543
X2.5234Y-2.3953
X2.5234Y-2.7953
X2.5266Y-2.2803
X2.6181Y-2.9528
X2.6181Y-3.1496
X2.6581Y-2.2803
X2.7081Y-3.2524
X2.7081Y-3.5524
X2.7368Y-3.0283
X2.7943Y-2.5362
X2.7943Y-2.6362
X2.7943Y-2.7362
X2.7943Y-2.8362
X2.8081Y-3.2524
X2.8081Y-3.5524
X2.9081Y-3.2524
X2.9081Y-3.5524
X3.0081Y-3.2524
X3.0081Y-3.5524
X3.0581Y-2.2803
X3.0943Y-2.5362
X3.0943Y-2.6362
X3.0943Y-2.7362
X3.0943Y-2.8362
X3.1368Y-3.0283
X3.2124Y-3.1661
X3.2124Y-3.363
X3.4683Y-2.2378
X3.4683Y-2.6378
X3.7636Y-3.263
X3.7636Y-3.363
X3.7636Y-3.463
T2
X3.3896Y-3.0661
X3.3896Y-3.1661
X3.3896Y-3.2661
T3
X2.3463Y-2.4181
X2.4606Y-3.3661
X3.2911Y-2.7528
T4
X2.1888Y-2.9675
X2.1888Y-3.1675
X3.4289Y-3.5008
X3.4289Y-3.7008
X3.6848Y-2.7707
X3.6848Y-2.9707
M30
